<svg id="Layer_1" data-name="Layer 1" xmlns="http://www.w3.org/2000/svg" viewBox="0 0 360 294.118"><defs><style>.cls-1{fill:#eda97b;}.cls-2{opacity:0.2;}.cls-3{fill:none;}</style></defs><title>josoor-01-01</title><path class="cls-1" d="M197.4166,244.3346c-.7086-.091-1.4262-.1736-2.1223-.2766C195.9878,244.1639,196.71,244.2411,197.4166,244.3346Z"/><path class="cls-1" d="M203.0665,244.9282c-1.1375-.09-2.2643-.1907-3.3716-.31C200.8006,244.74,201.93,244.8376,203.0665,244.9282Z"/><path class="cls-1" d="M207.7271,245.2129c-1.176-.0487-2.3312-.118-3.4764-.1974C205.3972,245.0948,206.5494,245.167,207.7271,245.2129Z"/><path class="cls-1" d="M212.4183,245.3265h.0031l-.0448-.001Z"/><path class="cls-1" d="M137.6242,210.9562a95.4707,95.4707,0,0,1-9.3781-15.2272A71.3265,71.3265,0,0,0,137.6242,210.9562Z"/><path class="cls-1" d="M212.3766,245.3255c-1.5831-.0006-3.12-.053-4.6494-.1126Q210.0139,245.3076,212.3766,245.3255Z"/><path class="cls-1" d="M204.2508,245.0155q-.5947-.0411-1.1843-.0873Q203.6558,244.9748,204.2508,245.0155Z"/><path class="cls-1" d="M193.7865,212.5155l2.67.6276a71.1818,71.1818,0,0,0,9.6955,1.4672c2.2615.1709,4.5485.2575,6.7973.2575,1.4146,0,2.7351-.036,3.9634-.0926.85-.9316,1.564-1.7261,2.3684-2.6675.0815-.0953.1677-.1839.2486-.28,15.6148-18.5292,24.2139-42.61,24.2139-67.8041v-75.96a1.5392,1.5392,0,0,1,1.5392-1.5392h46.6334a1.5392,1.5392,0,0,1,1.5392,1.5392v76.8152c0,24.6195-10.1776,47.7167-27.9253,63.3723A78.0293,78.0293,0,0,1,248.5772,219.7a76.356,76.356,0,0,1-26.0592,7.4876c-1.6811.1794-3.3754.3264-5.0964.4063l-.0392.0018q-2.4032.11-4.8575.0916c-.9917-.0058-1.9613-.0344-2.9287-.065-1.4963-.0475-2.9734-.1141-4.4109-.2191a102.3377,102.3377,0,0,1-27.7541-6.6555,66.0378,66.0378,0,0,1-14.3477-8.7347,70.4275,70.4275,0,0,1-17.8557-21.706,87.904,87.904,0,0,1-5.2674-11.785,101.7034,101.7034,0,0,1-6.0639-31.0558l-.0336-7.2471a1.5392,1.5392,0,0,0-1.5392-1.532H50.4442a1.5392,1.5392,0,0,0-1.5392,1.5392v7.2806c0,19.6458,7.7033,50.2678,29.4146,71.9118,17.2466,17.1934,39.8631,25.91,67.2325,25.9083h.3978a108.51,108.51,0,0,0,11.7015-.673,99.7519,99.7519,0,0,1-20.1932-14.8314c-.9053-.8613-1.7727-1.7217-2.6111-2.5794a.5894.5894,0,0,0-.3577-.1732c-17.5568-1.9585-32.2344-8.6977-43.7166-20.1434-14.3546-14.3124-21.2752-33.4522-23.4464-48.8622a1.5366,1.5366,0,0,1,1.5327-1.7379h46.6569a1.5376,1.5376,0,0,1,1.5266,1.3507,126.1936,126.1936,0,0,0,6.2013,26.1825,109.6167,109.6167,0,0,0,5.0023,11.87,95.4707,95.4707,0,0,0,9.3781,15.2272c9.6769,12.3821,27.6632,28.5164,57.67,33.1018.6961.103,1.4136.1856,2.1223.2766.7542.1,1.5093.1984,2.2783.2834,1.1073.12,2.234.22,3.3716.31q.589.0468,1.1843.0873c1.1452.0794,2.3.1487,3.4764.1974,1.53.06,3.0664.112,4.6494.1126l.0448.001c.2208.0016.4369.0016.6577.0016,1.4276,0,2.8427-.0333,4.25-.0872,2.6969-.1035,5.352-.3157,7.9707-.6205q4.28-.4981,8.4238-1.3373A92.8728,92.8728,0,0,0,277.2,221.4791c21.5407-19.0021,33.895-46.9212,33.895-76.6V50.4237a1.5392,1.5392,0,0,0-1.5392-1.5392H227.6429a1.5392,1.5392,0,0,0-1.5392,1.5392v93.6c0,21.0411-7.1254,41.0846-20.0639,56.4379-.6649.7893-1.3529,1.5382-2.0376,2.2931a78.2614,78.2614,0,0,1-9.7334,9.0833l-.435.3513C193.65,212.3472,193.6024,212.4792,193.7865,212.5155Z"/><path class="cls-1" d="M199.6949,244.6179c-.769-.085-1.524-.1836-2.2783-.2834C198.1733,244.4318,198.9238,244.5346,199.6949,244.6179Z"/><rect class="cls-1" x="164.9258" y="128.4387" width="36.2024" height="36.2024" rx="2.7678" ry="2.7678" transform="translate(-50.012 172.3402) rotate(-45)"/><g class="cls-2"><rect class="cls-3" width="360" height="294.118"/></g></svg>