<svg enable-background="new 0 0 347.3 220" viewBox="0 0 347.3 220" xmlns="http://www.w3.org/2000/svg"><path d="m183 105.2c-.4 0-.8-.1-1.1-.1.3 0 .7 0 1.1.1z" fill="#fffef9"/><path d="m186.1 105.5c-.6 0-1.2-.1-1.8-.2.5.1 1.1.1 1.8.2z" fill="#fffef9"/><path d="m188.6 105.6c-.6 0-1.3-.1-1.9-.1.6.1 1.2.1 1.9.1z" fill="#fffef9"/><path d="m150.8 87.2c-2.1-2.7-3.7-5.5-5-8.2 0 0 1.5 3.6 5 8.2z" fill="#fffef9"/><path d="m191.1 105.7c-.9 0-1.7 0-2.5-.1.8.1 1.6.1 2.5.1z" fill="#fffef9"/><path d="m186.7 105.5c-.2 0-.4 0-.6 0z" fill="#fffef9"/><path d="m181.1 88 1.4.3c1.6.4 3.4.7 5.2.8 1.2.1 2.4.1 3.7.1h1.9c.1 0 .3-.1.4-.2.4-.4.7-.8 1.1-1.2 0-.1.1-.1.1-.2 8.4-10 13-22.9 13-36.5v-39.7c0-1 .8-1.9 1.9-1.9h23c1 0 1.9.8 1.9 1.9v40.3c0 13.2-5.5 25.7-15 34.1-2.8 2.5-5.9 4.5-9.1 6.2-4.3 2.1-9 3.5-14 4-.9.1-1.8.2-2.7.2-.9 0-1.7.1-2.6 0-.5 0-1.1 0-1.6 0-.8 0-1.6-.1-2.4-.1-7.7-.6-14.9-3.6-14.9-3.6-2.9-1.3-5.5-2.9-7.7-4.7-4.2-3.4-7.3-7.5-9.6-11.7-1.1-2.1-2.1-4.3-2.8-6.3-3.1-8.5-3.3-16-3.3-16.7v-2.8c0-1-.8-1.9-1.9-1.9h-42.1c-1 0-1.9.8-1.9 1.9v2.9c0 10.6 4.1 27 15.8 38.7 9.3 9.3 21.4 13.9 36.2 13.9h.2c1.7 0 3.3-.1 4.9-.2.4 0 .5-.6.2-.8-3.9-2.3-7.2-4.9-9.7-7.3-.4-.4-.8-.8-1.1-1.1-.2-.2-.5-.4-.8-.4-9.3-1.1-17.1-4.7-23.2-10.8-7.3-7.3-11.1-17-12.4-25-.2-1.1.7-2.2 1.9-2.2h22.9c.9 0 1.7.7 1.9 1.6.5 3.5 1.4 8.2 3.2 13.2.7 2.1 1.6 4.2 2.7 6.4 1.3 2.7 3 5.5 5 8.2 5.2 6.7 14.9 15.3 31 17.8.4.1.8.1 1.1.1.4.1.8.1 1.2.2.6.1 1.2.1 1.8.2h.6c.6 0 1.2.1 1.9.1.8 0 1.6.1 2.5.1h.4 2.3c1.5-.1 2.9-.2 4.3-.3 1.5-.2 3-.4 4.5-.7 8.7-1.8 16.5-5.7 23.4-11.7 11.6-10.2 18.2-25.2 18.2-41.2v-50.1c0-1-.8-1.9-1.9-1.9h-42c-1 0-1.9.8-1.9 1.9v49.3c0 11.3-3.8 22.1-10.8 30.4-.4.4-.7.8-1.1 1.2-1.6 1.8-3.4 3.4-5.2 4.9l-.2.2c.1 0 .1.1.2.1z" fill="#fffef9"/><path d="m184.2 105.3c-.4 0-.8-.1-1.2-.2.4.1.8.2 1.2.2z" fill="#fffef9"/><path d="m186.5 55-10.6 10.6c-1.2 1.2-3.2 1.2-4.4 0l-10.7-10.6c-1.2-1.2-1.2-3.2 0-4.4l10.7-10.6c1.2-1.2 3.2-1.2 4.4 0l10.6 10.6c1.2 1.3 1.2 3.2 0 4.4z" fill="#fffef9"/><g fill="#fbfcfd"><path d="m24.6 187.4c0 4.6-1.1 8.2-3.4 10.8-2.2 2.6-5.6 4-10.2 4-3.7 0-7-.9-10-2.8l.9-5.9c3.1 2.1 6.1 3.2 9 3.2 5.1 0 7.6-3.2 7.6-9.6v-31.1h6.1z"/><path d="m65.4 184.6c0 5.3-1.5 9.5-4.6 12.8s-6.9 4.9-11.7 4.9c-4.7 0-8.6-1.6-11.5-4.8-3-3.2-4.4-7.5-4.4-12.8s1.5-9.6 4.6-12.8c3-3.3 7-4.9 11.8-4.9s8.6 1.6 11.5 4.8c2.8 3.2 4.3 7.4 4.3 12.8zm-5.9.1c0-3.6-.9-6.6-2.8-8.9s-4.4-3.5-7.6-3.5-5.7 1.1-7.5 3.4-2.7 5.2-2.7 8.9c0 3.6.9 6.6 2.8 8.9s4.4 3.5 7.6 3.5 5.7-1.1 7.5-3.4c1.9-2.3 2.7-5.3 2.7-8.9z"/><path d="m94.7 191.7c0 3.1-1.2 5.7-3.5 7.6-2.3 2-5.3 2.9-9 2.9-4.4 0-8.2-1.1-11.6-3.1l1.5-5.5c3 2.1 6.4 3.1 10.2 3.1 1.9 0 3.5-.4 4.7-1.3s1.8-2 1.8-3.4c0-.8-.2-1.4-.6-2s-1-1.1-1.9-1.5-1.7-.8-2.3-1c-.7-.2-1.7-.5-3-.9-2.9-.8-5.3-1.9-7.1-3.4-1.8-1.4-2.7-3.5-2.7-6.3 0-3 1.1-5.5 3.4-7.3s5.1-2.8 8.5-2.8c3.9 0 7.4.8 10.7 2.5l-1.5 5.5c-3-1.6-6.1-2.5-9.5-2.5-1.8 0-3.2.4-4.3 1.1s-1.6 1.7-1.6 3c0 1.4.6 2.5 1.9 3.2s3.2 1.4 5.7 2.1c3 .8 5.4 2 7.3 3.4 1.9 1.6 2.9 3.8 2.9 6.6z"/><path d="m132.5 184.6c0 5.3-1.5 9.5-4.6 12.8s-6.9 4.9-11.7 4.9c-4.7 0-8.6-1.6-11.5-4.8-3-3.2-4.4-7.5-4.4-12.8s1.5-9.6 4.6-12.8c3-3.3 7-4.9 11.8-4.9s8.6 1.6 11.5 4.8 4.3 7.4 4.3 12.8zm-5.8.1c0-3.6-.9-6.6-2.8-8.9s-4.4-3.5-7.6-3.5-5.7 1.1-7.5 3.4-2.7 5.2-2.7 8.9c0 3.6.9 6.6 2.8 8.9s4.4 3.5 7.6 3.5 5.7-1.1 7.5-3.4 2.7-5.3 2.7-8.9z"/><path d="m170.7 184.6c0 5.3-1.5 9.5-4.6 12.8s-6.9 4.9-11.7 4.9c-4.7 0-8.6-1.6-11.5-4.8-3-3.2-4.4-7.5-4.4-12.8s1.5-9.6 4.6-12.8c3-3.3 7-4.9 11.8-4.9s8.6 1.6 11.5 4.8c2.8 3.2 4.3 7.4 4.3 12.8zm-5.9.1c0-3.6-.9-6.6-2.8-8.9s-4.4-3.5-7.6-3.5-5.7 1.1-7.5 3.4-2.7 5.2-2.7 8.9c0 3.6.9 6.6 2.8 8.9s4.4 3.5 7.6 3.5 5.7-1.1 7.5-3.4 2.7-5.3 2.7-8.9z"/><path d="m184.7 179.5v21.6h-5.9v-33.2l5.9-.9v5.9c2.5-3.9 5.5-5.9 9.2-5.9 2.4 0 4.4.6 6.2 1.7l-1.5 5.6c-1.7-1-3.4-1.5-5.3-1.5-3.3-.1-6.1 2.2-8.6 6.7z"/><path d="m246.3 177.9c2.9.8 5.2 2.1 6.8 3.9s2.4 4 2.4 6.6c0 4-1.4 7.1-4.2 9.4s-7 3.4-12.6 3.4h-15.4v-45.2h15c5.2 0 9.2 1.1 11.8 3.2s3.9 5.1 3.9 8.8c.1 4.6-2.5 7.9-7.7 9.9zm1.6-9.4c0-2.2-.8-3.9-2.3-5.1-1.6-1.2-3.8-1.8-6.8-1.8h-9.3v14.2h8.4c3.2 0 5.6-.7 7.4-2 1.7-1.2 2.6-3 2.6-5.3zm-9.5 12.8h-8.9v14.2h9.8c6.7 0 10-2.4 10-7.1.1-4.7-3.6-7.1-10.9-7.1z"/><path d="m269.6 201.1h-5.9v-48.7l5.9-.9z"/><path d="m309.9 184.6c0 5.3-1.5 9.5-4.6 12.8s-6.9 4.9-11.7 4.9c-4.7 0-8.6-1.6-11.5-4.8-3-3.2-4.4-7.5-4.4-12.8s1.5-9.6 4.6-12.8c3-3.3 7-4.9 11.8-4.9s8.6 1.6 11.5 4.8 4.3 7.4 4.3 12.8zm-5.8.1c0-3.6-.9-6.6-2.8-8.9s-4.4-3.5-7.6-3.5-5.7 1.1-7.5 3.4-2.7 5.2-2.7 8.9c0 3.6.9 6.6 2.8 8.9s4.4 3.5 7.6 3.5 5.7-1.1 7.5-3.4 2.7-5.3 2.7-8.9z"/><path d="m320.5 201.6c-2.9-1.3-4.3-3.1-4.3-5.6 0-1.3.5-2.6 1.5-3.8s2.3-2.1 4-2.6c-3.7-2.1-5.5-5.5-5.5-10.2 0-3.4 1.2-6.4 3.6-8.8 2.4-2.5 5.7-3.7 9.8-3.7 2.9 0 5.7.6 8.5 1.9l8.5-.8.2 5.9-6.4-1.2c.6.6 1.2 1.5 1.6 2.9.4 1.3.7 2.6.7 3.9 0 3.4-1.3 6.2-3.8 8.6s-5.7 3.5-9.5 3.5c-1.3 0-2.8-.3-4.6-.8-.8.3-1.6.8-2.2 1.4-.7.6-1 1.3-1 2.1 0 1.1.5 1.9 1.6 2.4 1 .5 3 .8 6 .8h3.1c9.6 0 14.4 3 14.4 8.9 0 3.6-1.7 6.6-5.2 9-3.4 2.4-7.7 3.6-12.7 3.6-4.4 0-8.1-.9-11-2.7s-4.4-4.1-4.4-7c0-1.9.6-3.6 1.9-5 1.2-1.3 3-2.2 5.2-2.7zm4.5 1.1c-1.7.5-3.1 1.2-4.2 2.1-1 .9-1.6 2-1.6 3.2 0 1.8 1 3.3 2.9 4.4 1.9 1.2 4.5 1.7 7.6 1.7 3.2 0 5.8-.6 7.9-1.9s3.2-2.9 3.2-4.8c0-1.7-.8-2.9-2.3-3.5s-4.1-.9-7.6-.9c-2 0-4-.1-5.9-.3zm-2.9-23.2c0 2.2.7 4 2.1 5.4s3.3 2 5.6 2c2.2 0 3.9-.7 5.2-2.2 1.3-1.4 1.9-3.3 1.9-5.7 0-2.3-.6-4.1-2-5.5s-3.2-2-5.6-2c-2.2 0-3.9.7-5.2 2.2-1.4 1.6-2 3.5-2 5.8z"/></g></svg>