<svg enable-background="new 0 0 144 144" viewBox="0 0 144 144" xmlns="http://www.w3.org/2000/svg"><g fill="#fffef9"><path d="m115.8 103.1c-.2 0-.4-.2-.4-.4 0-.1 0-.2 0-.2 0-.5 0-1.1 0-1.6 0-2.1 0-4.2 0-6.2 0-1.5.1-2.9 1-4.2s2.4-2 3.9-2.3c1.1-.2 2.2-.2 3.3-.2h3.2c.2 0 .4.2.4.4v1.9c0 .2-.2.4-.4.4-1.3 0-2.5 0-3.8 0-1 0-2.1.1-2.8.9-.7.7-.9 1.6-.9 2.6-.1 1.4-.1 2.8-.1 4.2v4.3c0 .2-.2.4-.4.4z"/><path d="m23.2 88.2c-.2 0-.4.2-.4.4v13.5c0 .7 0 1.4-.2 2.1-.3 1.1-1.3 1.4-2.3 1.5-.5 0-.9 0-1.4.1-.2 0-.4 0-.6 0s-.3.2-.3.3v2.2c0 .2.2.3.3.3 1.2 0 2.4.1 3.5-.1.9-.1 1.9-.3 2.7-.7 1.3-.7 1.8-2 2-3.4.1-1.1.1-2.2.1-3.2 0-1.1 0-10.4 0-12.7 0-.2-.2-.4-.4-.4h-3z"/><path d="m22.8 85.8v-2.9c0-.2.2-.4.4-.4h3.2c.2 0 .4.2.4.4v2.9c0 .2-.2.4-.4.4h-3.2c-.3-.1-.4-.2-.4-.4z"/><path d="m63.6 100.4h.1c.6-.1 1-.5 1.1-1.1s0-1.4-.4-1.8c-.5-.5-1.4-.4-2-.4-1 0-2 0-3.1 0-2.8 0-7.1.6-8.2-2.8-.4-1.2-.3-2.7.2-3.9.5-1.1 1.6-1.8 2.8-1.9 1.1-.1 2.2-.1 3.2-.1h3.5 6.8c.2 0 .3.2.3.3v2.1c0 .2-.2.3-.3.3h-9c-.9 0-2-.1-2.9.1-.6.1-1.1.5-1.2 1.1s0 1.3.4 1.7c.6.5 1.5.4 2.2.4h6.3c.8 0 1.7 0 2.5.3 1.2.4 2.1 1.3 2.4 2.5.4 1.3.4 3.1-.3 4.3-.6 1.2-1.9 1.6-3.2 1.8-1.1.1-2.3.1-3.4.1-1.2 0-2.3 0-3.5 0-2.1 0-4.3 0-6.4 0-.2 0-.4-.2-.4-.4v-2c0-.2.2-.3.3-.3z"/><path d="m39.2 103.3c-2.2-.1-4.5-.1-6.5-1.1-1.4-.7-2.5-1.9-3.1-3.5-1.2-3.3-.5-7.8 2.8-9.6 1.7-.9 3.8-1.1 5.7-1.2 1.2 0 2.4 0 3.6.1 1 .1 2 .2 2.9.5 1.5.5 2.7 1.5 3.5 2.8.9 1.5 1.1 3.4 1 5.1-.2 2.2-1.2 4.3-3.1 5.4-2 1.5-4.5 1.5-6.8 1.5zm0-3c1.3 0 2.7.1 3.9-.5.9-.4 1.7-1.2 2-2.1.4-1.2.4-2.8.1-4-.3-.9-.9-1.7-1.7-2.2-1.2-.6-2.7-.7-4-.7-.8 0-1.5 0-2.3.1-.6.1-1.3.2-1.9.4-2.3 1-2.7 4-2 6.1.3 1 .9 1.8 1.8 2.2 1.2.8 2.6.7 4.1.7z"/><path d="m103 103.3c-2.2-.1-4.5-.1-6.5-1.1-1.4-.7-2.5-1.9-3.1-3.5-1.2-3.3-.5-7.8 2.8-9.6 1.7-.9 3.8-1.1 5.7-1.2 1.2 0 2.4 0 3.6.1 1 .1 2 .2 2.9.5 1.5.5 2.7 1.5 3.5 2.8.9 1.5 1.1 3.4 1 5.1-.2 2.2-1.2 4.3-3.1 5.4-2 1.5-4.5 1.5-6.8 1.5zm0-3c1.3 0 2.7.1 3.9-.5.9-.4 1.7-1.2 2-2.1.4-1.2.4-2.8.1-4-.3-.9-.9-1.7-1.7-2.2-1.2-.6-2.7-.7-4-.7-.8 0-1.5 0-2.3.1-.6.1-1.3.2-1.9.4-2.3 1-2.7 4-2 6.1.3 1 .9 1.8 1.8 2.2 1.2.8 2.6.7 4.1.7z"/><path d="m81 103.3c-2.2-.1-4.5-.1-6.5-1.1-1.4-.7-2.5-1.9-3.1-3.5-1.2-3.3-.5-7.8 2.8-9.6 1.7-.9 3.8-1.1 5.7-1.2 1.2 0 2.4 0 3.6.1 1 .1 2 .2 2.9.5 1.5.5 2.7 1.5 3.5 2.8.9 1.5 1.1 3.4 1 5.1-.2 2.2-1.2 4.3-3.1 5.4-2 1.5-4.5 1.5-6.8 1.5zm-.1-3c1.3 0 2.7.1 3.9-.5.9-.4 1.7-1.2 2-2.1.4-1.2.4-2.8.1-4-.3-.9-.9-1.7-1.7-2.2-1.2-.6-2.7-.7-4-.7-.8 0-1.5 0-2.3.1-.6.1-1.3.2-1.9.4-2.3 1-2.7 4-2 6.1.3 1 .9 1.8 1.8 2.2 1.3.8 2.7.7 4.1.7z"/></g><g fill="#eda97b"><path d="m76.7 76.6c-.2 0-.3 0-.5-.1.1 0 .3 0 .5.1z"/><path d="m78 76.7c-.3 0-.5 0-.8-.1.2.1.5.1.8.1z"/><path d="m79 76.8c-.3 0-.5 0-.8 0 .3-.1.6 0 .8 0z"/><path d="m62.8 68.9c-.9-1.2-1.6-2.4-2.2-3.5.1-.1.7 1.5 2.2 3.5z"/><path d="m80.1 76.8c-.4 0-.7 0-1.1 0z"/><path d="m78.2 76.7c-.1 0-.2 0-.3 0z"/><path d="m75.8 69.2.6.1c.7.2 1.5.3 2.2.3.5 0 1.1.1 1.6.1h.9c.2-.2.4-.4.5-.6 0 0 0 0 .1-.1 3.6-4.3 5.6-9.8 5.6-15.7v-17.5c0-.2.2-.4.4-.4h10.8c.2 0 .4.2.4.4v17.8c0 5.7-2.4 11-6.5 14.6-1.2 1.1-2.5 2-3.9 2.6-1.9.9-3.9 1.5-6 1.7-.4 0-.8.1-1.2.1s-.7 0-1.1 0c-.2 0-.5 0-.7 0-.3 0-.7 0-1-.1-3.3-.3-6.4-1.5-6.4-1.5-1.3-.6-2.4-1.2-3.3-2-1.8-1.5-3.2-3.2-4.1-5-.5-.9-.9-1.8-1.2-2.7-1.5-3.6-1.5-6.8-1.5-7.1v-1.7c0-.2-.2-.4-.4-.4h-18.9c-.2 0-.4.2-.4.4v1.7c0 4.5 1.8 11.6 6.8 16.6 4 4 9.2 6 15.5 6h.1c.9 0 1.8-.1 2.7-.2-1.9-1.1-3.5-2.3-4.7-3.4-.2-.2-.4-.4-.6-.6h-.1c-4.1-.5-7.4-2-10.1-4.7-3.3-3.3-4.9-7.7-5.4-11.3 0-.2.1-.4.4-.4h10.8c.2 0 .3.1.4.3.2 1.5.6 3.7 1.4 6.1.3.9.7 1.8 1.2 2.7.6 1.1 1.3 2.3 2.2 3.5 2.2 2.9 6.4 6.6 13.3 7.7.2 0 .3 0 .5.1.2 0 .3 0 .5.1.3 0 .5.1.8.1h.3.8 1.1.2 1c.6 0 1.2-.1 1.8-.1.7-.1 1.3-.2 1.9-.3 3.7-.8 7.1-2.4 10-5 5-4.4 7.8-10.8 7.8-17.7v-21.9c0-.2-.2-.4-.4-.4h-18.9c-.2 0-.4.2-.4.4v21.6c0 4.9-1.6 9.5-4.6 13-.2.2-.3.4-.5.5-.7.8-1.5 1.5-2.2 2.1z"/><path d="m77.2 76.6c-.2 0-.4 0-.5-.1.1.1.3.1.5.1z"/><path d="m78.8 54.4-5 5c-.2.2-.7.2-.9 0l-5-5c-.2-.2-.2-.7 0-.9l5-5c.2-.2.7-.2.9 0l5 5c.2.3.2.7 0 .9z"/></g><path d="m.6 1h144v144h-144z" fill="none"/></svg>