<svg enable-background="new 0 0 242.6 182.4" viewBox="0 0 242.6 182.4" xmlns="http://www.w3.org/2000/svg"><path d="m200.3 150.9c-.4 0-.7-.3-.7-.7 0-.1 0-.3 0-.4 0-1 0-1.9 0-2.9 0-3.8 0-7.6 0-11.4.1-2.7.3-5.4 1.9-7.7 1.7-2.4 4.4-3.6 7.2-4.1 2-.4 4-.3 6-.3h5.9c.4 0 .7.3.7.7v3.6c0 .4-.3.7-.7.7-2.3 0-4.6 0-6.9 0-1.8.1-3.8.3-5.2 1.6s-1.6 3-1.7 4.8c-.1 2.5-.1 5.1-.1 7.6v7.9c0 .4-.3.7-.7.7h-5.7z" fill="#474d57"/><path d="m30.8 123.7c-.4 0-.8.3-.8.8v24.8c0 1.2.1 2.6-.3 3.8-.6 1.9-2.3 2.6-4.2 2.8-.8.1-1.7.1-2.5.1-.4 0-.8 0-1.1.1-.3 0-.6.3-.6.6v4.1c0 .3.3.6.6.6 2.1 0 4.3.1 6.5-.1 1.7-.2 3.5-.5 5-1.3 2.3-1.2 3.4-3.6 3.7-6.1.2-2 .1-4 .2-5.9 0-2 0-19 0-23.3 0-.4-.3-.8-.8-.8h-5.7z" fill="#474d57"/><path d="m30 118.5v-5.3c0-.4.3-.7.7-.7h5.8c.4 0 .7.3.7.7v5.3c0 .4-.3.7-.7.7h-5.8c-.4-.1-.7-.4-.7-.7z" fill="#474d57"/><path d="m104.8 145.9h.2c1.1-.3 1.9-1 2.1-2.1.2-1 0-2.5-.8-3.2-1-.9-2.5-.8-3.8-.8-1.9 0-3.7 0-5.6 0-5.1 0-13 1-15-5.2-.7-2.2-.6-5 .4-7.2 1-2.1 2.9-3.3 5.1-3.6 1.9-.3 3.9-.2 5.9-.2 2.1 0 4.3-.1 6.4-.1 4.1 0 8.3-.1 12.4-.1.4 0 .6.3.6.6v3.8c0 .4-.3.6-.6.6h-16.4c-1.7 0-3.6-.2-5.3.2-1.1.3-1.9.9-2.2 2.1-.2 1 0 2.3.8 3.1 1 1 2.7.8 4 .8h11.4c1.6 0 3.1.1 4.6.6 2.2.7 3.8 2.3 4.4 4.5.7 2.5.7 5.6-.5 7.9-1.2 2.2-3.4 3-5.8 3.2-2.1.2-4.1.2-6.2.2s-4.3 0-6.4 0c-3.9 0-7.8 0-11.7 0-.4 0-.7-.3-.7-.7v-3.7c0-.4.3-.6.6-.6z" fill="#474d57"/><path d="m60.1 151.3c-4-.2-8.2-.1-11.8-2-2.6-1.3-4.6-3.5-5.6-6.3-2.2-6-.9-14.2 5.1-17.5 3.1-1.7 7-2 10.5-2.1 2.2-.1 4.4 0 6.6.2 1.8.2 3.6.3 5.3.9 2.7.9 5 2.7 6.4 5.1 1.7 2.8 2 6.2 1.8 9.4-.3 4-2.2 7.9-5.7 9.9-3.7 2.3-8.3 2.4-12.6 2.4zm0-5.5c2.4 0 4.9.2 7.2-.8 1.7-.8 3-2.1 3.6-3.9.7-2.2.8-5 .2-7.3-.5-1.7-1.6-3.1-3.2-4-2.1-1.1-4.9-1.3-7.2-1.3-1.4 0-2.8.1-4.2.2-1.2.1-2.4.3-3.5.7-4.1 1.7-4.9 7.3-3.7 11.2.5 1.8 1.6 3.2 3.3 4.1 2.3 1.3 4.8 1.1 7.5 1.1z" fill="#474d57"/><path d="m176.9 151.3c-4-.2-8.2-.1-11.8-2-2.6-1.3-4.6-3.5-5.6-6.3-2.2-6-.9-14.2 5.1-17.5 3.1-1.7 7-2 10.5-2.1 2.2-.1 4.4 0 6.6.2 1.8.2 3.6.3 5.3.9 2.7.9 5 2.7 6.4 5.1 1.7 2.8 2 6.2 1.8 9.4-.3 4-2.2 7.9-5.7 9.9-3.8 2.3-8.3 2.4-12.6 2.4zm-.1-5.5c2.4 0 4.9.2 7.2-.8 1.7-.8 3-2.1 3.6-3.9.7-2.2.8-5 .2-7.3-.5-1.7-1.6-3.1-3.2-4-2.1-1.1-4.9-1.3-7.2-1.3-1.4 0-2.8.1-4.2.2-1.2.1-2.4.3-3.5.7-4.1 1.7-4.9 7.3-3.7 11.2.5 1.8 1.6 3.2 3.3 4.1 2.3 1.3 4.9 1.1 7.5 1.1z" fill="#474d57"/><path d="m136.5 151.3c-4-.2-8.2-.1-11.8-2-2.6-1.3-4.6-3.5-5.6-6.3-2.2-6-.9-14.2 5.1-17.5 3.1-1.7 7-2 10.5-2.1 2.2-.1 4.4 0 6.6.2 1.8.2 3.6.3 5.3.9 2.7.9 5 2.7 6.4 5.1 1.7 2.8 2 6.2 1.8 9.4-.3 4-2.2 7.9-5.7 9.9-3.7 2.3-8.3 2.4-12.6 2.4zm0-5.5c2.4 0 4.9.2 7.2-.8 1.7-.8 3-2.1 3.6-3.9.7-2.2.8-5 .2-7.3-.5-1.7-1.6-3.1-3.2-4-2.1-1.1-4.9-1.3-7.2-1.3-1.4 0-2.8.1-4.2.2-1.2.1-2.4.3-3.5.7-4.1 1.7-4.9 7.3-3.7 11.2.5 1.8 1.6 3.2 3.3 4.1 2.3 1.3 4.8 1.1 7.5 1.1z" fill="#474d57"/><g fill="#eda97b"><path d="m128.7 103.4c-.3 0-.6-.1-.9-.1.3 0 .6.1.9.1z"/><path d="m131.1 103.7c-.5 0-1-.1-1.4-.1.4 0 .9 0 1.4.1z"/><path d="m133 103.8c-.5 0-1 0-1.5-.1.5 0 1 .1 1.5.1z"/><path d="m103.4 89.3c-1.6-2.1-2.9-4.3-4-6.4 0 0 1.2 2.8 4 6.4z"/><path d="m135 103.8c-.7 0-1.3 0-2 0z"/><path d="m131.6 103.7c-.2 0-.3 0-.5 0z"/><path d="m127.1 90 1.1.3c1.3.3 2.7.5 4.1.6 1 .1 1.9.1 2.9.1h1.5c.1 0 .3-.1.3-.2.3-.3.6-.6.9-1 0 0 .1-.1.1-.1 6.6-7.8 10.2-18 10.2-28.7v-31.3c0-.8.7-1.5 1.5-1.5h18.1c.8 0 1.5.7 1.5 1.5v31.7c0 10.4-4.3 20.2-11.8 26.8-2.2 2-4.6 3.6-7.2 4.8-3.4 1.7-7.1 2.7-11 3.2-.7.1-1.4.1-2.2.2-.7 0-1.4 0-2.1 0-.4 0-.8 0-1.2 0-.6 0-1.3 0-1.9-.1-6.1-.5-11.7-2.8-11.7-2.8-2.3-1-4.3-2.3-6.1-3.7-3.3-2.7-5.8-5.9-7.6-9.2-.9-1.7-1.6-3.4-2.2-5-2.4-6.7-2.6-12.6-2.6-13.1v-2.2c0-.8-.7-1.5-1.5-1.5h-33c-.8 0-1.5.7-1.5 1.5v2.2c0 8.3 3.3 21.3 12.4 30.4 7.3 7.3 16.9 11 28.4 11h.2c1.3 0 2.6-.1 3.9-.2.3 0 .4-.5.1-.6-3.1-1.8-5.6-3.8-7.6-5.7-.3-.3-.6-.6-.9-.9-.2-.2-.4-.3-.6-.3-7.3-.9-13.4-3.7-18.2-8.5-5.8-5.8-8.7-13.3-9.8-19.7-.2-.9.6-1.7 1.5-1.7h18c.7 0 1.4.5 1.5 1.3.4 2.8 1.1 6.4 2.5 10.4.6 1.6 1.3 3.3 2.1 5 1 2.1 2.3 4.3 4 6.4 4.1 5.2 11.7 12.1 24.4 14 .3 0 .6.1.9.1s.6.1 1 .1c.5.1.9.1 1.4.1h.5c.5 0 1 .1 1.5.1h2 .3 1.8c1.1 0 2.3-.1 3.4-.3 1.2-.1 2.4-.3 3.6-.6 6.8-1.4 13-4.5 18.4-9.2 9.1-8 14.3-19.8 14.3-32.4v-39.1c0-.8-.7-1.5-1.5-1.5h-33c-.8 0-1.5.7-1.5 1.5v38.8c0 8.9-3 17.4-8.5 23.9-.3.3-.6.7-.9 1-1.3 1.4-2.7 2.7-4.1 3.8l-.2.1c.1.1 0 .1.1.2z"/><path d="m129.6 103.5c-.3 0-.6-.1-1-.1.4.1.7.1 1 .1z"/><path d="m132.2 64.6-7.4 7.4c-1.2 1.2-3.2 1.2-4.4 0l-7.4-7.4c-1.2-1.2-1.2-3.2 0-4.4l7.4-7.4c1.2-1.2 3.2-1.2 4.4 0l7.4 7.4c1.2 1.2 1.2 3.2 0 4.4z"/></g></svg>