<?xml version="1.0" encoding="utf-8"?>
<!-- Generator: Adobe Illustrator 18.1.1, SVG Export Plug-In . SVG Version: 6.00 Build 0)  -->
<svg version="1.1" id="Layer_1" xmlns="http://www.w3.org/2000/svg" xmlns:xlink="http://www.w3.org/1999/xlink" x="0px" y="0px"
	 viewBox="0 0 242.6 182.4" enable-background="new 0 0 242.6 182.4" xml:space="preserve">
<g>
	<g>
		<g>
			<g>
				<g>
					<path fill="#FFFEF9" d="M201.3,150.9c-0.4,0-0.7-0.3-0.7-0.7c0-0.1,0-0.3,0-0.4c0-1,0-1.9,0-2.9c0-3.8,0-7.6,0-11.4
						c0.1-2.7,0.3-5.4,1.9-7.7c1.7-2.4,4.4-3.6,7.2-4.1c2-0.4,4-0.3,6-0.3c2,0,3.9,0,5.9,0c0.4,0,0.7,0.3,0.7,0.7v3.6
						c0,0.4-0.3,0.7-0.7,0.7c-2.3,0-4.6,0-6.9,0c-1.8,0.1-3.8,0.3-5.2,1.6c-1.4,1.3-1.6,3-1.7,4.8c-0.1,2.5-0.1,5.1-0.1,7.6
						c0,2.6,0,5.3,0,7.9c0,0.4-0.3,0.7-0.7,0.7H201.3z"/>
				</g>
				<g>
					<path fill="#FFFEF9" d="M31.8,123.7c-0.4,0-0.8,0.3-0.8,0.8c0,4.3,0,23.3,0,24.8c0,1.2,0.1,2.6-0.3,3.8
						c-0.6,1.9-2.3,2.6-4.2,2.8c-0.8,0.1-1.7,0.1-2.5,0.1c-0.4,0-0.8,0-1.1,0.1l0,0c-0.3,0-0.6,0.3-0.6,0.6l0,4.1
						c0,0.3,0.3,0.6,0.6,0.6c2.1,0,4.3,0.1,6.5-0.1c1.7-0.2,3.5-0.5,5-1.3c2.3-1.2,3.4-3.6,3.7-6.1c0.2-2,0.1-4,0.2-5.9
						c0-2,0-19,0-23.3c0-0.4-0.3-0.8-0.8-0.8H31.8z"/>
				</g>
				<g>
					<path fill="#FFFEF9" d="M31,118.5v-5.3c0-0.4,0.3-0.7,0.7-0.7h5.8c0.4,0,0.7,0.3,0.7,0.7v5.3c0,0.4-0.3,0.7-0.7,0.7h-5.8
						C31.3,119.1,31,118.8,31,118.5z"/>
				</g>
				<g>
					<path fill="#FFFEF9" d="M105.8,145.9c0.1,0,0.1,0,0.2,0c1.1-0.3,1.9-1,2.1-2.1c0.2-1,0-2.5-0.8-3.2c-1-0.9-2.5-0.8-3.8-0.8
						c-1.9,0-3.7,0-5.6,0c-5.1,0-13,1-15-5.2c-0.7-2.2-0.6-5,0.4-7.2c1-2.1,2.9-3.3,5.1-3.6c1.9-0.3,3.9-0.2,5.9-0.2
						c2.1,0,4.3-0.1,6.4-0.1c4.1,0,8.3-0.1,12.4-0.1c0.4,0,0.6,0.3,0.6,0.6v3.8c0,0.4-0.3,0.6-0.6,0.6l-16.4,0
						c-1.7,0-3.6-0.2-5.3,0.2c-1.1,0.3-1.9,0.9-2.2,2.1c-0.2,1,0,2.3,0.8,3.1c1,1,2.7,0.8,4,0.8l11.4,0c1.6,0,3.1,0.1,4.6,0.6
						c2.2,0.7,3.8,2.3,4.4,4.5c0.7,2.5,0.7,5.6-0.5,7.9c-1.2,2.2-3.4,3-5.8,3.2c-2.1,0.2-4.1,0.2-6.2,0.2c-2.1,0-4.3,0-6.4,0
						c-3.9,0-7.8,0-11.7,0c-0.4,0-0.7-0.3-0.7-0.7v-3.7c0-0.4,0.3-0.6,0.6-0.6L105.8,145.9z"/>
				</g>
				<g>
					<path fill="#FFFEF9" d="M61.1,151.3c-4-0.2-8.2-0.1-11.8-2c-2.6-1.3-4.6-3.5-5.6-6.3c-2.2-6-0.9-14.2,5.1-17.5
						c3.1-1.7,7-2,10.5-2.1c2.2-0.1,4.4,0,6.6,0.2c1.8,0.2,3.6,0.3,5.3,0.9c2.7,0.9,5,2.7,6.4,5.1c1.7,2.8,2,6.2,1.8,9.4
						c-0.3,4-2.2,7.9-5.7,9.9C70,151.2,65.4,151.3,61.1,151.3z M61.1,145.8C61.1,145.8,61.1,145.8,61.1,145.8c2.4,0,4.9,0.2,7.2-0.8
						c1.7-0.8,3-2.1,3.6-3.9c0.7-2.2,0.8-5,0.2-7.3c-0.5-1.7-1.6-3.1-3.2-4c-2.1-1.1-4.9-1.3-7.2-1.3c-1.4,0-2.8,0.1-4.2,0.2
						c-1.2,0.1-2.4,0.3-3.5,0.7c-4.1,1.7-4.9,7.3-3.7,11.2c0.5,1.8,1.6,3.2,3.3,4.1C55.9,146,58.4,145.8,61.1,145.8z"/>
				</g>
				<g>
					<path fill="#FFFEF9" d="M177.9,151.3c-4-0.2-8.2-0.1-11.8-2c-2.6-1.3-4.6-3.5-5.6-6.3c-2.2-6-0.9-14.2,5.1-17.5
						c3.1-1.7,7-2,10.5-2.1c2.2-0.1,4.4,0,6.6,0.2c1.8,0.2,3.6,0.3,5.3,0.9c2.7,0.9,5,2.7,6.4,5.1c1.7,2.8,2,6.2,1.8,9.4
						c-0.3,4-2.2,7.9-5.7,9.9C186.7,151.2,182.2,151.3,177.9,151.3z M177.8,145.8C177.8,145.8,177.8,145.8,177.8,145.8
						c2.4,0,4.9,0.2,7.2-0.8c1.7-0.8,3-2.1,3.6-3.9c0.7-2.2,0.8-5,0.2-7.3c-0.5-1.7-1.6-3.1-3.2-4c-2.1-1.1-4.9-1.3-7.2-1.3
						c-1.4,0-2.8,0.1-4.2,0.2c-1.2,0.1-2.4,0.3-3.5,0.7c-4.1,1.7-4.9,7.3-3.7,11.2c0.5,1.8,1.6,3.2,3.3,4.1
						C172.6,146,175.2,145.8,177.8,145.8z"/>
				</g>
				<g>
					<path fill="#FFFEF9" d="M137.5,151.3c-4-0.2-8.2-0.1-11.8-2c-2.6-1.3-4.6-3.5-5.6-6.3c-2.2-6-0.9-14.2,5.1-17.5
						c3.1-1.7,7-2,10.5-2.1c2.2-0.1,4.4,0,6.6,0.2c1.8,0.2,3.6,0.3,5.3,0.9c2.7,0.9,5,2.7,6.4,5.1c1.7,2.8,2,6.2,1.8,9.4
						c-0.3,4-2.2,7.9-5.7,9.9C146.4,151.2,141.8,151.3,137.5,151.3z M137.5,145.8C137.5,145.8,137.5,145.8,137.5,145.8
						c2.4,0,4.9,0.2,7.2-0.8c1.7-0.8,3-2.1,3.6-3.9c0.7-2.2,0.8-5,0.2-7.3c-0.5-1.7-1.6-3.1-3.2-4c-2.1-1.1-4.9-1.3-7.2-1.3
						c-1.4,0-2.8,0.1-4.2,0.2c-1.2,0.1-2.4,0.3-3.5,0.7c-4.1,1.7-4.9,7.3-3.7,11.2c0.5,1.8,1.6,3.2,3.3,4.1
						C132.3,146,134.8,145.8,137.5,145.8z"/>
				</g>
			</g>
			<g>
				<g>
					<path fill="#FFFEF9" d="M129.7,103.4c-0.3,0-0.6-0.1-0.9-0.1C129.1,103.3,129.4,103.4,129.7,103.4z"/>
					<path fill="#FFFEF9" d="M132.1,103.7c-0.5,0-1-0.1-1.4-0.1C131.1,103.6,131.6,103.6,132.1,103.7z"/>
					<path fill="#FFFEF9" d="M134,103.8c-0.5,0-1,0-1.5-0.1C133,103.7,133.5,103.8,134,103.8z"/>
					<path fill="#FFFEF9" d="M136,103.8C136,103.8,136,103.8,136,103.8C136,103.8,136,103.8,136,103.8
						C136,103.8,136,103.8,136,103.8z"/>
					<path fill="#FFFEF9" d="M104.4,89.3c-1.6-2.1-2.9-4.3-4-6.4C100.4,82.9,101.6,85.7,104.4,89.3z"/>
					<path fill="#FFFEF9" d="M136,103.8c-0.7,0-1.3,0-2,0C134.7,103.8,135.3,103.8,136,103.8z"/>
					<path fill="#FFFEF9" d="M132.6,103.7c-0.2,0-0.3,0-0.5,0C132.2,103.7,132.4,103.7,132.6,103.7z"/>
					<path fill="#FFFEF9" d="M128.1,90l1.1,0.3c1.3,0.3,2.7,0.5,4.1,0.6c1,0.1,1.9,0.1,2.9,0.1c0.5,0,1,0,1.5,0
						c0.1,0,0.3-0.1,0.3-0.2c0.3-0.3,0.6-0.6,0.9-1c0,0,0.1-0.1,0.1-0.1c6.6-7.8,10.2-18,10.2-28.7V29.7c0-0.8,0.7-1.5,1.5-1.5h18.1
						c0.8,0,1.5,0.7,1.5,1.5v31.7c0,10.4-4.3,20.2-11.8,26.8c-2.2,2-4.6,3.6-7.2,4.8c-3.4,1.7-7.1,2.7-11,3.2
						c-0.7,0.1-1.4,0.1-2.2,0.2c0,0,0,0,0,0c-0.7,0-1.4,0-2.1,0c-0.4,0-0.8,0-1.2,0c-0.6,0-1.3,0-1.9-0.1
						c-6.1-0.5-11.7-2.8-11.7-2.8c-2.3-1-4.3-2.3-6.1-3.7c-3.3-2.7-5.8-5.9-7.6-9.2c-0.9-1.7-1.6-3.4-2.2-5
						c-2.4-6.7-2.6-12.6-2.6-13.1l0-2.2c0-0.8-0.7-1.5-1.5-1.5h-33c-0.8,0-1.5,0.7-1.5,1.5v2.2c0,8.3,3.3,21.3,12.4,30.4
						c7.3,7.3,16.9,11,28.4,11h0.2c1.3,0,2.6-0.1,3.9-0.2c0.3,0,0.4-0.5,0.1-0.6c-3.1-1.8-5.6-3.8-7.6-5.7c-0.3-0.3-0.6-0.6-0.9-0.9
						c-0.2-0.2-0.4-0.3-0.6-0.3c-7.3-0.9-13.4-3.7-18.2-8.5c-5.8-5.8-8.7-13.3-9.8-19.7c-0.2-0.9,0.6-1.7,1.5-1.7l18,0
						c0.7,0,1.4,0.5,1.5,1.3c0.4,2.8,1.1,6.4,2.5,10.4c0.6,1.6,1.3,3.3,2.1,5c1,2.1,2.3,4.3,4,6.4c4.1,5.2,11.7,12.1,24.4,14
						c0.3,0,0.6,0.1,0.9,0.1c0.3,0,0.6,0.1,1,0.1c0.5,0.1,0.9,0.1,1.4,0.1c0.2,0,0.3,0,0.5,0c0.5,0,1,0.1,1.5,0.1c0.6,0,1.3,0,2,0
						c0,0,0,0,0,0c0.1,0,0.2,0,0.3,0c0.6,0,1.2,0,1.8,0c1.1,0,2.3-0.1,3.4-0.3c1.2-0.1,2.4-0.3,3.6-0.6c6.8-1.4,13-4.5,18.4-9.2
						c9.1-8,14.3-19.8,14.3-32.4V22.2c0-0.8-0.7-1.5-1.5-1.5h-33c-0.8,0-1.5,0.7-1.5,1.5V61c0,8.9-3,17.4-8.5,23.9
						c-0.3,0.3-0.6,0.7-0.9,1c-1.3,1.4-2.7,2.7-4.1,3.8l-0.2,0.1C128.1,89.9,128,89.9,128.1,90z"/>
					<path fill="#FFFEF9" d="M130.6,103.5c-0.3,0-0.6-0.1-1-0.1C130,103.5,130.3,103.5,130.6,103.5z"/>
				</g>
				<path fill="#FFFEF9" d="M133.2,64.6l-7.4,7.4c-1.2,1.2-3.2,1.2-4.4,0l-7.4-7.4c-1.2-1.2-1.2-3.2,0-4.4l7.4-7.4
					c1.2-1.2,3.2-1.2,4.4,0l7.4,7.4C134.4,61.4,134.4,63.4,133.2,64.6z"/>
			</g>
		</g>
	</g>
	<rect x="1" fill="none" width="242.6" height="182.4"/>
</g>
</svg>
