<?xml version="1.0" encoding="utf-8"?>
<!-- Generator: Adobe Illustrator 21.1.0, SVG Export Plug-In . SVG Version: 6.00 Build 0)  -->
<svg version="1.1" id="Layer_1" xmlns="http://www.w3.org/2000/svg" xmlns:xlink="http://www.w3.org/1999/xlink" x="0px" y="0px"
	 viewBox="0 0 144 144" style="enable-background:new 0 0 144 144;" xml:space="preserve">
<style type="text/css">
	.st0{fill:#FFFEF9;}
	.st1{fill:#EDA97B;}
	.st2{fill:none;}
</style>
<g>
	<g>
		<path class="st0" d="M115.8,103.1c-0.2,0-0.4-0.2-0.4-0.4c0-0.1,0-0.2,0-0.2c0-0.5,0-1.1,0-1.6c0-2.1,0-4.2,0-6.2
			c0-1.5,0.1-2.9,1-4.2c0.9-1.3,2.4-2,3.9-2.3c1.1-0.2,2.2-0.2,3.3-0.2c1.1,0,2.1,0,3.2,0c0.2,0,0.4,0.2,0.4,0.4v1.9
			c0,0.2-0.2,0.4-0.4,0.4c-1.3,0-2.5,0-3.8,0c-1,0-2.1,0.1-2.8,0.9c-0.7,0.7-0.9,1.6-0.9,2.6c-0.1,1.4-0.1,2.8-0.1,4.2
			c0,1.4,0,2.9,0,4.3c0,0.2-0.2,0.4-0.4,0.4H115.8z"/>
	</g>
	<g>
		<path class="st0" d="M23.2,88.2c-0.2,0-0.4,0.2-0.4,0.4c0,2.4,0,12.7,0,13.5c0,0.7,0,1.4-0.2,2.1c-0.3,1.1-1.3,1.4-2.3,1.5
			c-0.5,0-0.9,0-1.4,0.1c-0.2,0-0.4,0-0.6,0l0,0c-0.2,0-0.3,0.2-0.3,0.3v2.2c0,0.2,0.2,0.3,0.3,0.3c1.2,0,2.4,0.1,3.5-0.1
			c0.9-0.1,1.9-0.3,2.7-0.7c1.3-0.7,1.8-2,2-3.4c0.1-1.1,0.1-2.2,0.1-3.2c0-1.1,0-10.4,0-12.7c0-0.2-0.2-0.4-0.4-0.4H23.2z"/>
	</g>
	<g>
		<path class="st0" d="M22.8,85.8v-2.9c0-0.2,0.2-0.4,0.4-0.4h3.2c0.2,0,0.4,0.2,0.4,0.4v2.9c0,0.2-0.2,0.4-0.4,0.4h-3.2
			C22.9,86.1,22.8,86,22.8,85.8z"/>
	</g>
	<g>
		<path class="st0" d="M63.6,100.4c0,0,0.1,0,0.1,0c0.6-0.1,1-0.5,1.1-1.1c0.1-0.6,0-1.4-0.4-1.8c-0.5-0.5-1.4-0.4-2-0.4
			c-1,0-2,0-3.1,0c-2.8,0-7.1,0.6-8.2-2.8c-0.4-1.2-0.3-2.7,0.2-3.9c0.5-1.1,1.6-1.8,2.8-1.9c1.1-0.1,2.2-0.1,3.2-0.1
			c1.2,0,2.3,0,3.5,0c2.3,0,4.5,0,6.8,0c0.2,0,0.3,0.2,0.3,0.3v2.1c0,0.2-0.2,0.3-0.3,0.3l-9,0c-0.9,0-2-0.1-2.9,0.1
			c-0.6,0.1-1.1,0.5-1.2,1.1c-0.1,0.6,0,1.3,0.4,1.7c0.6,0.5,1.5,0.4,2.2,0.4l6.3,0c0.8,0,1.7,0,2.5,0.3c1.2,0.4,2.1,1.3,2.4,2.5
			c0.4,1.3,0.4,3.1-0.3,4.3c-0.6,1.2-1.9,1.6-3.2,1.8c-1.1,0.1-2.3,0.1-3.4,0.1c-1.2,0-2.3,0-3.5,0c-2.1,0-4.3,0-6.4,0
			c-0.2,0-0.4-0.2-0.4-0.4v-2c0-0.2,0.2-0.3,0.3-0.3L63.6,100.4z"/>
	</g>
	<g>
		<path class="st0" d="M39.2,103.3c-2.2-0.1-4.5-0.1-6.5-1.1c-1.4-0.7-2.5-1.9-3.1-3.5c-1.2-3.3-0.5-7.8,2.8-9.6
			c1.7-0.9,3.8-1.1,5.7-1.2c1.2,0,2.4,0,3.6,0.1c1,0.1,2,0.2,2.9,0.5c1.5,0.5,2.7,1.5,3.5,2.8c0.9,1.5,1.1,3.4,1,5.1
			c-0.2,2.2-1.2,4.3-3.1,5.4C44,103.3,41.5,103.3,39.2,103.3z M39.2,100.3C39.2,100.4,39.2,100.3,39.2,100.3c1.3,0,2.7,0.1,3.9-0.5
			c0.9-0.4,1.7-1.2,2-2.1c0.4-1.2,0.4-2.8,0.1-4c-0.3-0.9-0.9-1.7-1.7-2.2c-1.2-0.6-2.7-0.7-4-0.7c-0.8,0-1.5,0-2.3,0.1
			c-0.6,0.1-1.3,0.2-1.9,0.4c-2.3,1-2.7,4-2,6.1c0.3,1,0.9,1.8,1.8,2.2C36.3,100.4,37.7,100.3,39.2,100.3z"/>
	</g>
	<g>
		<path class="st0" d="M103,103.3c-2.2-0.1-4.5-0.1-6.5-1.1c-1.4-0.7-2.5-1.9-3.1-3.5c-1.2-3.3-0.5-7.8,2.8-9.6
			c1.7-0.9,3.8-1.1,5.7-1.2c1.2,0,2.4,0,3.6,0.1c1,0.1,2,0.2,2.9,0.5c1.5,0.5,2.7,1.5,3.5,2.8c0.9,1.5,1.1,3.4,1,5.1
			c-0.2,2.2-1.2,4.3-3.1,5.4C107.8,103.3,105.3,103.3,103,103.3z M103,100.3C103,100.4,103,100.3,103,100.3c1.3,0,2.7,0.1,3.9-0.5
			c0.9-0.4,1.7-1.2,2-2.1c0.4-1.2,0.4-2.8,0.1-4c-0.3-0.9-0.9-1.7-1.7-2.2c-1.2-0.6-2.7-0.7-4-0.7c-0.8,0-1.5,0-2.3,0.1
			c-0.6,0.1-1.3,0.2-1.9,0.4c-2.3,1-2.7,4-2,6.1c0.3,1,0.9,1.8,1.8,2.2C100.1,100.4,101.5,100.3,103,100.3z"/>
	</g>
	<g>
		<path class="st0" d="M81,103.3c-2.2-0.1-4.5-0.1-6.5-1.1c-1.4-0.7-2.5-1.9-3.1-3.5c-1.2-3.3-0.5-7.8,2.8-9.6
			c1.7-0.9,3.8-1.1,5.7-1.2c1.2,0,2.4,0,3.6,0.1c1,0.1,2,0.2,2.9,0.5c1.5,0.5,2.7,1.5,3.5,2.8c0.9,1.5,1.1,3.4,1,5.1
			c-0.2,2.2-1.2,4.3-3.1,5.4C85.8,103.3,83.3,103.3,81,103.3z M80.9,100.3C80.9,100.4,80.9,100.3,80.9,100.3c1.3,0,2.7,0.1,3.9-0.5
			c0.9-0.4,1.7-1.2,2-2.1c0.4-1.2,0.4-2.8,0.1-4c-0.3-0.9-0.9-1.7-1.7-2.2c-1.2-0.6-2.7-0.7-4-0.7c-0.8,0-1.5,0-2.3,0.1
			c-0.6,0.1-1.3,0.2-1.9,0.4c-2.3,1-2.7,4-2,6.1c0.3,1,0.9,1.8,1.8,2.2C78.1,100.4,79.5,100.3,80.9,100.3z"/>
	</g>
</g>
<g>
	<g>
		<path class="st1" d="M76.7,76.6c-0.2,0-0.3,0-0.5-0.1C76.3,76.5,76.5,76.5,76.7,76.6z"/>
		<path class="st1" d="M78,76.7c-0.3,0-0.5,0-0.8-0.1C77.4,76.7,77.7,76.7,78,76.7z"/>
		<path class="st1" d="M79,76.8c-0.3,0-0.5,0-0.8,0C78.5,76.7,78.8,76.8,79,76.8z"/>
		<polygon class="st1" points="80.1,76.8 80.1,76.8 80.1,76.8 		"/>
		<path class="st1" d="M62.8,68.9c-0.9-1.2-1.6-2.4-2.2-3.5C60.7,65.3,61.3,66.9,62.8,68.9z"/>
		<path class="st1" d="M80.1,76.8c-0.4,0-0.7,0-1.1,0C79.4,76.8,79.7,76.8,80.1,76.8z"/>
		<path class="st1" d="M78.2,76.7c-0.1,0-0.2,0-0.3,0C78.1,76.7,78.1,76.7,78.2,76.7z"/>
		<path class="st1" d="M75.8,69.2l0.6,0.1c0.7,0.2,1.5,0.3,2.2,0.3c0.5,0,1.1,0.1,1.6,0.1c0.3,0,0.6,0,0.9,0
			c0.2-0.2,0.4-0.4,0.5-0.6c0,0,0,0,0.1-0.1c3.6-4.3,5.6-9.8,5.6-15.7V35.8c0-0.2,0.2-0.4,0.4-0.4h10.8c0.2,0,0.4,0.2,0.4,0.4v17.8
			c0,5.7-2.4,11-6.5,14.6c-1.2,1.1-2.5,2-3.9,2.6c-1.9,0.9-3.9,1.5-6,1.7c-0.4,0-0.8,0.1-1.2,0.1c0,0,0,0,0,0c-0.4,0-0.7,0-1.1,0
			c-0.2,0-0.5,0-0.7,0c-0.3,0-0.7,0-1-0.1c-3.3-0.3-6.4-1.5-6.4-1.5c-1.3-0.6-2.4-1.2-3.3-2c-1.8-1.5-3.2-3.2-4.1-5
			c-0.5-0.9-0.9-1.8-1.2-2.7C62,57.7,62,54.5,62,54.2l0-1.7c0-0.2-0.2-0.4-0.4-0.4H42.7c-0.2,0-0.4,0.2-0.4,0.4v1.7
			c0,4.5,1.8,11.6,6.8,16.6c4,4,9.2,6,15.5,6h0.1c0.9,0,1.8-0.1,2.7-0.2c-1.9-1.1-3.5-2.3-4.7-3.4c-0.2-0.2-0.4-0.4-0.6-0.6
			c0,0-0.1,0-0.1,0c-4.1-0.5-7.4-2-10.1-4.7c-3.3-3.3-4.9-7.7-5.4-11.3c0-0.2,0.1-0.4,0.4-0.4l10.8,0c0.2,0,0.3,0.1,0.4,0.3
			c0.2,1.5,0.6,3.7,1.4,6.1c0.3,0.9,0.7,1.8,1.2,2.7c0.6,1.1,1.3,2.3,2.2,3.5c2.2,2.9,6.4,6.6,13.3,7.7c0.2,0,0.3,0,0.5,0.1
			c0.2,0,0.3,0,0.5,0.1c0.3,0,0.5,0.1,0.8,0.1c0.1,0,0.2,0,0.3,0c0.3,0,0.5,0,0.8,0c0.4,0,0.7,0,1.1,0c0,0,0,0,0,0
			c0.1,0,0.1,0,0.2,0c0.3,0,0.7,0,1,0c0.6,0,1.2-0.1,1.8-0.1c0.7-0.1,1.3-0.2,1.9-0.3c3.7-0.8,7.1-2.4,10-5c5-4.4,7.8-10.8,7.8-17.7
			V31.8c0-0.2-0.2-0.4-0.4-0.4H83.6c-0.2,0-0.4,0.2-0.4,0.4v21.6c0,4.9-1.6,9.5-4.6,13c-0.2,0.2-0.3,0.4-0.5,0.5
			c-0.7,0.8-1.5,1.5-2.2,2.1L75.8,69.2C75.8,69.2,75.8,69.2,75.8,69.2z"/>
		<path class="st1" d="M77.2,76.6c-0.2,0-0.4,0-0.5-0.1C76.8,76.6,77,76.6,77.2,76.6z"/>
	</g>
</g>
<path class="st1" d="M78.8,54.4l-5,5c-0.2,0.2-0.7,0.2-0.9,0l-5-5c-0.2-0.2-0.2-0.7,0-0.9l5-5c0.2-0.2,0.7-0.2,0.9,0l5,5
	C79,53.8,79,54.2,78.8,54.4z"/>
<rect x="0.6" y="1" class="st2" width="144" height="144"/>
</svg>
