<svg enable-background="new 0 0 694.1 169.8" viewBox="0 0 694.1 169.8" xmlns="http://www.w3.org/2000/svg"><g fill="#474d57"><path d="m621.2 133.3c-1.4 0-2.4-1-2.4-2.4 0-.3 0-1 0-1.4 0-3.5 0-6.6 0-10.1 0-13.2 0-26.4 0-39.6.3-9.4 1-18.7 6.6-26.7 5.9-8.3 15.3-12.5 25-14.2 6.9-1.4 13.9-1 20.8-1s13.5 0 20.5 0c1.4 0 2.4 1 2.4 2.4v12.5c0 1.4-1 2.4-2.4 2.4-8 0-16 0-23.9 0-6.2.3-13.2 1-18 5.6-4.9 4.5-5.6 10.4-5.9 16.7-.3 8.7-.3 17.7-.3 26.4v27.4c0 1.4-1 2.4-2.4 2.4h-19.8v-.4z"/><path d="m33 38.9c-1.4 0-2.8 1-2.8 2.8v86.1c0 4.2.3 9-1 13.2-2.1 6.6-8 9-14.6 9.7-2.8.3-5.9.3-8.7.3-1.4 0-2.8 0-3.8.3-1 0-2.1 1-2.1 2.1v14.2c0 1 1 2.1 2.1 2.1 7.3 0 14.9.3 22.6-.3 5.9-.7 12.1-1.7 17.4-4.5 8-4.2 11.8-12.5 12.8-21.2.7-6.9.3-13.9.7-20.5 0-6.9 0-65.9 0-80.9 0-1.4-1-2.8-2.8-2.8h-19.8z"/><path d="m30.5 20.8v-18.4c0-1.4 1.1-2.4 2.5-2.4h20.1c1.4 0 2.4 1 2.4 2.4v18.4c0 1.4-1 2.4-2.4 2.4h-20.1c-1.4-.3-2.5-1.3-2.5-2.4z"/><path d="m289.8 115.9h.7c3.8-1 6.6-3.5 7.3-7.3.7-3.5 0-8.7-2.8-11.1-3.5-3.1-8.7-2.8-13.2-2.8-6.6 0-12.8 0-19.4 0-17.7 0-45.1 3.5-52.1-18-2.4-7.6-2.1-17.4 1.4-25 3.5-7.3 10.1-11.5 17.7-12.5 6.6-1 13.5-.7 20.5-.7 7.3 0 14.9-.3 22.2-.3 14.2 0 28.8-.3 43-.3 1.4 0 2.1 1 2.1 2.1v13.2c0 1.4-1 2.1-2.1 2.1h-56.9c-5.9 0-12.5-.7-18.4.7-3.8 1-6.6 3.1-7.6 7.3-.7 3.5 0 8 2.8 10.8 3.5 3.5 9.4 2.8 13.9 2.8h39.6c5.6 0 10.8.3 16 2.1 7.6 2.4 13.2 8 15.3 15.6 2.4 8.7 2.4 19.4-1.7 27.4-4.2 7.6-11.8 10.4-20.1 11.1-7.3.7-14.2.7-21.5.7s-14.9 0-22.2 0c-13.5 0-27.1 0-40.6 0-1.4 0-2.4-1-2.4-2.4v-12.5c0-1.4 1-2.1 2.1-2.1z"/><path d="m135 134.6c-13.9-.7-28.5-.3-40.9-6.9-9-4.5-16-12.1-19.4-21.9-7.7-20.8-3.2-49.2 17.6-60.7 10.8-5.9 24.3-6.9 36.4-7.3 7.6-.3 15.3 0 22.9.7 6.2.7 12.5 1 18.4 3.1 9.4 3.1 17.4 9.4 22.2 17.7 5.9 9.7 6.9 21.5 6.2 32.6-1 13.9-7.6 27.4-19.8 34.4-13.1 8-29 8.3-43.6 8.3zm-.4-19c8.3 0 17 .7 25-2.8 5.9-2.8 10.4-7.3 12.5-13.5 2.4-7.6 2.8-17.4.7-25.3-1.7-5.9-5.6-10.8-11.1-13.9-7.3-3.8-17-4.5-25-4.5-4.9 0-9.7.3-14.6.7-4.2.3-8.3 1-12.1 2.4-14.2 5.8-17 25.3-12.8 38.8 1.7 6.2 5.6 11.1 11.5 14.2 7.9 4.6 16.9 3.9 25.9 3.9z"/><path d="m540 134.6c-13.9-.7-28.5-.3-40.9-6.9-9-4.5-16-12.1-19.4-21.9-7.6-20.8-3.1-49.3 17.7-60.7 10.8-5.9 24.3-6.9 36.4-7.3 7.6-.3 15.3 0 22.9.7 6.2.7 12.5 1 18.4 3.1 9.4 3.1 17.4 9.4 22.2 17.7 5.9 9.7 6.9 21.5 6.2 32.6-1 13.9-7.6 27.4-19.8 34.4-12.8 8-28.8 8.3-43.7 8.3zm-.4-19c8.3 0 17 .7 25-2.8 5.9-2.8 10.4-7.3 12.5-13.5 2.4-7.6 2.8-17.4.7-25.3-1.7-5.9-5.6-10.8-11.1-13.9-7.3-3.8-17-4.5-25-4.5-4.9 0-9.7.3-14.6.7-4.2.3-8.3 1-12.1 2.4-14.2 5.9-17 25.3-12.8 38.9 1.7 6.2 5.6 11.1 11.5 14.2 7.9 4.5 16.9 3.8 25.9 3.8z"/><path d="m400.1 134.6c-13.9-.7-28.5-.3-40.9-6.9-9-4.5-16-12.1-19.4-21.9-7.6-20.8-3.1-49.3 17.7-60.7 10.8-5.9 24.3-6.9 36.4-7.3 7.6-.3 15.3 0 22.9.7 6.2.7 12.5 1 18.4 3.1 9.4 3.1 17.4 9.4 22.2 17.7 5.9 9.7 6.9 21.5 6.2 32.6-1 13.9-7.6 27.4-19.8 34.4-13.1 8-29.1 8.3-43.7 8.3zm-.3-19c8.3 0 17 .7 25-2.8 5.9-2.8 10.4-7.3 12.5-13.5 2.4-7.6 2.8-17.4.7-25.3-1.7-5.9-5.6-10.8-11.1-13.9-7.3-3.8-17-4.5-25-4.5-4.9 0-9.7.3-14.6.7-4.2.3-8.3 1-12.1 2.4-14.2 5.9-17 25.3-12.8 38.9 1.7 6.2 5.6 11.1 11.5 14.2 7.8 4.5 16.9 3.8 25.9 3.8z"/></g></svg>