<?xml version="1.0" encoding="utf-8"?>
<!-- Generator: Adobe Illustrator 18.1.1, SVG Export Plug-In . SVG Version: 6.00 Build 0)  -->
<svg version="1.1" id="Ebene_1" xmlns="http://www.w3.org/2000/svg" xmlns:xlink="http://www.w3.org/1999/xlink" x="0px" y="0px"
	 viewBox="0 0 169 159.3" enable-background="new 0 0 169 159.3" xml:space="preserve">
<g>
	<g>
		<g>
			<path fill="#494D53" d="M143.1,140.7c0.2,0.1,0.3,0.2,0.4,0.2c1.6-0.9,3.1-1.9,4.8-2.6c0.9-0.5,1.9-0.8,3-1
				c2.2-0.2,4,1.2,4.7,3.3c0,1.1,0.2,2.1-0.2,3.1c-0.2,0.4-0.3,0.9-0.5,1.4c-1,1.8-2.3,3.3-4.1,4.4c-0.2,0.1-0.3,0.2-0.5,0.4
				c-1.1,1-2.4,1.6-3.7,2.2c-1.2,0.6-2.3,1.1-3.5,1.6c-0.9,0.4-1.8,0.7-2.8,0.9c-1,0.3-2,0.5-2.9,0.8c-1.2,0.4-2.5,0.6-3.8,0.9
				c-0.2,0.1-0.5,0-0.7,0.1c-0.9,0.2-1.9,0.1-2.7,0.5c-0.1,0-0.2,0-0.2,0c-2,0-3.9,0.6-5.8,0.7c-0.2,0-0.3,0-0.5,0
				c-1.4-0.1-2.8,0.1-4.1,0.3c-0.2,0-0.4,0-0.6,0c-1.4,0-2.8,0-4.2,0.1c-1,0.1-2-0.1-3.1-0.1c-1.9,0-3.8-0.3-5.7-0.4
				c-0.5,0-1,0-1.5,0c-0.2,0-0.3,0-0.5,0c-1.7-0.6-3.6-0.4-5.3-1c-0.2,0-0.3,0-0.5-0.1c-2-0.1-3.9-0.8-5.8-1.5
				c-0.9-0.3-1.8-0.7-2.7-1.1c-0.6-0.2-1.1-0.6-1.6-0.9c-0.5-0.3-1-0.6-1.4-1c-0.2-0.3-0.6-0.4-0.9-0.6c-0.2-0.1-0.4-0.3-0.5-0.4
				c0.5-0.9,1-1.2,2.1-1.7c0.4,0.2,0.8,0.4,1.2,0.7c1.2,0.9,2.5,1.5,3.9,2c1.1,0.4,2.2,0.8,3.4,1.1c0.5,0.1,1,0.1,1.4,0.3
				c1.2,0.6,2.7,0.3,3.9,0.9c0.2,0.1,0.5,0,0.7,0c0.4,0,0.7,0,1.1,0.1c1.8,0.5,3.7,0.4,5.6,0.5c0.6,0,1.2,0,1.8,0.2
				c0.2,0.1,0.6,0,0.8,0c1.3,0,2.7,0.2,4-0.1c1.4,0.3,2.8-0.2,4.3-0.1c0.4,0,0.8,0,1.2,0c0.6,0,1.3-0.1,1.9-0.2
				c1.1-0.1,2.2-0.4,3.3-0.4c1.2,0,2.4-0.2,3.5-0.4c0.6-0.1,1.1-0.2,1.7-0.2c0.2,0,0.4,0,0.6-0.1c0.8-0.4,1.6-0.4,2.4-0.5
				c0.9-0.2,1.8-0.3,2.6-0.6c0.2-0.1,0.4-0.2,0.6-0.2c0.6,0,1.2-0.2,1.8-0.4c1.6-0.6,3.2-1.1,4.8-1.7c0.7-0.3,1.3-0.7,1.9-1
				c0.4-0.2,0.8-0.4,1.2-0.6c0.2-0.1,0.3-0.2,0.5-0.3c1.3-0.9,2.6-1.9,3.7-3.1c0.8-0.9,1.3-1.9,1.5-3c0.1-0.5-0.2-1-0.5-1.5
				c-0.3-0.4-0.8-0.4-1.2-0.3c-0.4,0.1-0.8,0.2-1.2,0.3c-0.9,0.4-1.7,0.8-2.5,1.2c-0.7,0.4-1.3,0.9-2,1.2c-1,0.5-1.9,1-2.9,1.5
				c-0.7,0.3-1.5,0.3-2.2,0.1c-0.6-0.2-1-0.6-1.1-1.2c-0.1-0.4-0.1-0.9-0.1-1.3c0-0.4-0.2-0.8,0.3-1.1c0.3-0.9,0.6-1.9,0.8-2.8
				c0-0.1-0.1-0.1-0.1-0.3c-0.8,0.3-1.6,0.6-2.4,1.1c-0.4,0.3-0.8,0.6-1.2,0.8c-0.9,0.5-1.8,1.1-2.8,1.5c-1.4,0.6-2.7,1.3-4.2,1.7
				c-2,0.5-4.1,0.7-6.2,0.7c-1.9,0-3.7,0-5.6,0c-1,0-2,0-2.9-0.2c-1.4-0.2-2.7-0.3-4.1-0.5c-1-0.1-2-0.2-3-0.4
				c-0.4-0.1-0.8-0.2-1.2-0.4c-0.2-0.1-0.3-0.2-0.5-0.2c-1.1,0.1-2.1-0.4-3.1-0.6c-1-0.3-1.9-0.6-2.9-0.9c-1.5-0.5-3-1.1-4.4-1.8
				c-0.8-0.4-1.5-0.8-2.2-1.3c-0.7-0.5-1.4-1-2-1.6c-0.7-0.6-1.2-1.3-1.7-2c-0.6-0.9-1.1-1.9-1.5-2.9c-0.4-1.1-1-2.1-1.4-3.2
				c-0.7-1.7-1.6-3.2-2.5-4.7c-0.8-1.3-1.8-2.4-3-3.4c-0.8-0.7-1.7-1.4-2.6-2.1c-1.3-0.9-2-2.3-2.1-4c0-0.3-0.1-0.6,0-0.9
				c0.1-1.7,0.3-3.5,0.7-5.2c0.2-0.9,0.6-1.7,0.7-2.6c0-0.2,0.2-0.4,0.2-0.6c0.2-0.4,0.4-0.8,0.3-1.3c0-0.1,0-0.3,0.1-0.5
				c0.4-0.9,0.5-2,1-2.9c0.1-0.2,0.1-0.5,0.2-0.7c0.2-0.7,0.3-1.4,0.6-2.1c0.3-0.6,0.2-1.4,0.6-1.9c0.4-1.3,0.7-2.7,1.1-4
				c0.1-0.4,0.3-0.9,0.4-1.3c0.1-0.3,0.2-0.5,0.3-0.8c0.1-1.1,0.5-2,0.8-3c0-0.1,0.1-0.1,0.1-0.2c0-1.4,0.6-2.7,0.7-4.1
				c0-0.2,0.1-0.5,0.2-0.7c0.2-0.6,0.3-1.3,0.3-1.9c0-0.8,0.2-1.7,0.3-2.5c0.2-1.7,0.3-3.5,0-5.2c-0.3-1.4-0.5-2.9-0.9-4.3
				c-0.3-1-0.7-2-1.4-2.8c-0.7-0.8-1.2-1.7-1.9-2.5c-0.2-0.2-0.4-0.4-0.6-0.6c-1.3-1-2.7-1.9-4.3-2.5c-0.7-0.2-1.4-0.6-2.1-0.9
				c-0.3-0.1-0.6-0.1-1-0.2c-1.5-0.3-3-0.6-4.4-0.9c-0.7-0.2-1.5,0.1-2.2,0.2c-0.5,0-1.1,0.1-1.6,0.3c-0.4,0.1-0.8,0.3-1.1,0.4
				c-2.1,0.7-3.8,2-5.5,3.3c-0.5,0.4-0.9,0.9-1.3,1.4c-0.1,0.1-0.3,0.3-0.4,0.5c-1.2,1.2-2.2,2.6-3.2,4c-0.7,1.1-1.4,2.3-2.1,3.4
				c-0.6,0.9-1.1,1.9-1.6,2.9c-0.7,0.3-0.5,1.1-0.9,1.6c-0.4,0.4-0.7,1-0.9,1.6c-0.7,1.5-1.5,3-2.2,4.4c-1,1.9-2,3.7-2.9,5.6
				c-0.6,1.2-1.3,2.4-2.1,3.6c-0.1,0.1-0.1,0.3-0.2,0.4c-0.1,0.3-0.2,0.6-0.4,0.9c-0.8,0.9-1.2,1.9-1.8,2.9
				c-0.2,0.3-0.4,0.6-0.7,0.9c-0.4,0.5-0.8,1-1.2,1.5c0,0.1-0.1,0.2-0.1,0.2c-0.7,0.6-1.1,1.4-1.9,2c-0.8,0.6-1.6,1.4-2.5,1.9
				c-0.9,0.5-1.9,1-2.9,1.3c-0.6,0.2-1.2,0.2-1.8,0.2c-1.1,0-2.3-0.1-3.4-0.1c-0.2,0-0.3,0-0.5-0.1c-1.3-0.5-2.7-0.9-3.9-1.5
				c-0.3-0.1-0.5-0.3-0.7-0.5c-0.5-0.5-1.1-1-1.5-1.6c-0.5-0.7-0.9-1.5-1.2-2.2c-0.6-1.1-0.5-2.3-0.6-3.6c-0.1-1.3,0.3-2.6,0.2-3.9
				c0,0,0-0.1,0-0.1c0.7-1.2,0.5-2.5,0.9-3.8c0-0.1,0-0.2,0.1-0.2c0.7-1.1,0.9-2.5,1.8-3.6c0.6-0.8,1.3-1.3,2.3-1.3
				c0.6,0,1.1-0.1,1.7-0.2c0.4-0.1,0.7-0.1,1.1-0.2c2-0.4,3.4-1.4,4.4-3.1c0.2-0.3,0.5-0.7,0.6-1.1c0.3-1.1,0.5-2.1,0.6-3.2
				c0.2-1.2,0.3-2.5,0.5-3.7c0-0.3,0.2-0.5,0.3-0.8c0-0.1,0.2-0.2,0.2-0.3c-0.3-0.8,0.3-1.4,0.4-2.1c0.1-0.7,0.4-1.3,0.5-2
				c0.2-1,0.3-1.9,0.5-2.9c0-0.1-0.1-0.2-0.3-0.3c-0.2,0.3-0.4,0.5-0.5,0.7c-0.5,1.1-0.8,2.2-1.3,3.3c-0.6,1.2-1.4,2.3-2.8,2.8
				c-1.8,0.7-3.7,1.1-5.6,0.9c-0.9-0.1-1.8-0.1-2.7-0.2c-1.5-0.2-2.5,0.6-3.2,1.8c-0.4,0.8-0.9,1.5-1.2,2.4
				c-0.2,0.7-0.5,1.4-0.8,2.1c-0.3,0.7-0.5,1.3-0.8,2c-0.3,1.1-0.8,2.1-1.3,3.1c-0.3,0.7-0.4,1.5-0.8,2.1c-0.4,0.7-0.6,1.4-0.9,2.1
				c-0.3,0.7-0.4,1.4-0.9,2.1c-0.4,0.6-0.6,1.4-1,2.1c-0.9,2-1.9,3.9-2.9,5.9c-0.2,0.5-0.4,0.9-0.5,1.5c-0.1,0.4-0.3,0.8-0.5,1.3
				C3.2,96,3,96.4,3.1,96.9C3.1,97,3,97.3,3,97.5c-0.3,0.9-0.3,1.8,0,2.7c0.1,0.2,0,0.5,0.1,0.7c0.1,0.6,0.4,1.1,0.6,1.7
				c0.6,1.3,1.7,2.1,2.6,3.2c0.5,0.6,1.3,1.2,2,1.5c0.9,0.5,1.6,1.2,2.5,1.7c0.7,0.4,1.4,0.9,2.1,1.4c0.5,0.4,0.9,0.8,1.5,1.1
				c1,0.6,1.8,1.3,2.8,1.9c0.8,0.5,1.5,1,2.1,1.6c0.2,0.2,0.5,0.4,0.8,0.6c0.8,0.6,1.8,1,2.4,1.9c0.1,0.1,0.2,0.2,0.4,0.3
				c0.9,0.4,1.4,1.3,2.1,1.9c0.7,0.7,1.3,1.4,1.7,2.3c0.2,0.5,0.5,0.9,0.8,1.4c0.3,0.4,0.5,0.9,0.7,1.4c0.9,2.1,1.4,4.3,1.5,6.6
				c0.1,1,0.2,2,0.3,3c0,1.1,0,2.2-0.1,3.3c-0.1,1-0.1,2-0.2,3c-0.1,0.9-0.3,1.8-0.4,2.7c-0.1,0.7-0.2,1.4-0.5,2.1
				c-0.2,0.4-0.1,1-0.3,1.4c-0.4,0.6-0.3,1.3-0.5,2c-0.2,0.8-0.5,1.6-0.8,2.4c-0.1,0.2-0.3,0.4-0.2,0.5c0.2,0.9-0.4,1.6-0.6,2.4
				c-0.2,0.8-0.6,1.5-0.8,2.3c-0.1,0.4-0.3,0.8-0.4,1.2c-0.2,0.6-0.4,1.1-1.2,1.5c-0.2,0-0.6-0.1-0.9-0.2c-0.3-0.1-0.6-0.3-1-0.5
				c-0.3-0.7,0.1-1.3,0.3-1.9c0.3-1,0.7-1.9,1.1-2.8c0.3-1,0.7-1.9,0.9-2.9c0-0.2,0.1-0.4,0.2-0.6c0.2-0.3,0.3-0.7,0.3-1
				c0-0.1,0-0.3,0.1-0.4c0.4-0.8,0.5-1.7,0.7-2.6c0.1-0.4,0.2-0.8,0.3-1.2c0.2-0.8,0.1-1.6,0.6-2.3c0.1-0.2,0.1-0.5,0.1-0.7
				c0.1-1.1,0.2-2.3,0.3-3.4c0.2-1.6,0-3.1,0.1-4.7c0.1-1.4,0-2.8-0.4-4.1c-0.3-1.1-0.5-2.1-0.8-3.2c-0.1-0.5-0.6-1-0.6-1.6
				c-1-1.8-2.1-3.5-3.7-4.8c-1.2-1-2.4-2.1-3.7-3c-0.9-0.7-1.9-1.5-3-2c-0.3-0.2-0.7-0.3-0.9-0.6c-1.4-1.4-3.2-2.2-4.8-3.4
				c-0.7-0.5-1.4-1.1-2.2-1.5c-0.1,0-0.2-0.1-0.3-0.2c-0.9-0.9-1.9-1.6-2.9-2.4c-0.3-0.2-0.6-0.5-0.8-0.8c-0.5-0.6-1-1.3-1.4-1.9
				c-0.3-0.4-0.5-0.8-0.6-1.3c-0.3-1-0.7-2-0.8-3.1c-0.1-1.4,0.1-2.8,0.1-4.3c0.4-0.5,0.4-1,0.6-1.6c0.3-0.8,0.7-1.7,1-2.5
				c0.9-2.1,1.9-4.2,2.9-6.3c0.6-1.2,1-2.6,1.6-3.8c0.3-0.7,0.6-1.3,1-2c0.4-0.8,0.8-1.6,1-2.5c0.1-0.4,0.4-0.8,0.5-1.2
				c0.7-1.8,1.4-3.5,2.1-5.3c0.2-0.6,0.5-1.1,0.7-1.7c0.6-1.2,1.3-2.5,2.3-3.4c0.9-0.8,1.9-1.5,3.3-1.4c1.3,0,2.6,0.1,3.9,0.2
				c1.6,0.1,3.1-0.1,4.5-0.9c0.6-0.3,1-0.7,1.2-1.3c0.3-0.9,0.7-1.8,1-2.8c0.2-0.5,0.4-0.9,0.7-1.4c0.4-0.9,1.2-1.4,2-1.7
				c0.8-0.3,1.5-0.5,2.4-0.3c0.8,0.1,1.1,0.6,1.4,1.2c0.3,0.9,0.3,1.9,0.2,2.9c0,0.7-0.1,1.4-0.5,2.1c-0.2,0.3-0.2,0.8-0.3,1.2
				c-0.1,0.4-0.2,0.8-0.3,1.2c0,0.1-0.1,0.2-0.1,0.3c0.1,1.3-0.6,2.4-0.7,3.7c-0.1,1.2-0.3,2.4-0.5,3.6c-0.1,0.9-0.3,1.8-0.5,2.6
				c-0.2,0.7-0.4,1.3-0.8,1.9c-0.4,0.6-0.7,1.4-1.2,2c-0.7,0.8-1.4,1.7-2.5,2.1c-0.5,0.2-0.9,0.5-1.3,0.7c-1,0.3-1.9,0.7-2.9,0.8
				c-0.4,0-0.7,0.1-1.1,0.1c-0.6,0-1,0.3-1.2,0.8c-0.2,0.4-0.5,0.7-0.5,1.2c0,0.2-0.1,0.4-0.2,0.6c-0.9,2.1-1.2,4.3-1.4,6.5
				c-0.1,1-0.1,1.9,0.3,2.9c0.1,0.3,0.1,0.6,0.2,0.9c0.2,0.4,0.3,0.9,0.6,1.2c0.8,0.6,1.5,1.4,2.4,1.8c1.4,0.6,2.8,0.7,4.2,1
				c0.2,0,0.4-0.1,0.5,0c0.7,0.4,1.2,0,1.9-0.2c1.5-0.4,2.6-1.3,3.8-2.2c0.4-0.3,0.7-0.8,1.1-1.2c1-1.1,2-2.3,2.7-3.6
				c0.2-0.4,0.5-0.7,0.8-1.1c0.4-0.6,0.8-1.1,1.1-1.7c0.2-0.4,0.2-0.9,0.7-1.1c0,0,0.1-0.2,0.1-0.2c-0.1-0.4,0.2-0.6,0.4-0.8
				c0.3-0.3,0.4-0.8,0.6-1.2c0.9-1.7,1.8-3.4,2.7-5.2c0-0.1,0.1-0.1,0.1-0.2c0.8-2,1.9-3.8,2.9-5.7c0.9-1.8,1.9-3.5,2.9-5.3
				c0.1-0.2,0.3-0.5,0.5-0.7c0.4-0.6,0.8-1.1,1.1-1.8c0.2-0.5,0.5-0.9,0.8-1.3c1-1.3,1.9-2.6,2.9-3.9c0.9-1.1,1.9-2.1,2.8-3
				c0.5-0.5,1.1-0.7,1.6-1.2c1.2-1,2.4-1.9,3.9-2.5c2.2-1,4.5-1.5,7-1.4c1.7,0.1,3.4,0.6,5,0.9c0.1,0,0.1,0.1,0.2,0.1
				c2.8,0.8,4.2,1.2,6.5,2.7c1.5,1,3,2.1,4.1,3.6c0.9,1.2,1.8,2.4,2.2,3.9c0.2,0.5,0.4,0.9,0.6,1.5c0.2,0.5,0.2,1,0.4,1.5
				c0.4,1.7,0.5,3.5,0.8,5.3c0,0.1,0,0.2,0,0.2c-0.4,1.6-0.2,3.3-0.3,5c0,0.5-0.2,1-0.2,1.4c-0.1,0.4-0.2,0.8-0.2,1.2
				c-0.2,1.4-0.5,2.9-0.7,4.3c-0.4,2.2-1.2,4.2-1.7,6.3c-0.2,0.6-0.4,1.2-0.6,1.8c-0.2,0.6-0.2,1.2-0.6,1.7
				c-0.1,1.5-1.1,2.8-1.2,4.3c0,0.4-0.3,0.8-0.5,1.2c-0.4,0.9-0.5,1.9-1,2.8c-0.1,0.1-0.1,0.2-0.1,0.3c0.1,1-0.5,1.9-0.7,2.8
				c-0.2,0.9-0.4,1.8-0.7,2.7c-0.3,1.1-0.3,2.3-0.3,3.4c0,1.1,0.4,1.9,1.3,2.5c1.5,1,2.9,2.3,4.1,3.6c1,1,1.8,2.2,2.4,3.5
				c0.1,0.2,0.2,0.4,0.3,0.7c0.5,0.8,1,1.5,1.5,2.3c0,0.1,0.1,0.1,0.1,0.2c0,0.8,0.6,1.5,0.8,2.3c0.3,0.8,0.5,1.6,0.8,2.3
				c0.8,1.5,1.7,3.1,3.2,4.1c0.6,0.4,1.2,0.9,1.9,1.3c0.8,0.5,1.6,0.8,2.4,1.2c0.7,0.3,1.4,0.6,2.1,0.9c0.5,0.2,1,0.3,1.5,0.4
				c0.9,0.2,1.8,0.6,2.7,0.7c0.6,0.1,1.1,0.4,1.7,0.6c0.6,0.1,1.2-0.1,1.7,0.1c1.2,0.5,2.6,0.4,3.8,0.7c1.3,0.3,2.6,0.3,3.9,0.3
				c0.6,0,1.1,0.1,1.7,0.1c1.5,0.2,2.9,0.1,4.4,0.1c0.6,0,1.1,0,1.7-0.1c0.9,0,1.7-0.2,2.6-0.1c1.3,0,2.5-0.4,3.7-0.8
				c2-0.7,3.8-1.8,5.7-2.7c0.5-0.3,1-0.7,1.5-1c1-0.6,2.1-1.1,3.1-1.6c0.8-0.4,1.6-0.5,2.5-0.1c0.6,0.3,1,0.8,1.1,1.5
				c0.1,0.9,0.1,1.8-0.4,2.7C143.5,139.2,143.1,139.8,143.1,140.7z"/>
		</g>
		<g>
			<path fill="#494D53" d="M51.3,94.1c0.7-1,1.4-1.9,2.7-1.5c1.2,0.9,2.4,1.7,3.5,2.6c0.2,0.1,0.4,0.1,0.6,0.2
				c0.5,0.2,1,0.4,1.6,0.6c0.2,0.1,0.5,0.2,0.7,0.2c1.6,0.2,3.2,0.4,4.8,0.3c0.1,0,0.2,0,0.4-0.1c0.4-0.1,0.6-0.3,0.6-0.8
				c-0.1-0.5-0.2-1-0.3-1.5c0-0.2-0.2-0.3-0.2-0.5c0-1.6-0.7-3.1-0.7-4.7c0-0.9-0.2-1.9-0.1-2.8c0.1-1.2-0.1-2.4,0-3.5
				c0.1-0.6,0.1-1.1,0.1-1.7c0-0.5,0.2-1,0.3-1.5c0-0.2,0.1-0.3,0.1-0.5c0.3-0.9,1.1-1.2,2.1-0.7c0.3,0.2,0.5,0.4,0.5,0.8
				c0,0.5,0.1,1.1,0,1.6c-0.4,1.9-0.4,3.9-0.4,5.8c0,1.3,0.3,2.5,0.3,3.7c0.1,2,0.7,4,1.1,6c0.1,0.4,0,0.8-0.2,1.2
				c-0.5,0.9-1.1,1.5-2.2,1.8c-1.2,0.3-2.4,0.4-3.6,0.2c-1.7-0.2-3.4-0.4-5-0.9c-0.7-0.2-1.3-0.5-1.9-1c-0.3-0.2-0.7-0.4-1.1-0.5
				c-0.4-0.1-0.8,0.2-0.7,0.6c0.4,1.8,0.5,3.6,1.6,5.2c0.6,0.9,1.4,1.6,2.5,1.8c0.5,0.1,1,0.2,1.4,0.1c0.6-0.1,1,0,1.5,0.2
				c0.4,0.1,0.7,0.5,0.7,0.9c0,0.5-0.1,1-0.6,1.2c-0.9,0.5-2,0.6-3,0.4c-0.6-0.1-1.1-0.2-1.7-0.4c-1.6-0.5-2.7-1.6-3.5-3
				c-1.1-1.9-1.7-4-1.8-6.3c0-0.6-0.1-1.2,0-1.8C51.5,95.2,51.4,94.7,51.3,94.1z"/>
		</g>
		<g>
			<path fill="#494D53" d="M76.6,77.7c-0.1,1.2-0.6,2.1-1.5,2.8c-0.5,0.4-1.1,0.2-1.7,0.1c-0.4-0.1-0.6-0.4-0.8-0.7
				c-0.3-0.8-0.5-1.7-0.1-2.6c0.2-0.5,0.5-1,0.9-1.4c0.4-0.3,0.7-0.4,1.2-0.5c0.8-0.2,1.4,0.3,1.7,0.9
				C76.5,76.7,76.7,77.1,76.6,77.7z"/>
		</g>
		<g>
			<path fill="#494D53" d="M59.2,72.1c0.3,0.1,0.4,0.1,0.5,0.1c0.4,0.1,1-0.1,1.2,0.4c0.3,0.6,0.6,1.2,0.4,1.8
				c-0.2,0.5-0.3,1-0.5,1.5c-0.4,0.8-1.1,1.2-2,1.1c-0.5-0.1-1.2-0.7-1.3-1.2c-0.3-1.3,0.1-2.4,1-3.3C58.8,72.1,59.1,72.1,59.2,72.1
				z"/>
		</g>
	</g>
	<g>
		<path fill="#494D53" d="M99.1,88c-0.3,0-0.6-0.1-0.9-0.2c-0.6-0.3-1-1-1-1.7V36.7c0-8,6.5-14.5,14.5-14.5h42.9
			c8,0,14.5,6.5,14.5,14.5v26.7c0,8-6.5,14.5-14.5,14.5H115l-14.8,9.8C99.8,87.9,99.5,88,99.1,88z M111.6,25.4
			c-6.2,0-11.3,5.1-11.3,11.3v47.1l13.4-8.8c0.3-0.2,0.6-0.3,0.9-0.3h40c6.2,0,11.3-5.1,11.3-11.3V36.7c0-6.2-5.1-11.3-11.3-11.3
			H111.6z"/>
	</g>
	<g>
		<path fill="#494D53" d="M43.6,54c-0.3,0-0.6-0.1-0.9-0.2c-0.6-0.3-1-1-1-1.7V14.5c0-8,6.5-14.5,14.5-14.5H99
			c8,0,14.5,6.5,14.5,14.5c0,0.9-0.7,1.6-1.6,1.6c-0.9,0-1.6-0.7-1.6-1.6c0-6.2-5.1-11.3-11.3-11.3H56.1c-6.2,0-11.3,5.1-11.3,11.3
			v35.3l13.4-8.8c0.3-0.2,0.6-0.3,0.9-0.3h31.8c0.9,0,1.6,0.7,1.6,1.6c0,0.9-0.7,1.6-1.6,1.6H59.5l-14.8,9.8
			C44.3,53.9,43.9,54,43.6,54z"/>
	</g>
	<g>
		<g>
			<g>
				<path fill="#EDAD7A" d="M129.6,64.9c-1.6,0.1-3-1.3-3.2-3.1c-0.1-1.8,1.1-3.4,2.7-3.5c1.6-0.1,3,1.3,3.2,3.1
					C132.4,63.2,131.2,64.8,129.6,64.9z"/>
			</g>
		</g>
		<g>
			<g>
				<path fill="#EDAD7A" d="M132,56.3c-0.2,0-0.4,0-0.6-0.2c-0.5-0.3-0.8-1.1-0.7-1.8c1.1-8.2,2.2-14.5,3.7-18.4c0,0,0-0.1,0-0.1
					c0.6-1.2,1.6-1.9,2.7-2.1c1.6-0.2,3.3,0.7,4.2,1.8c0.9,1,1.5,3,0.7,5c-2,4.9-5,9.9-9.3,15.2C132.6,56,132.3,56.2,132,56.3z
					 M131.4,54.5L131.4,54.5L131.4,54.5z"/>
			</g>
		</g>
	</g>
	<g>
		<g>
			<g>
				<path fill="#EDAD7A" d="M77.8,35.6c-1.2,0.9-2.9,0.5-3.9-0.8s-0.7-3,0.5-3.9c1.2-0.9,2.9-0.5,3.9,0.8C79.3,33,79,34.7,77.8,35.6
					z"/>
			</g>
		</g>
		<g>
			<g>
				<path fill="#EDAD7A" d="M75.8,28c-0.2,0.1-0.3,0.2-0.6,0.2c-0.6,0-1.1-0.4-1.3-1c-2.8-6.7-4.7-11.9-5.3-15.6c0,0,0-0.1,0-0.1
					c0-1.2,0.4-2.2,1.2-2.8c1.2-0.9,2.9-1,4.1-0.7c1.2,0.3,2.5,1.5,2.8,3.4c0.7,4.6,0.5,9.8-0.5,15.8C76.2,27.5,76,27.8,75.8,28z
					 M74.6,26.9L74.6,26.9L74.6,26.9z"/>
			</g>
		</g>
	</g>
</g>
</svg>
