<?xml version="1.0" encoding="utf-8"?>
<!-- Generator: Adobe Illustrator 18.1.1, SVG Export Plug-In . SVG Version: 6.00 Build 0)  -->
<svg version="1.1" id="Ebene_1" xmlns="http://www.w3.org/2000/svg" xmlns:xlink="http://www.w3.org/1999/xlink" x="0px" y="0px"
	 viewBox="0 0 175.3 168.6" enable-background="new 0 0 175.3 168.6" xml:space="preserve">
<g>
	<g>
		<g>
			<path fill="#494D53" d="M175.2,88.5c0-0.2-0.1-0.3-0.1-0.5c-0.6-0.9-1.3-1.6-2.5-1.8c-0.3,0-0.6-0.1-0.8-0.2
				c-0.3-0.1-0.6-0.2-1-0.2c-1.6-0.1-3.2,0.2-4.7,0.4c-1.2,0.1-2.3,0.5-3.5,0.7c-0.9,0.2-1.2-0.2-0.9-1c0.1-0.4,0.4-0.8,0.4-1.3
				c0.1-0.7-0.3-1.4-0.7-2.1c-0.2-0.5-0.8-0.6-1.2-0.8c-0.5-0.3-1.1-0.2-1.7-0.1c-1.4,0.3-2.6,1.1-3.6,2c-1,0.9-2,1.8-2.6,3
				c-0.1,0.2-0.2,0.3-0.4,0.5c-0.5,0.7-0.9,1.4-1.3,2.2c-0.1,0.3-0.2,0.5-0.3,0.8c-0.4,0.9-0.8,1.7-1.1,2.7c-0.4,1.7-1,3.4-1.4,5.1
				c-0.2,0.9-0.4,1.9-0.7,2.7c-0.5,1.2-0.9,2.5-1.7,3.6c-0.2,0.3-0.4,0.8-0.6,1c-0.7,0.7-1.4,1.5-2.3,2c-1.1,0.6-2.2,1.2-3.5,1.3
				c-0.4,0-0.6,0-0.8-0.1c-0.4,0.1-0.9,0.1-1.4,0.1c-0.1,0.2-0.2,0.3-0.4,0.4c-0.3,0-0.6-0.1-0.9-0.1c-2.1,0.1-4.2-0.2-6.2-1
				c-1.3-0.5-2.4-1.2-3-2.5c-0.5-0.4-0.5-1-0.8-1.5c-0.2-0.3-0.3-0.8-0.3-1.2c-0.1-0.5-0.1-1-0.2-1.4c-0.2-1-0.2-2.1-0.3-3.1
				c-0.1-3.6,0.1-7.2,0-10.8c-0.1-1.1,0-2.3,0-3.4c0-1.3-0.1-2.7-0.4-4c-0.2-0.9-0.3-1.8-0.3-2.8c0-0.5,0-1.1-0.1-1.6
				c-0.2-0.8-0.4-1.5-0.3-2.3c0-0.1,0-0.2-0.1-0.4c-0.1-0.5-0.3-1.1-0.5-1.6c-0.4-1.3-0.4-2.7-1.2-4c-0.1-0.2-0.1-0.5-0.2-0.7
				c-0.1-0.3-0.2-0.6-0.3-0.9c-0.3-0.9-0.8-1.8-1.3-2.6c-0.2-0.3-0.3-0.8-0.6-1.1c-0.7-0.7-1.1-1.7-1.9-2.4
				c-0.3-0.2-0.5-0.4-0.7-0.7c-1-1.1-2.1-2-3.4-2.6c-1.3-0.6-2.5-1.3-3.9-1.6c-1.2-0.3-2.3-0.5-3.5-0.6c-1.4-0.1-2.7-0.3-4.1,0
				c-0.5,0.1-1.1,0.1-1.6,0.2c-1.4,0.1-2.6,0.7-3.9,1c-0.6,0.2-1.2,0.4-1.8,0.7c-0.9,0.5-1.9,1-2.8,1.6c-0.8,0.6-1.5,1.2-2.2,1.9
				c-0.4,0.4-0.7,0.9-1.1,1.3c-0.4,0.4-0.8,0.8-1,1.4c0,0.1-0.1,0.2-0.2,0.3c-0.4,0.2-0.5,0.5-0.6,0.9c-0.1,0.3-0.2,0.6-0.4,0.8
				c-0.5,0.5-0.8,1.1-1,1.8c-0.3,0.8-0.6,1.7-1,2.5c-0.8,1.6-0.9,3.4-1.6,5c0,0.9-0.4,1.7-0.7,2.5c-0.1,0.3-0.2,0.5-0.3,0.8
				c-0.2,1.6-0.7,3.1-1,4.6c-0.2,1-0.3,2.1-0.7,3.1c0,0.1,0,0.2,0,0.2c-0.2,1.1-0.4,2.2-0.7,3.3c-0.2,1.1-0.5,2.2-0.8,3.3
				c-0.3,1.4-0.7,2.8-1.1,4.3c-0.4,1.4-0.7,2.7-1.1,4.1c-0.5,1.4-1,2.8-1.5,4.1c-0.4,1-1.2,1.8-1.8,2.7c-0.5,0.8-1.1,1.4-1.8,2
				c-0.2,0.2-0.4,0.3-0.5,0.5c-0.7,0.7-1.3,1.4-2,1.9c-1.4,1-2.9,2-4.3,3c-0.5,0.3-1.1,0.6-1.6,0.9c-0.9,0.6-1.8,1-2.7,1.3
				c-1,0.4-2.1,0.7-3.1,1.2c-0.9,0.5-2,0.4-2.9,0.9c-0.1,0-0.2,0-0.2,0c-0.5,0.1-1,0.1-1.6,0.2c-0.4,0-0.8,0.2-1.2,0.1
				c-1.7-0.2-3.5-0.2-5.1-1.2c-1-0.6-1.9-1.3-2.5-2.3c-0.5-0.8-0.9-1.7-1.2-2.5c-0.3-0.7-0.5-1.5-0.7-2.2c-0.3-1-0.6-2-0.9-3
				c-0.4-1.7-0.5-3.6-1.4-5.1c-0.2-1.1-1-2-1.2-3c-0.1-0.2-0.2-0.3-0.4-0.5c-0.3-0.3-0.6-0.6-1-0.9c-0.3-0.3-0.6-0.6-0.9-0.8
				c-1-0.6-2-0.7-3-0.1c-1.4,0.8-2.2,2.1-2.3,3.8c0.3,0.7-0.2,1.1-0.7,1.6c-1-0.5-2-1.1-3-1.6c-0.4-0.2-0.9-0.4-1.3-0.7
				c-0.5-0.4-1-0.6-1.5-0.7c-0.2-0.1-0.5-0.1-0.7-0.2c-0.8-0.5-1.7-0.4-2.6-0.4c-0.9,0-1.8,0.1-2.6,0.5c-0.1,0.1-0.3,0-0.5,0.1
				c-0.5,0.2-1,0.4-1.4,0.7c-0.8,0.5-1.3,1.2-1.9,1.9c-0.1,0.1-0.2,0.2-0.2,0.3c-0.1,0.8-0.3,1.6-0.3,2.4c0,0.9,0.4,1.8,0.9,2.7
				c0.8,1.6,2,2.9,3.4,4c1.3,1.1,2.7,2.2,4.1,3.3c0.5,0.4,1,0.9,1.6,1.3c0.8,0.6,1.5,1.2,2.2,1.9c0.7,0.7,1.3,1.5,2,2.1
				c0.2,0.2,0.3,0.4,0.5,0.7c0.1,0.2,0.2,0.4,0.4,0.6c0.3,0.2,0.4,0.6,0.6,0.9c0.6,1,1.1,2.1,1.7,3.1c0.3,0.6,0.6,1.2,0.8,1.8
				c0.2,0.3,0.3,0.6,0.5,1c0.3,0.7,0.7,1.3,0.9,2.1c0,0.2,0.2,0.4,0.3,0.7c0.4,1.3,1.1,2.4,1.6,3.6c0.8,1.6,1.6,3.1,2.9,4.3
				c0.8,0.7,1.4,1.5,2.4,1.9c1,0.5,1.9,1.1,3,1.3c0.4,0.1,0.7,0.2,1,0.3c0.3,0.1,0.5,0.2,0.8,0.3c1.7,0.2,3.3,0.8,5.1,0.7
				c0.9,0,1.7,0.1,2.6,0.1c2.4,0.1,4.7,0.2,7.1,0.3c1.4,0,2.8,0,4.2,0.4c0.2,0,0.3,0,0.5,0.1c1.4,0,2.7,0.4,4.1,0.7
				c0.5,0.1,1.1,0.2,1.6,0.5c0.8,0.4,1.5,0.9,2.3,1.4c0.2,0.1,0.3,0.2,0.5,0.4c0.5,0.6,0.9,1.2,1.3,1.9c0.1,0.2,0.2,0.5,0.2,0.8
				c0.2,0.8,0.3,1.7,0.6,2.5c0.3,0.7,0.4,1.3,0.4,2c0,0.2,0,0.4,0.1,0.6c0.2,0.9,0.4,1.7,0.5,2.6c0.2,1.3,0.5,2.6,0.6,4
				c0,0.3,0.1,0.6,0.2,0.8c0.1,0.9,0.5,1.8,0.3,2.8c-0.1,0.3,0,0.6,0.1,0.8c0.2,0.5,0.4,1,0.3,1.6c0,0.3,0.1,0.6,0.2,0.8
				c0.1,0.2,0.4,0.4,0.6,0.4c0.7-0.2,1.6-0.1,2.2-0.8c-0.1-1.4-0.1-2.7-0.4-4.1c-0.3-1.3,0-2.8-0.6-4.1c-0.1-0.1,0-0.3,0-0.5
				c-0.2-1.1-0.3-2.2-0.5-3.3c-0.2-1.1-0.5-2.1-0.7-3.2c-0.1-0.7-0.2-1.3-0.4-1.9c-0.1-0.5-0.3-0.9-0.4-1.4c-0.4-1.6-1-3.1-2.4-4.2
				c-0.2-0.2-0.3-0.4-0.5-0.5c-0.3-0.4-0.6-0.6-1-0.9c-0.8-0.4-1.6-0.9-2.5-1.3c-0.3-0.1-0.6-0.3-0.9-0.4c-1.1-0.3-2.2-0.8-3.5-0.8
				c-0.2,0-0.4-0.1-0.6-0.2c-1.1-0.4-2.2-0.4-3.4-0.4c-1.4,0-2.8-0.3-4.1-0.1c-0.1,0-0.3-0.1-0.5-0.1c-1.2-0.3-2.4-0.3-3.6-0.2
				c-1.1,0-2.1-0.2-3.2,0c-1-0.3-2.1-0.2-3.1-0.4c-1.2-0.2-2.4-0.4-3.6-0.7c-0.2-0.1-0.4-0.1-0.6-0.2c-0.9-0.4-1.8-0.8-2.6-1.3
				c-0.3-0.2-0.7-0.4-0.9-0.6c-1.1-1.1-2.2-2.2-2.7-3.7c0-0.2-0.2-0.3-0.2-0.4c-0.8-1.3-1.4-2.8-2-4.2c-0.1-0.4-0.4-0.7-0.5-1.1
				c-0.1-0.4-0.3-0.8-0.5-1.2c-0.4-1.1-1.2-2.1-1.5-3.3c-0.2-0.6-0.6-1.1-1-1.7c-0.7-1.2-1.4-2.3-2.3-3.3c-0.8-0.9-1.4-1.9-2.4-2.5
				c-0.1,0-0.1-0.1-0.2-0.2c-1.3-1.6-3.1-2.5-4.5-3.9c0,0-0.1,0-0.1,0c-0.8-0.5-3.9-3.2-4.5-3.9c-0.1-0.1-0.2-0.3-0.3-0.4
				c-0.3-0.5-0.7-1-1-1.5c-0.3-0.5-0.6-1.1-0.5-1.7c0.1-1.1,0.9-1.6,1.7-2.1c0.5-0.3,1.2-0.3,1.9-0.4c1.1-0.3,1.9,0.5,3,0.5
				c1,0.5,2,1,2.9,1.6c0.4,0.3,0.8,0.5,1.3,0.7c0.4,0.2,0.8,0.4,1.2,0.6c1,0.5,1.9,1.3,3,1.5c1,0.2,1.5,0,2-0.8
				c0.3-0.5,0.4-1.1,0.2-1.6c-0.2-0.6-0.5-1.2-0.7-1.8c0.4-0.8,0.1-1.9,1-2.4c0.7,0,1.1,0.5,1.4,1c0.7,1.2,1.3,2.5,1.6,3.9
				c0.1,0.2,0.1,0.5,0.2,0.7c0.3,0.3,0.3,0.7,0.4,1.1c0.2,1,0.2,2,0.6,2.9c0.4,1,0.4,2.1,0.9,3.1c0.4,0.7,0.6,1.6,0.9,2.4
				c0.5,1.3,1.5,2.3,2.4,3.4c0.4,0.4,0.8,0.8,1.2,1.2c0.9,0.8,2.2,0.9,3.2,1.7c0,0,0.1,0,0.1,0c1.5,0.3,3,0.5,4.5,0.5
				c1-0.1,2.1,0.1,3.1-0.5c0.2-0.1,0.4-0.1,0.6-0.1c0.3-0.1,0.6-0.1,1-0.2c1-0.3,1.9-0.6,2.9-1c0.3-0.1,0.6-0.2,0.9-0.4
				c0.5-0.3,1.1-0.4,1.6-0.6c0.5-0.2,0.9-0.6,1.4-0.9c0.1-0.1,0.3-0.1,0.5-0.2c1.1-0.6,2.2-1.3,3.4-1.7c0,0,0.1,0,0.1-0.1
				c0.4-0.6,1-0.8,1.5-1.2c0.7-0.6,1.5-1.3,2.3-1.8c1.1-0.7,2-1.8,2.9-2.7c1.6-1.5,2.5-3.4,3.8-5.1c0.1-0.2,0.2-0.3,0.3-0.5
				c0.4-1.1,0.8-2.2,1.1-3.4c0.3-0.9,0.5-1.7,0.7-2.6c0.1-0.5,0.5-1,0.4-1.6c0-0.1,0-0.2,0.1-0.2c0.3-1,0.6-2,1-3
				c0.2-0.5,0.3-1.1,0.4-1.6c0.2-1.5,0.6-2.9,0.9-4.4c0.3-1.2,0.6-2.5,0.8-3.7c0.2-1.3,0.7-2.6,0.8-3.9c0.1-0.9,0.4-1.7,0.6-2.6
				c0.2-0.9,0-1.8,0.5-2.6c0.1-1.2,0.6-2.3,1-3.4c0.3-1.1,0.7-2.2,1.2-3.2c0.6-1.3,1.1-2.6,1.9-3.8c0.7-1.1,1.5-2,2.4-2.9
				c1-1,2.1-2,3.5-2.6c0.6-0.3,1.2-0.7,1.9-0.8c0.4-0.5,1-0.4,1.6-0.5c0.3,0,0.6-0.1,0.8-0.2c0.4-0.1,0.7-0.2,1.1-0.2
				c1.5-0.1,3.1-0.2,4.6-0.2c0.4,0,0.7,0.1,1.1,0c0.5,0,0.9,0,1.3,0.3c0.3,0.2,0.7,0.2,1,0.3c0.4,0.1,0.8,0.2,1.2,0.3
				c1.2,0.4,2.2,1.1,3.3,1.6c0.1,0.1,0.3,0.2,0.4,0.3c0.6,0.6,1.3,1.1,1.8,1.8c0.6,0.6,1.2,1.2,1.6,2c0.7,1.1,1.2,2.4,1.8,3.6
				c0.2,0.4,0.5,0.8,0.6,1.3c0.4,1.5,0.7,2.9,1,4.4c0.1,0.2-0.1,0.6,0.1,0.7c0.5,0.6,0.4,1.3,0.4,2c0.1,0.8,0.2,1.5,0.3,2.3
				c0.2,1,0.4,2,0.3,3c0,0.2,0,0.5,0.1,0.7c0.1,0.2,0.2,0.4,0.4,0.7c-0.5,0.7-0.3,1.5-0.2,2.2c0.2,1.9,0.3,3.8,0.2,5.7
				c-0.1,2.3-0.1,4.5-0.2,6.8c0,0.9,0.2,1.7,0.2,2.5c0,0.9,0,1.8,0.2,2.7c0.2,1.7,0.7,3.3,1.6,4.7c1.1,1.7,2.6,3.1,4.6,3.8
				c0.6,0.5,1.4,0.3,2.1,0.6c1.3,0.4,2.6,0.5,3.9,0.5c1.1,0.1,2.2-0.1,3.3-0.1c0.9,0,1.8-0.1,2.7-0.4c0.9-0.4,1.9-0.7,2.8-1.1
				c1.9-0.9,3.4-2.3,4.6-4.1c0.3-0.5,0.6-1.1,0.9-1.6c0.8-1.1,1.1-2.3,1.5-3.6c0.4-1.2,0.7-2.5,1-3.8c0.3-1.2,0.7-2.4,1.1-3.6
				c0.1-0.2,0.2-0.4,0.2-0.6c0.1-1,0.6-1.8,1-2.7c0.5-1,1.3-1.9,1.8-2.9c0.1-0.1,0.1-0.2,0.2-0.3c0.3-0.3,0.6-0.5,0.9-0.8
				c0.7-0.5,1.1-1.3,2-1.5c0,0.1,0,0.2,0,0.3c-0.1,0.4-0.4,0.8-0.7,1.1c-0.5,0.5-0.8,1.1-0.9,1.8c-0.1,0.7,0.3,1.3,1,1.6
				c0.7,0.3,1.5,0.4,2.3,0.3c0.6-0.1,1.2-0.1,1.8-0.2c0.6-0.1,1.1-0.2,1.7-0.3c1.4-0.3,2.9-0.6,4.3-0.8c1.1-0.1,2.2-0.1,3.3-0.1
				c0.4,0,0.9,0.1,1.1,0.7c-0.1,1.1-0.7,2.1-1.3,3.1c-0.3,0.5-0.8,0.9-1.2,1.4c-0.7,1-1.9,2.2-2.8,2.9c-0.5,0.4-1,0.9-1.6,1.3
				c-0.2,0.1-0.3,0.3-0.5,0.4c-1.2,0.8-2.2,1.9-3,3c-0.1,0.1-0.1,0.3-0.2,0.4c-0.6,0.5-0.8,1.2-1.1,1.9c-0.1,0.4-0.2,0.8-0.4,1.1
				c-0.4,0.6-0.5,1.3-0.6,2c-0.2,0.9-0.3,1.9-0.4,2.8c-0.1,0.7-0.2,1.3-0.4,2c0.1,0.8,0.1,1.6,0,2.3c0,0.4,0,0.8-0.1,1.2
				c-0.2,1.1-0.2,2.2-0.5,3.2c-0.3,1.1-0.8,2.1-1.9,2.6c-1.1,0.5-2.2,1.3-3.4,1.7c-0.5,0.2-1,0.2-1.4,0.5c-0.6,0.4-1.3,0.5-1.9,0.7
				c-0.7,0.3-1.4,0.5-2,0.8c-1.2,0.6-2.5,0.8-3.7,1.5c-0.9,0.5-1.8,0.9-2.7,1.4c-0.8,0.5-1.8,0.8-2.4,1.6c-0.1,0.1-0.2,0.1-0.3,0.2
				c-0.8,0.7-1.7,1.3-2.4,2.1c-1.2,1.3-2,2.9-2.7,4.5c-0.7,1.4-1,3-1.3,4.6c-0.2,1-0.4,1.9-0.4,2.9c0,0.2,0,0.3-0.1,0.5
				c-0.2,0.3-0.2,0.7-0.2,1.1c0,0.4,0.1,0.7,0,1.1c-0.2,0.9-0.1,1.7-0.1,2.6c0,0.9,0.1,1.9,0,2.8c-0.1,1.3,0,2.6,0.2,3.9
				c0.1,0.8,0.2,1.5,0.2,2.3c0,0.8,0.2,1.5,0.3,2.3c0.1,0.4,0.4,0.6,0.8,0.6c0.4,0,0.7,0,1.1,0c0.8,0,1.2-0.4,1.1-1.1
				c0-0.6-0.2-1.2-0.3-1.8c-0.3-2.6-0.5-5.2-0.4-7.8c0-0.2,0-0.5,0-0.7c0-0.6,0-1.1,0-1.7c0-0.7,0-1.3,0.1-2
				c0.1-0.8,0.1-1.6,0.2-2.3c0.2-0.8,0.3-1.6,0.4-2.4c0-0.4,0.1-0.8,0.2-1.2c0.4-1.2,0.7-2.5,1.4-3.6c0.4-0.7,0.8-1.5,1.4-2.1
				c1.1-1.4,2.7-2.4,4.2-3.3c2-1.3,4.3-2.1,6.5-3.1c1.3-0.2,2.3-1,3.6-1.2c0.1,0,0.3-0.2,0.4-0.2c0.2-0.1,0.4-0.3,0.6-0.3
				c2.1-0.5,3.9-1.6,5.6-2.9c0.4-0.3,0.9-0.7,1.1-1.1c0.6-1,1.1-2.1,1.3-3.3c0.2-1.7,0.7-3.4,0.6-5.2c0-0.4,0.1-0.8,0.1-1.2
				c0-0.5,0.2-0.9,0.4-1.2v-0.6c0-0.1,0-0.3,0-0.4c0-0.3,0-0.6,0-0.9c0-1.1,0.2-2.1,0.6-3.1c0.5-1.2,1.3-2.2,2-3.3
				c0-0.1,0.1-0.1,0.2-0.2c0.9-0.8,1.8-1.6,2.7-2.3c1.1-0.8,2.2-1.7,3.1-2.7c1.1-1.2,2.1-2.5,3.1-3.8
				C175.1,92,175.5,90.3,175.2,88.5z"/>
		</g>
		<g>
			<path fill="#494D53" d="M95.2,99.3c0.5,2.4,1.3,4.6,3.4,6.2c1.1,0.1,2.3,0.2,3.5,0c1-0.2,1.6,0.3,1.6,1.3c0,0.3-0.1,0.6-0.4,0.7
				c-0.6,0.4-1.2,0.8-2,0.7c-0.7,0-1.4,0.2-2.1,0c-0.6-0.1-1.3-0.3-1.8-0.6c-1.2-0.7-2.2-1.6-2.9-2.7c-0.9-1.4-1.4-3-1.9-4.6
				c-0.3-0.9-0.4-1.9-0.6-2.9c-0.2-0.8,0.3-1.4,0.8-1.9c0.2-0.2,0.5-0.2,0.8-0.2c0.8,0,1.6,0.2,2.1,0.7c0.4,0.4,1,0.5,1.5,0.8
				c2.1,0.9,4.2,0.9,6.4,0.7c0.8-0.1,1.7-0.2,2.4-0.7c0-0.2,0-0.3,0-0.4c-0.6-1.7-1.3-3.4-1.9-5.1c-0.1-0.2-0.1-0.4-0.1-0.6
				c-0.1-0.3-0.1-0.6-0.2-0.8c-0.6-1.7-0.9-3.5-0.9-5.4c0-0.9-0.2-1.8-0.2-2.7c0-0.5,0-1.1,0.1-1.6c0.1-0.4,0.4-0.8,0.8-0.8
				c0.5,0,1-0.1,1.3,0.4c0.4,0.5,0.6,1,0.6,1.7c0,1.4-0.1,2.9,0.2,4.3c0.4,2.7,1.1,5.4,2.1,8c0.1,0.1,0.1,0.3,0.2,0.4
				c0.6,0.9,0.7,1.9,0.8,2.9c0.1,0.7-0.4,1.2-0.9,1.6c-0.7,0.5-1.5,1.1-2.4,1c-0.2,0-0.5,0.1-0.7,0.1c-1,0.2-2.1,0.3-3.2,0.2
				c-0.4,0-0.9,0-1.3,0c-1.4-0.1-2.8-0.3-4.1-0.9C95.8,99.1,95.5,99,95.2,99.3z"/>
		</g>
		<g>
			<path fill="#494D53" d="M112.5,80.3c-0.6,0.4-1.2,0.5-1.8,0.6c-0.6,0-1.2-0.3-1.3-0.9c-0.3-1.1-0.4-2.2,0.2-3.3
				c0.3-0.6,1.3-1.2,1.9-1.1c0.5,0.1,0.9,0.5,1.2,1c0.4,0.9,0.4,1.8,0.1,2.7C112.8,79.6,112.7,79.9,112.5,80.3z"/>
		</g>
		<g>
			<path fill="#494D53" d="M96.8,79.8c-0.4,0-0.7-0.1-1.1-0.1c-0.5-0.4-0.9-0.8-1-1.4c-0.3-1.1,0.2-2.5,1-3.2
				c0.5-0.4,1.4-0.4,1.9,0.1c0.2,0.2,0.4,0.5,0.5,0.8c0.4,0.8,0.1,1.5,0,2.3C97.8,79,97.3,79.4,96.8,79.8z"/>
		</g>
	</g>
	<g>
		<path fill="#494D53" d="M69.9,88.4c-0.4,0-0.8-0.1-1.1-0.3L54,78.3H14.5C6.5,78.3,0,71.8,0,63.8V37.1c0-8,6.5-14.5,14.5-14.5h42.9
			c8,0,14.5,6.5,14.5,14.5v49.3c0,0.7-0.4,1.4-1,1.7C70.5,88.3,70.2,88.4,69.9,88.4z M14.5,25.8c-6.2,0-11.3,5.1-11.3,11.3v26.7
			c0,6.2,5.1,11.3,11.3,11.3h40c0.3,0,0.6,0.1,0.9,0.3l13.4,8.8V37.1c0-6.2-5.1-11.3-11.3-11.3H14.5z"/>
	</g>
	<g>
		<path fill="#494D53" d="M109.9,44.8H80.8c-0.9,0-1.6-0.7-1.6-1.6c0-0.9,0.7-1.6,1.6-1.6h29.1c6.2,0,11.3-5.1,11.3-11.3V14.5
			c0-6.2-5.1-11.3-11.3-11.3H67c-6.2,0-11.3,5.1-11.3,11.3c0,0.9-0.7,1.6-1.6,1.6c-0.9,0-1.6-0.7-1.6-1.6C52.5,6.5,59,0,67,0h42.9
			c8,0,14.5,6.5,14.5,14.5v15.8C124.4,38.3,117.9,44.8,109.9,44.8z"/>
	</g>
	<g>
		<g>
			<g>
				<g>
					<g>
						<circle fill="#EDAD7A" cx="37.5" cy="64.3" r="1.3"/>
					</g>
				</g>
			</g>
			<g>
				<g>
					<g>
						<path fill="#EDAD7A" d="M38,66.1c-0.2,0.1-0.5,0.1-0.7,0.1c-0.5-0.1-0.9-0.3-1.2-0.7c-0.3-0.4-0.4-0.9-0.4-1.3
							c0.1-1,1-1.7,2-1.6c1,0.1,1.7,1,1.6,2C39.2,65.3,38.7,65.9,38,66.1z M37.3,63.6c-0.3,0.1-0.5,0.3-0.5,0.6l0,0
							c0,0.4,0.2,0.8,0.7,0.8c0.4,0,0.8-0.2,0.8-0.7c0-0.4-0.2-0.8-0.7-0.8C37.5,63.6,37.4,63.6,37.3,63.6z M36.2,64.2L36.2,64.2
							L36.2,64.2z"/>
					</g>
				</g>
			</g>
		</g>
		<g>
			<g>
				<g>
					<g>
						<path fill="#EDAD7A" d="M37.2,60.2c-1.3,0.4-2.8,0.2-4.1-0.5c-2.3-1.3-3.3-3.9-2.5-6.4c0.9-2.9,2.2-5.4,3.4-7.5
							c0.6-1.1,1.2-2.1,1.6-3c0.4-0.8,0.3-1.8-0.2-2.6c-0.5-0.8-1.2-1.3-2.1-1.4c-1.7-0.2-3.4,0.1-4.3,3.4c-0.2,1-1.2,1.5-2.2,1.3
							c-1-0.2-1.5-1.2-1.3-2.2c1.4-5.5,5.1-6.3,8-6c2.1,0.2,3.8,1.3,4.9,3.1c1.1,1.8,1.2,4,0.3,5.9c-0.5,1.1-1.1,2.2-1.7,3.3
							c-1.1,2-2.3,4.3-3.1,6.9c-0.3,1.1,0.2,1.9,0.9,2.2c0.3,0.2,1.3,0.6,2.2-0.4c0.5-0.6,1-1.4,1.4-2.4c0.4-0.9,1.4-1.3,2.3-1
							c0.9,0.4,1.3,1.4,1,2.3c-0.6,1.4-1.3,2.6-2,3.4C39,59.4,38.2,59.9,37.2,60.2z"/>
					</g>
				</g>
			</g>
		</g>
	</g>
	<g>
		<g>
			<g>
				<g>
					<g>
						<circle fill="#EDAD7A" cx="86.1" cy="33.9" r="1.1"/>
					</g>
				</g>
			</g>
			<g>
				<g>
					<g>
						<path fill="#EDAD7A" d="M86,35.5c-0.2,0-0.4-0.1-0.6-0.2c-0.4-0.2-0.7-0.5-0.8-0.9c-0.1-0.4-0.1-0.8,0.1-1.2
							c0.4-0.8,1.4-1.1,2.2-0.7c0.8,0.4,1.1,1.4,0.7,2.2C87.2,35.3,86.6,35.6,86,35.5z M86.2,33.3c-0.3,0-0.5,0.1-0.6,0.4l0,0
							c-0.2,0.3,0,0.7,0.3,0.9c0.3,0.2,0.7,0,0.9-0.3c0.2-0.3,0-0.7-0.3-0.9C86.3,33.3,86.3,33.3,86.2,33.3z M85.1,33.4L85.1,33.4
							L85.1,33.4z"/>
					</g>
				</g>
			</g>
		</g>
		<g>
			<g>
				<g>
					<g>
						<path fill="#EDAD7A" d="M87.1,30.5c-1.2-0.1-2.4-0.7-3.2-1.7c-1.5-1.8-1.5-4.2-0.1-6.1c1.7-2.2,3.5-3.8,5.2-5.2
							c0.8-0.7,1.6-1.4,2.3-2c0.6-0.6,0.8-1.4,0.7-2.2c-0.1-0.8-0.6-1.5-1.3-1.8c-1.4-0.7-2.9-1-4.6,1.4c-0.5,0.7-1.5,0.9-2.2,0.4
							c-0.7-0.5-0.9-1.5-0.4-2.2C86.3,7,89.7,7.5,92,8.6c1.6,0.8,2.8,2.3,3.1,4.1c0.3,1.8-0.3,3.7-1.6,5c-0.7,0.7-1.6,1.4-2.4,2.2
							c-1.5,1.3-3.3,2.8-4.8,4.7c-0.6,0.8-0.4,1.6,0,2.1c0.2,0.2,0.9,0.9,2,0.4c0.6-0.3,1.2-0.8,1.9-1.6c0.6-0.6,1.6-0.7,2.2-0.1
							c0.6,0.6,0.7,1.6,0.1,2.2c-0.9,1-1.8,1.7-2.8,2.2C88.9,30.4,88,30.5,87.1,30.5z"/>
					</g>
				</g>
			</g>
		</g>
	</g>
</g>
</svg>
