<?xml version="1.0" encoding="utf-8"?>
<!-- Generator: Adobe Illustrator 18.1.1, SVG Export Plug-In . SVG Version: 6.00 Build 0)  -->
<svg version="1.1" id="Ebene_1" xmlns="http://www.w3.org/2000/svg" xmlns:xlink="http://www.w3.org/1999/xlink" x="0px" y="0px"
	 viewBox="0 0 206.1 167.7" enable-background="new 0 0 206.1 167.7" xml:space="preserve">
<g>
	<g>
		<g>
			<g>
				<g>
					<path fill="#494D53" d="M102.5,113.4c1.8,0.5,3.5,0.4,5-0.4c2.7-1.4,4.8-4.9,6.2-10.7c0.2-0.9-0.1-1.7-0.9-2.3
						c-0.7-0.5-1.7-0.5-2.4,0c-3.4,2.3-7.4,2.6-12.2,1c-0.1,0-0.1-0.1-0.1-0.1c0,0,0-0.1,0-0.2c2.9-6.2,4.4-12.1,4.4-17.6
						c0-0.8-0.6-1.4-1.4-1.4c-0.8,0-1.4,0.6-1.4,1.4c0,5.1-1.4,10.7-4.2,16.5c-0.4,0.8-0.4,1.6,0,2.4c0.3,0.8,1,1.4,1.8,1.6
						c5,1.6,9.4,1.4,13.3-0.6c-1.2,4.1-2.6,6.6-4.4,7.5c-1.1,0.6-2.4,0.5-3.9-0.1c-0.7-0.3-1.5,0.1-1.8,0.8
						c-0.3,0.7,0.1,1.5,0.8,1.8C101.7,113.2,102.1,113.3,102.5,113.4z"/>
					<path fill="#494D53" d="M102.5,113.4c1.8,0.5,3.5,0.4,5-0.4c2.7-1.4,4.8-4.9,6.2-10.7c0.2-0.9-0.1-1.7-0.9-2.3
						c-0.7-0.5-1.7-0.5-2.4,0c-3.4,2.3-7.4,2.6-12.2,1c-0.1,0-0.1-0.1-0.1-0.1c0,0,0-0.1,0-0.2c2.9-6.2,4.4-12.1,4.4-17.6
						c0-0.8-0.6-1.4-1.4-1.4c-0.8,0-1.4,0.6-1.4,1.4c0,5.1-1.4,10.7-4.2,16.5c-0.4,0.8-0.4,1.6,0,2.4c0.3,0.8,1,1.4,1.8,1.6
						c5,1.6,9.4,1.4,13.3-0.6c-1.2,4.1-2.6,6.6-4.4,7.5c-1.1,0.6-2.4,0.5-3.9-0.1c-0.7-0.3-1.5,0.1-1.8,0.8
						c-0.3,0.7,0.1,1.5,0.8,1.8C101.7,113.2,102.1,113.3,102.5,113.4z"/>
				</g>
				<g>
					
						<ellipse transform="matrix(-0.9935 0.1139 -0.1139 -0.9935 195.6424 149.5032)" fill="#494D53" cx="93.6" cy="80.3" rx="2.1" ry="2.9"/>
					
						<ellipse transform="matrix(-0.9935 0.1139 -0.1139 -0.9935 195.6424 149.5032)" fill="#494D53" cx="93.6" cy="80.3" rx="2.1" ry="2.9"/>
				</g>
				<g>
					
						<ellipse transform="matrix(-0.9935 0.1139 -0.1139 -0.9935 227.8394 146.6105)" fill="#494D53" cx="109.7" cy="79.8" rx="1.9" ry="2.7"/>
					
						<ellipse transform="matrix(-0.9935 0.1139 -0.1139 -0.9935 227.8394 146.6105)" fill="#494D53" cx="109.7" cy="79.8" rx="1.9" ry="2.7"/>
				</g>
			</g>
			<g>
				<g>
					<path fill="#494D53" d="M136.2,92.1c-0.3,0-0.6-0.1-0.9-0.2c-0.6-0.3-1-1-1-1.7V40.8c0-8,6.5-14.5,14.5-14.5h42.9
						c8,0,14.5,6.5,14.5,14.5v26.7c0,8-6.5,14.5-14.5,14.5h-39.5l-14.8,9.8C137,92,136.6,92.1,136.2,92.1z M148.7,29.5
						c-6.2,0-11.3,5.1-11.3,11.3v47.1l13.4-8.8c0.3-0.2,0.6-0.3,0.9-0.3h40c6.2,0,11.3-5.1,11.3-11.3V40.8c0-6.2-5.1-11.3-11.3-11.3
						H148.7z"/>
				</g>
				<g>
					<path fill="#494D53" d="M69.9,92.1c-0.4,0-0.8-0.1-1.1-0.3L54,81.9H14.5C6.5,81.9,0,75.4,0,67.5V40.8c0-8,6.5-14.5,14.5-14.5
						h42.9c8,0,14.5,6.5,14.5,14.5v49.3c0,0.7-0.4,1.4-1,1.7C70.5,92,70.2,92.1,69.9,92.1z M14.5,29.5c-6.2,0-11.3,5.1-11.3,11.3
						v26.7c0,6.2,5.1,11.3,11.3,11.3h40c0.3,0,0.6,0.1,0.9,0.3l13.4,8.8V40.8c0-6.2-5.1-11.3-11.3-11.3H14.5z"/>
				</g>
				<g>
					<path fill="#494D53" d="M121.6,41.1h-40c-0.9,0-1.6-0.7-1.6-1.6c0-0.9,0.7-1.6,1.6-1.6h40c0.9,0,1.6,0.7,1.6,1.6
						C123.2,40.4,122.4,41.1,121.6,41.1z"/>
				</g>
				<g>
					<path fill="#494D53" d="M154.6,19.3c-0.9,0-1.6-0.7-1.6-1.6v-3.2c0-6.2-5.1-11.3-11.3-11.3H62.6c-6.2,0-11.3,5.1-11.3,11.3
						c0,0.9-0.7,1.6-1.6,1.6c-0.9,0-1.6-0.7-1.6-1.6c0-8,6.5-14.5,14.5-14.5h79.2c8,0,14.5,6.5,14.5,14.5v3.2
						C156.2,18.6,155.5,19.3,154.6,19.3z"/>
				</g>
				<g>
					<path fill="#EDAD7A" d="M67.8,23.5c-0.7,0-1.3-0.1-1.9-0.3c-0.6-0.2-1.1-0.5-1.5-0.9c-0.4-0.4-0.8-0.9-1-1.4S63,19.7,63,19v0
						c0-0.6,0.1-1.2,0.4-1.8c0.2-0.6,0.6-1,1-1.4c0.4-0.4,0.9-0.7,1.5-1c0.6-0.2,1.2-0.3,1.9-0.3c0.8,0,1.4,0.1,2,0.3
						c0.6,0.2,1.1,0.5,1.5,0.9l-1.4,1.7c-0.3-0.3-0.6-0.5-1-0.6c-0.3-0.1-0.7-0.2-1.1-0.2c-0.3,0-0.6,0.1-0.9,0.2
						c-0.3,0.1-0.5,0.3-0.7,0.5c-0.2,0.2-0.4,0.5-0.5,0.8c-0.1,0.3-0.2,0.6-0.2,0.9v0c0,0.3,0.1,0.7,0.2,1c0.1,0.3,0.3,0.6,0.5,0.8
						c0.2,0.2,0.5,0.4,0.7,0.5c0.3,0.1,0.6,0.2,1,0.2c0.6,0,1-0.1,1.4-0.4V20h-1.7v-1.8h4v3.9c-0.5,0.4-1,0.7-1.6,1
						C69.3,23.4,68.6,23.5,67.8,23.5z"/>
					<path fill="#EDAD7A" d="M77.3,23.5c-0.6,0-1.2-0.1-1.7-0.2c-0.5-0.2-0.9-0.4-1.3-0.7c-0.3-0.3-0.6-0.7-0.8-1.2
						c-0.2-0.5-0.3-1.1-0.3-1.8v-4.9h2.5v4.8c0,0.6,0.1,1.1,0.4,1.4c0.3,0.3,0.7,0.5,1.2,0.5c0.5,0,0.9-0.1,1.2-0.4
						c0.3-0.3,0.4-0.7,0.4-1.4v-4.9h2.5v4.8c0,0.7-0.1,1.3-0.3,1.8c-0.2,0.5-0.5,0.9-0.8,1.3c-0.4,0.3-0.8,0.6-1.3,0.7
						C78.5,23.4,77.9,23.5,77.3,23.5z"/>
					<path fill="#EDAD7A" d="M85.4,16.7h-2.6v-2.1h7.6v2.1h-2.6v6.6h-2.4V16.7z"/>
					<path fill="#EDAD7A" d="M92,14.6h7v2h-4.6V18h4.2v1.9h-4.2v1.4H99v2h-7V14.6z"/>
					<path fill="#EDAD7A" d="M100.7,14.6h2.3l3.6,4.6v-4.6h2.4v8.7h-2.1l-3.7-4.8v4.8h-2.4V14.6z"/>
					<path fill="#EDAD7A" d="M117,16.7h-2.6v-2.1h7.6v2.1h-2.6v6.6H117V16.7z"/>
					<path fill="#EDAD7A" d="M126.6,14.6h2.3l3.7,8.7H130l-0.6-1.6H126l-0.6,1.6h-2.5L126.6,14.6z M128.7,19.9l-1-2.5l-1,2.5H128.7z
						"/>
					<path fill="#EDAD7A" d="M138.4,23.5c-0.7,0-1.3-0.1-1.9-0.3c-0.6-0.2-1.1-0.5-1.5-0.9c-0.4-0.4-0.8-0.9-1-1.4s-0.4-1.2-0.4-1.8
						v0c0-0.6,0.1-1.2,0.4-1.8c0.2-0.6,0.6-1,1-1.4c0.4-0.4,0.9-0.7,1.5-1c0.6-0.2,1.2-0.3,1.9-0.3c0.8,0,1.4,0.1,2,0.3
						c0.6,0.2,1.1,0.5,1.5,0.9l-1.4,1.7c-0.3-0.3-0.6-0.5-1-0.6c-0.3-0.1-0.7-0.2-1.1-0.2c-0.3,0-0.6,0.1-0.9,0.2
						c-0.3,0.1-0.5,0.3-0.7,0.5c-0.2,0.2-0.4,0.5-0.5,0.8c-0.1,0.3-0.2,0.6-0.2,0.9v0c0,0.3,0.1,0.7,0.2,1c0.1,0.3,0.3,0.6,0.5,0.8
						c0.2,0.2,0.5,0.4,0.7,0.5c0.3,0.1,0.6,0.2,1,0.2c0.6,0,1-0.1,1.4-0.4V20h-1.7v-1.8h4v3.9c-0.5,0.4-1,0.7-1.6,1
						C139.9,23.4,139.2,23.5,138.4,23.5z"/>
				</g>
				<g>
					<path fill="#EDAD7A" d="M24.8,47.6c0.4,0,0.6,0.1,0.9,0.2c0.2,0.1,0.4,0.4,0.4,0.7v11.5c0,0-0.1,0.1-0.2,0.1
						c-0.1,0-0.2,0-0.3,0.1c-0.1,0-0.2,0-0.4,0.1c-0.1,0-0.2,0-0.4,0c-0.2,0-0.4,0-0.5,0c-0.2,0-0.3-0.1-0.5-0.2
						c-0.1-0.1-0.2-0.2-0.3-0.4c-0.1-0.2-0.1-0.4-0.1-0.6v-4.1h-4.6V60c-0.1,0.1-0.3,0.2-0.6,0.2c-0.3,0.1-0.6,0.1-0.9,0.1
						c-0.1,0-0.3,0-0.4,0c-0.1,0-0.3-0.1-0.4-0.2c-0.1-0.1-0.2-0.2-0.3-0.4c-0.1-0.2-0.1-0.4-0.1-0.6V47.8c0.1-0.1,0.4-0.1,0.6-0.2
						c0.3,0,0.6-0.1,0.8-0.1c0.3,0,0.6,0.1,0.9,0.2c0.2,0.1,0.4,0.4,0.4,0.7v4h4.6v-4.7c0.1-0.1,0.3-0.1,0.6-0.2
						C24.3,47.6,24.5,47.6,24.8,47.6z"/>
					<path fill="#EDAD7A" d="M30.5,56.5c0.1,0.6,0.3,1,0.6,1.2c0.3,0.2,0.7,0.4,1.2,0.4c0.3,0,0.5,0,0.8,0c0.3,0,0.6-0.1,0.8-0.1
						c0.3-0.1,0.5-0.1,0.7-0.2c0.2-0.1,0.4-0.2,0.5-0.3c0.1,0.1,0.2,0.2,0.3,0.4c0.1,0.2,0.1,0.4,0.1,0.6c0,0.3-0.1,0.5-0.2,0.7
						c-0.1,0.2-0.2,0.3-0.4,0.4c-0.2,0.1-0.4,0.2-0.5,0.3c-0.2,0.1-0.4,0.2-0.6,0.3c-0.2,0.1-0.5,0.1-0.8,0.2c-0.3,0-0.6,0.1-1,0.1
						c-0.7,0-1.3-0.1-1.8-0.4c-0.5-0.2-0.9-0.6-1.3-1c-0.4-0.4-0.6-0.9-0.8-1.5C28.1,57,28,56.4,28,55.7c0-0.7,0.1-1.4,0.4-2
						c0.2-0.6,0.6-1.1,0.9-1.4c0.4-0.4,0.8-0.7,1.4-0.9s1-0.3,1.6-0.3c1.1,0,2,0.4,2.6,1.1c0.6,0.7,0.9,1.7,0.9,3c0,0.3,0,0.5,0,0.7
						c0,0.2-0.1,0.5-0.1,0.7H30.5z M32.2,53.4c-0.3,0-0.6,0.1-1,0.4c-0.3,0.2-0.6,0.6-0.7,1.1h2.9C33.5,53.9,33.1,53.4,32.2,53.4z"
						/>
					<path fill="#EDAD7A" d="M39.6,57.2c0,0.4,0.1,0.6,0.2,0.7c0.1,0.1,0.3,0.2,0.6,0.2h1.2c0,0.1,0.1,0.2,0.1,0.3
						c0,0.1,0,0.2,0,0.4c0,0.2,0,0.3-0.1,0.5c-0.1,0.2-0.2,0.3-0.4,0.4c-0.2,0.1-0.4,0.2-0.8,0.3c-0.3,0.1-0.7,0.1-1.2,0.1
						c-0.8,0-1.4-0.2-1.7-0.7c-0.3-0.5-0.5-1.1-0.5-1.8V48c0.1-0.1,0.3-0.2,0.5-0.3c0.2-0.1,0.4-0.1,0.8-0.1c0.5,0,0.8,0.1,1,0.4
						c0.2,0.2,0.3,0.5,0.3,0.8V57.2z"/>
					<path fill="#EDAD7A" d="M45,57.2c0,0.4,0.1,0.6,0.2,0.7c0.1,0.1,0.3,0.2,0.6,0.2H47c0,0.1,0.1,0.2,0.1,0.3c0,0.1,0,0.2,0,0.4
						c0,0.2,0,0.3-0.1,0.5c-0.1,0.2-0.2,0.3-0.4,0.4c-0.2,0.1-0.4,0.2-0.8,0.3s-0.7,0.1-1.2,0.1c-0.8,0-1.4-0.2-1.7-0.7
						c-0.3-0.5-0.5-1.1-0.5-1.8V48c0.1-0.1,0.3-0.2,0.5-0.3c0.2-0.1,0.4-0.1,0.8-0.1c0.5,0,0.8,0.1,1,0.4c0.2,0.2,0.3,0.5,0.3,0.8
						V57.2z"/>
					<path fill="#EDAD7A" d="M47.7,55.8c0-0.8,0.1-1.6,0.3-2.2c0.2-0.6,0.5-1.1,0.9-1.5c0.4-0.4,0.9-0.7,1.4-0.8
						c0.5-0.2,1.1-0.3,1.7-0.3c0.6,0,1.2,0.1,1.8,0.3c0.5,0.2,1,0.5,1.4,0.8c0.4,0.4,0.7,0.9,0.9,1.5c0.2,0.6,0.3,1.3,0.3,2.2
						c0,0.8-0.1,1.6-0.3,2.2c-0.2,0.6-0.5,1.1-0.9,1.5c-0.4,0.4-0.9,0.6-1.4,0.8s-1.1,0.3-1.7,0.3c-0.6,0-1.2-0.1-1.7-0.3
						c-0.5-0.2-1-0.5-1.4-0.8c-0.4-0.4-0.7-0.9-0.9-1.5C47.8,57.3,47.7,56.6,47.7,55.8z M50.4,55.8c0,0.4,0,0.8,0.1,1.1
						c0.1,0.3,0.2,0.5,0.4,0.7c0.1,0.2,0.3,0.3,0.5,0.4c0.2,0.1,0.4,0.1,0.6,0.1c0.2,0,0.4,0,0.6-0.1c0.2-0.1,0.4-0.2,0.5-0.4
						c0.1-0.2,0.2-0.4,0.3-0.7c0.1-0.3,0.1-0.7,0.1-1.1c0-0.9-0.2-1.5-0.5-1.9c-0.3-0.4-0.7-0.5-1.1-0.5c-0.2,0-0.4,0-0.6,0.1
						c-0.2,0.1-0.4,0.2-0.5,0.4c-0.2,0.2-0.3,0.4-0.4,0.8C50.5,55,50.4,55.4,50.4,55.8z"/>
				</g>
				<g>
					<path fill="#EDAD7A" d="M151,47.3h3.2v9.1c0,0.4,0.1,0.7,0.2,0.9c0.1,0.2,0.4,0.3,0.7,0.3h1c0.1,0,0.3,0,0.3,0.1
						c0.1,0,0.1,0.1,0.2,0.2c0,0.1,0.1,0.2,0.1,0.3c0,0.1,0,0.3,0,0.5V59c0,0.2,0,0.4,0,0.6c0,0.1-0.1,0.2-0.1,0.3
						c0,0.1-0.1,0.1-0.2,0.1c-0.1,0-0.2,0-0.3,0h-1.9c-0.6,0-1.1-0.1-1.5-0.2c-0.4-0.1-0.7-0.3-1-0.6c-0.3-0.3-0.5-0.6-0.6-1
						c-0.1-0.4-0.2-0.9-0.2-1.4V47.3z"/>
					<path fill="#EDAD7A" d="M161.2,56.9c0,0,0,0.1,0,0.1c0,0,0,0.1,0,0.1c0.3,0.2,0.7,0.3,1,0.4c0.4,0.1,0.7,0.1,1.1,0.1h0
						c0.1,0,0.3,0,0.3,0.1c0.1,0,0.1,0.1,0.2,0.2c0,0.1,0.1,0.2,0.1,0.3c0,0.1,0,0.3,0,0.5V59c0,0.2,0,0.4,0,0.6
						c0,0.1-0.1,0.2-0.1,0.3c0,0.1-0.1,0.1-0.2,0.1c-0.1,0-0.2,0-0.3,0h-0.1c-0.4,0-0.9-0.1-1.4-0.3c-0.5-0.2-0.9-0.5-1.3-0.8
						c-0.2,0.3-0.6,0.6-1,0.8s-0.9,0.3-1.5,0.3h-2.1c-0.1,0-0.2,0-0.3,0c-0.1,0-0.1-0.1-0.2-0.1c0-0.1-0.1-0.2-0.1-0.3
						c0-0.1,0-0.3,0-0.6v-0.5c0-0.2,0-0.3,0-0.5c0-0.1,0-0.2,0.1-0.3c0-0.1,0.1-0.1,0.2-0.2c0.1,0,0.2-0.1,0.3-0.1h1.2
						c0.2,0,0.4-0.1,0.5-0.2c0.1-0.1,0.2-0.3,0.2-0.7v-4.4h3.2V56.9z M158.1,63.4c0-0.2,0-0.4,0.1-0.6s0.2-0.3,0.3-0.5
						c0.1-0.1,0.3-0.2,0.5-0.3c0.2-0.1,0.4-0.1,0.6-0.1c0.2,0,0.4,0,0.6,0.1c0.2,0.1,0.3,0.2,0.5,0.3c0.1,0.1,0.2,0.3,0.3,0.5
						c0.1,0.2,0.1,0.4,0.1,0.6c0,0.2,0,0.4-0.1,0.6c-0.1,0.2-0.2,0.3-0.3,0.5c-0.1,0.1-0.3,0.2-0.5,0.3c-0.2,0.1-0.4,0.1-0.6,0.1
						c-0.2,0-0.4,0-0.6-0.1c-0.2-0.1-0.3-0.2-0.5-0.3c-0.1-0.1-0.2-0.3-0.3-0.5S158.1,63.6,158.1,63.4z"/>
					<path fill="#EDAD7A" d="M169,57.6c-0.1-0.1-0.1-0.2-0.1-0.4c0-0.2-0.1-0.3-0.1-0.5c-0.1-0.3-0.1-0.6-0.2-0.9
						c-0.1-0.3-0.2-0.5-0.3-0.7s-0.3-0.4-0.6-0.5c-0.2-0.1-0.6-0.2-1-0.2c-0.1,0-0.2,0-0.3,0c-0.1,0-0.3,0-0.5,0
						c-0.2,0-0.4,0.1-0.7,0.1c-0.2,0-0.5,0.1-0.8,0.2v-2.4c0.5-0.1,1-0.3,1.5-0.4c0.5-0.1,1-0.2,1.6-0.2c0.6,0,1.1,0.1,1.5,0.2
						c0.5,0.2,0.9,0.4,1.2,0.7c0.3,0.3,0.6,0.6,0.8,1s0.3,0.9,0.4,1.4c0,0.3,0.1,0.6,0.1,0.9c0.1,0.3,0.1,0.6,0.2,0.8
						c0.1,0.2,0.2,0.4,0.4,0.6c0.2,0.2,0.4,0.2,0.6,0.2v2.5h-9.5c-0.1,0-0.2,0-0.3,0c-0.1,0-0.1-0.1-0.2-0.1c0-0.1-0.1-0.2-0.1-0.3
						c0-0.1,0-0.3,0-0.6v-0.5c0-0.2,0-0.3,0-0.5c0-0.1,0-0.2,0.1-0.3c0-0.1,0.1-0.1,0.2-0.2c0.1,0,0.2-0.1,0.3-0.1H169z"/>
					<path fill="#EDAD7A" d="M173.6,61.5c0.5-0.1,0.9-0.3,1.2-0.4c0.3-0.2,0.5-0.4,0.6-0.7c0.1-0.2,0.2-0.5,0.3-0.8c0-0.3,0-0.6,0-1
						v-6.3h3.2v5.3h1.9c0.1,0,0.3,0,0.3,0.1c0.1,0,0.1,0.1,0.2,0.2c0,0.1,0.1,0.2,0.1,0.3c0,0.1,0,0.3,0,0.5V59c0,0.2,0,0.4,0,0.6
						c0,0.1-0.1,0.2-0.1,0.3c0,0.1-0.1,0.1-0.2,0.1c-0.1,0-0.2,0-0.3,0h-2.1c-0.1,0.6-0.3,1.1-0.5,1.5c-0.2,0.4-0.5,0.8-0.9,1.2
						c-0.4,0.3-0.8,0.6-1.4,0.9c-0.5,0.2-1.2,0.4-1.9,0.5L173.6,61.5z"/>
					<path fill="#EDAD7A" d="M183.8,59.1c-0.3,0.3-0.6,0.5-1,0.7c-0.4,0.2-0.8,0.3-1.3,0.3h-0.6c-0.1,0-0.2,0-0.3,0
						c-0.1,0-0.1-0.1-0.2-0.1c0-0.1-0.1-0.2-0.1-0.3c0-0.1,0-0.3,0-0.6v-0.5c0-0.2,0-0.3,0-0.5c0-0.1,0-0.2,0.1-0.3
						c0-0.1,0.1-0.1,0.2-0.2c0.1,0,0.2-0.1,0.3-0.1h0.5c0.2,0,0.3,0,0.4-0.1c0.1-0.1,0.2-0.1,0.3-0.2c0.1-0.1,0.2-0.2,0.2-0.3
						c0.1-0.1,0.1-0.2,0.1-0.4c0.3-0.9,0.6-1.6,1-2.2c0.4-0.6,0.8-1,1.3-1.4c0.4-0.3,0.9-0.6,1.3-0.7c0.4-0.1,0.8-0.2,1.2-0.2
						c0.5,0,0.9,0.1,1.3,0.2c0.4,0.1,0.8,0.3,1.1,0.5c0.3,0.2,0.6,0.4,0.8,0.7c0.2,0.3,0.4,0.6,0.6,0.9c0.2,0.3,0.3,0.6,0.3,0.9
						c0.1,0.3,0.1,0.6,0.1,0.9c0,0.5-0.1,0.9-0.2,1.4c-0.2,0.5-0.4,0.9-0.8,1.3c-0.3,0.4-0.8,0.7-1.3,0.9c-0.5,0.2-1.1,0.4-1.9,0.4
						c-0.4,0-0.8,0-1.1-0.1c-0.3-0.1-0.7-0.1-1-0.2c-0.3-0.1-0.6-0.2-0.8-0.3C184.2,59.4,184,59.3,183.8,59.1L183.8,59.1z
						 M188.7,56.2c0-0.2,0-0.4-0.1-0.5c-0.1-0.2-0.2-0.3-0.3-0.5c-0.1-0.1-0.3-0.2-0.5-0.3c-0.2-0.1-0.4-0.1-0.6-0.1
						c-0.4,0-0.8,0.2-1.2,0.5c-0.4,0.4-0.7,1-0.9,1.8c0.1,0.1,0.3,0.1,0.4,0.2c0.2,0.1,0.3,0.1,0.5,0.2c0.2,0.1,0.3,0.1,0.5,0.1
						c0.2,0,0.3,0,0.5,0c0.2,0,0.4,0,0.6-0.1c0.2-0.1,0.4-0.1,0.5-0.2c0.1-0.1,0.3-0.3,0.3-0.4C188.6,56.7,188.7,56.5,188.7,56.2z"
						/>
				</g>
			</g>
		</g>
	</g>
	<g>
		<path fill="#494D53" d="M139.2,167.7c-0.9,0-1.6-0.7-1.6-1.6v-19.1c0-5.5,3.8-9.1,10.3-10.1c7.4-1.1,16.7-3.3,20.9-5.8
			c7.7-4.6,24.9-25.3,24.3-32.1c-0.1-0.9-0.4-1.2-0.9-1.4c-2.1-0.7-3.5,0.9-5.5,4.6c-1,1.9-1.9,3.4-3.4,3.4c-2.5,0.2-4-1.9-5.1-3.5
			c-0.5,1.3-0.9,3.3-1.1,4.5c-0.2,0.7-0.3,1.4-0.4,2l-0.1,0.4c-1.3,5.4-3.2,12.8-20.2,12.8c0,0,0,0,0,0c-27.2,0-30.2-19.3-32.8-36.3
			c-2.5-16-4.6-29.9-25.4-27.6c-11.8,3.6-12.3,15.7-12.7,28.5c-0.5,16-1.2,34.1-26.1,35.4c0,0,0,0-0.1,0c-14.2,0-21.1-3.4-23.1-11.4
			c-0.1-0.6-0.3-1.2-0.4-2c-0.3-1.1-0.7-3.1-1.2-4.5c-1,1.6-2.6,3.7-5,3.5c-1.5,0-2.4-1.5-3.4-3.4c-2-3.7-3.4-5.3-5.6-4.5
			c-0.5,0.2-0.8,0.5-0.9,1.4c-0.2,3,3.3,9.4,9.1,16.6C34,124.1,40.2,130,43.8,132c5.9,3.3,15,3.4,22.2,3.6c3.4,0.1,6.3,0.1,8.7,0.5
			c6.3,0.9,10.3,5.2,10.3,11v8.2c0,0.9-0.7,1.6-1.6,1.6s-1.6-0.7-1.6-1.6v-8.2c0-4.2-2.9-7.2-7.6-7.9c-2.1-0.3-5-0.4-8.3-0.4
			c-7.6-0.1-17.1-0.3-23.7-4c-7.9-4.4-26.5-25.2-25.9-34.1c0.1-2,1.2-3.5,3-4.2c5.2-1.8,7.9,3.1,9.5,6c0.3,0.6,0.8,1.4,1,1.7
			c0.9-0.2,1.8-1.8,2.3-2.7c0.6-1,1.5-2.6,3.1-1.8c1.8,0.9,2.5,3.7,3.5,8c0.1,0.7,0.3,1.3,0.4,1.9c0.7,2.9,2.3,9,20,9c0,0,0,0,0,0
			c21.9-1.1,22.5-16.3,23-32.3c0.5-13.4,0.9-27.2,15.1-31.4c0.1,0,0.2,0,0.3-0.1c23.9-2.8,26.5,14,29,30.2
			c2.7,17.3,5.2,33.6,29.7,33.6c0,0,0,0,0,0c14.6,0,15.9-5.3,17.2-10.4l0.1-0.5c0.1-0.5,0.3-1.2,0.4-1.9c0.9-4.2,1.7-7,3.5-8
			c1.5-0.8,2.5,0.8,3.1,1.8c0.5,0.9,1.5,2.5,2.3,2.7c0.3-0.4,0.7-1.1,1-1.7c1.6-2.9,4.3-7.7,9.4-6c1.8,0.7,2.8,2.1,3,4.1
			c0.8,9.1-18.8,30.8-25.8,35.1c-4.8,2.9-14.9,5.2-22.1,6.2c-5,0.7-7.6,3.1-7.6,7v19.1C140.8,167,140.1,167.7,139.2,167.7z"/>
	</g>
</g>
</svg>
