<svg height="400" viewBox="0 0 400 400" width="400" xmlns="http://www.w3.org/2000/svg"><g fill="none" transform="translate(50 100)"><g fill="#7fa4cb"><path d="m160.8008 123.699c-.4485-.0576-.9026-.11-1.3432-.1751.439.0671.8962.1161 1.3432.1751z"/><path d="m164.3766 124.0747c-.72-.057-1.433-.1207-2.1338-.1964.6997.0774 1.4144.139 2.1338.1964z"/><path d="m167.3263 124.2549c-.7443-.0308-1.4754-.0747-2.2-.1249.7254.05 1.4546.0958 2.2.1249z"/><path d="m170.2953 124.3267h.002l-.0284-.0006z"/><path d="m122.9586 102.574c-2.275643-3.0196135-4.262826-6.2461654-5.9354-9.6372 1.56632 3.4486878 3.560456 6.6865311 5.9354 9.6372z"/><path d="m170.2689 124.3261c-1.0019 0-1.9744-.0335-2.9426-.0712.964867.039933 1.945733.063667 2.9426.0712z"/><path d="m165.1261 124.13c-.250933-.017333-.500933-.035767-.75-.0553.249267.0196.499267.038033.75.0553z"/></g><path d="m158.5034 103.5609 1.69.3972c2.021622.450219 4.071886.760489 6.1362.9286 1.4313.1082 2.8787.163 4.302.163.8953 0 1.731-.0228 2.5084-.0586.5382-.59.99-1.0924 1.499-1.6882.0516-.06.1061-.1164.1573-.1772 9.999958-12.0545914 15.426685-27.2505819 15.3248-42.9127v-48.0748c0-.5380358.436164-.9742.9742-.9742h29.514c.538036 0 .9742.4361642.9742.9742v48.6158c.131671 15.2849019-6.304515 29.8908942-17.6737 40.1079-3.242966 2.87564-6.850393 5.311837-10.7293 7.2458-5.170846 2.550844-10.756456 4.155741-16.4927 4.7388-1.064.1135-2.1362.2066-3.2255.2571l-.0248.0011c-1.014.046667-2.038767.066-3.0743.058-.6276-.0037-1.2413-.0217-1.8535-.0411-.947-.03-1.8818-.0722-2.7916-.1387-6.023141-.576696-11.935761-1.994548-17.5654-4.2122-3.249837-1.448661-6.301383-3.306386-9.0806-5.5281-4.65188-3.7733363-8.495512-8.4455672-11.3013-13.7376-1.29253-2.4011709-2.406766-4.8941243-3.3337-7.4587-2.296861-6.3113198-3.591796-12.9432335-3.8378-19.655l-.0213-4.5866c-.002258-.5363787-.437717-.9700048-.9741-.97h-51.8208c-.2583739 0-.5061655.1026386-.6888634.2853366-.182698.1826979-.2853366.4304895-.2853366.6888634v4.6079c0 12.4337 4.8753 31.8141 18.6163 45.5125 10.9153 10.8816 25.2291 16.3982 42.551 16.3972h.2517c2.47447-.008441 4.946676-.150615 7.4058-.4259-4.637572-2.57935-8.931432-5.73312-12.78-9.3867-.573-.5451-1.1219-1.09-1.6526-1.6325-.060442-.061791-.140468-.100673-.2264-.11-11.1115-1.24-20.4009-5.5047-27.668-12.7486-9.0849-9.0582-13.4649-21.1716-14.8391-30.9245-.0368699-.2787565.0487185-.5598271.2346926-.7707256.1859742-.2108985.4541283-.3309793.7353074-.3292744h29.5288c.491799-.0001605.906412.3666487.9662.8548.713981 5.6476544 2.029725 11.20279 3.9248 16.5707.907135 2.5639916 1.96426 5.0724212 3.1659 7.5123 1.672574 3.3910346 3.659757 6.6175865 5.9354 9.6372 6.1245 7.8365 17.5079 18.0478 36.4991 20.95.4406.0652.8947.1174 1.3432.1751.4774.0631.9552.1256 1.4419.1793.7008.0757 1.4139.1394 2.1338.1964.248533.02.498533.038433.75.0553.7248.05 1.4559.0941 2.2.1249.9681.0377 1.9407.0709 2.9426.0712l.0284.0006c.14.001.2765.001.4163.001.9035 0 1.7991-.0211 2.69-.0552 1.7068-.0655 3.3872-.2 5.0446-.3927 1.805667-.2102 3.5828-.492333 5.3314-.8464 10.235053-2.073965 19.732767-6.837319 27.516-13.8 13.771089-12.3366376 21.58326-29.9916722 21.4519-48.48v-59.7786c0-.25851257-.102748-.50642547-.285619-.68914642-.182871-.18272096-.430869-.28526587-.689381-.28505358h-51.842c-.538036 0-.9742.4361642-.9742.9742v59.2386c.102835 13.0297872-4.393745 25.6782693-12.6983 35.7192-.4208.5-.8563.9735-1.29 1.4513-1.886321 2.0877531-3.947108 4.010977-6.16 5.7488l-.2753.2223c-.1164.1-.1463.1836-.0297.2065z" fill="#eda97b"/><path d="m162.2427 123.8783c-.4867-.0538-.9646-.1162-1.4419-.1793.4792.0615.9539.1266 1.4419.1793z" fill="#7fa4cb"/><rect fill="#eda97b" height="22.9123" rx="1.7517" transform="matrix(.70710678 -.70710678 .70710678 .70710678 .72701 125.366077)" width="22.9123" x="140.237596" y="50.34931"/><path d="m25.957 193.9548h-.3623c-3.3174 3.860333-7.1172 5.790333-11.3994 5.79-3.4856342.136252-6.88917317-1.079206-9.5-3.3926-2.41939943-2.137863-3.7761732-5.231563-3.71-8.4595 0-9.106667 8.23333333-14.052633 24.7-14.8379v-1.1763c0-3.376933-.7239667-5.789533-2.1719-7.2378s-3.8304333-2.172067-7.1475-2.1714c-4.3428 0-8.80613333 1.5381-13.39 4.6143l-1.4482-6.6953c4.55731344-3.188542 10.0007464-4.865683 15.5623-4.7948 5.5488 0 9.6051 1.2365 12.1689 3.7095s3.8457 6.393567 3.8457 11.7617v18.0044c0 1.75.2262333 2.8659.6787 3.3477.4521333.4834 1.583.7246 3.3926.7236l-.4521 6.2427c-.3023482-.000512-.60452.014641-.9053.0454-.3027.03-.6035.0454-.9043.0454-2.1047529.124968-4.1991073-.379005-6.0166-1.4478-1.4244344-.97322-2.46446-2.41315-2.9406-4.0713zm-.2715-4.9761v-11.2187c-6.1523333.784667-10.4951 1.885567-13.0283 3.3027s-3.79986667 3.3924-3.8 5.9258c-.05000368 1.756382.67831676 3.44517 1.99 4.6143 1.4827427 1.263084 3.3927104 1.910725 5.3379 1.81 3.6569093-.043777 7.118115-1.659181 9.5004-4.434z" fill="#fff"/><path d="m80.4219 198.388h-7.419v-26.0567c0-3.497533-.6787-5.9705-2.0361-7.4189s-3.5440667-2.1722-6.56-2.1714c-4.0791234-.00984-7.9910593 1.620097-10.8564 4.5234v31.1236h-7.4186v-41.618l7.4189-1.1763v6.2427c4.1621333-4.162133 8.6554667-6.243033 13.48-6.2427 4.2216667 0 7.5091 1.266667 9.8623 3.8 2.3515333 2.533333 3.5276333 6.0317 3.5283 10.4951z" fill="#fff"/><path d="m120.32 186.6106c.105774 3.695064-1.516462 7.228365-4.3877 9.5566-3.192407 2.536049-7.191003 3.838257-11.2646 3.6685-5.1040485.105735-10.1302258-1.263308-14.4756-3.9429l1.9-6.8237c3.7505069 2.578809 8.205501 3.937294 12.7568 3.89 2.089113.088792 4.155827-.459885 5.9258-1.5732 1.468014-.918762 2.344537-2.541977 2.3076-4.2734.014552-.906843-.237395-1.798012-.7246-2.563-.60715-.851558-1.436463-1.520059-2.3975-1.9326-.956701-.472201-1.93812-.892576-2.94-1.2593-.844733-.3-2.081067-.66-3.709-1.08-3.223296-.799413-6.2536761-2.236753-8.9121-4.2271-2.2617333-1.798333-3.3926-4.419267-3.3926-7.8628-.1181846-3.55284 1.4603717-6.950115 4.252-9.1509 3.0143317-2.356154 6.762255-3.575285 10.5859-3.4434 4.647811-.041401 9.238362 1.027282 13.39 3.1172l-1.8994 6.835c-3.623548-2.020144-7.703877-3.079153-11.8525-3.0762-1.874346-.094724-3.733949.375585-5.3379 1.35-1.2841287.818401-2.0407254 2.253995-1.99 3.7759-.0582427 1.701523.8775296 3.281817 2.3975 4.0488 2.283917 1.154904 4.698834 2.030028 7.1924 2.6064 3.285795.803509 6.377479 2.256697 9.0928 4.2739 2.321 1.829267 3.4819 4.524667 3.4827 8.0862z" fill="#fff"/><path d="m145.3809 198.5691h-6.7861l-12.7569-41.6191h7.9621l8.7764 30.7617 9.59-30.5806h6.7861l10.585 30.6709 7.6-30.8521h8.2325l-12.4854 41.6187h-6.7846l-10.5859-30.9424z" fill="#fff"/><path d="m198.1279 178.574v.3618c-.027918 3.729094 1.38146 7.325685 3.9355 10.043 2.546978 2.612661 6.080417 4.025804 9.7266 3.89 4.38513.142286 8.709243-1.057141 12.3945-3.438l1.3574 6.876c-3.74 2.291533-8.384533 3.437533-13.9336 3.438-6.212867 0-11.2643-2.0205-15.1543-6.0615s-5.8353-9.228167-5.8359-15.5615c0-6.634733 1.9453-12.048067 5.8359-16.24 3.724838-4.120887 9.058951-6.416312 14.6123-6.2881 4.944333 0 8.819667 1.4476 11.626 4.3428 2.804667 2.895 4.207 6.8457 4.207 11.8521.024498 2.23403-.280549 4.459464-.9053 6.6045zm.3621-5.4287 21.2619-.1807v-.6333c0-3.196267-.784167-5.699367-2.3525-7.5093s-3.920867-2.714733-7.0576-2.7144c-3.059925-.105193-6.020304 1.095377-8.1426 3.3022-2.060651 2.095377-3.365583 4.816799-3.7092 7.7355z" fill="#fff"/><path d="m245.084 171.3362v27.0518h-7.419v-41.618l7.4189-1.1763v7.3281c3.0762-4.885267 6.936567-7.327967 11.5811-7.3281 2.738167-.058304 5.436453.663297 7.78 2.0806l-1.8994 6.9668c-1.984545-1.230233-4.270603-1.887793-6.6055-1.9-4.160933-.000067-7.779633 2.864967-10.8561 8.5951z" fill="#fff"/><path d="m299.5488 186.6106c.105774 3.695064-1.516462 7.228365-4.3877 9.5566-3.192407 2.536049-7.191003 3.838257-11.2646 3.6685-5.104048.105735-10.130226-1.263308-14.4756-3.9429l1.9-6.8237c3.750507 2.578809 8.205501 3.937294 12.7568 3.89 2.089113.088792 4.155827-.459885 5.9258-1.5732 1.468014-.918762 2.344537-2.541977 2.3076-4.2734.014552-.906843-.237395-1.798012-.7246-2.563-.60715-.851558-1.436463-1.520059-2.3975-1.9326-.956701-.472201-1.93812-.892576-2.94-1.2593-.844733-.3-2.081067-.66-3.709-1.08-3.223296-.799413-6.253676-2.236753-8.9121-4.2271-2.261733-1.798333-3.3926-4.419267-3.3926-7.8628-.118185-3.55284 1.460372-6.950115 4.252-9.1509 3.014332-2.356154 6.762255-3.575285 10.5859-3.4434 4.647811-.041401 9.238362 1.027282 13.39 3.1172l-1.8994 6.835c-3.623548-2.020144-7.703877-3.079153-11.8525-3.0762-1.874346-.094724-3.733949.375585-5.3379 1.35-1.284129.818401-2.040725 2.253995-1.99 3.7759-.058243 1.701523.87753 3.281817 2.3975 4.0488 2.283917 1.154904 4.698834 2.030028 7.1924 2.6064 3.285795.803509 6.377479 2.256697 9.0928 4.2739 2.320867 1.829267 3.481767 4.524667 3.4827 8.0862z" fill="#fff"/></g></svg>