<svg enable-background="new 0 0 150 53.9" viewBox="0 0 150 53.9" xmlns="http://www.w3.org/2000/svg"><path d="m130.9 33.4c-.1 0-.3-.1-.3-.3 0-.1 0-.1 0-.2 0-.4 0-.7 0-1.1 0-1.5 0-2.9 0-4.4 0-1 .1-2.1.7-3s1.7-1.4 2.8-1.6c.8-.1 1.6-.1 2.3-.1h2.3c.1 0 .3.1.3.3v1.4c0 .1-.1.3-.3.3-.9 0-1.8 0-2.7 0-.7 0-1.5.1-2 .6s-.6 1.2-.7 1.9v2.9 3.1c0 .1-.1.3-.3.3h-2.1z" fill="#484c54"/><path d="m65.3 22.9c-.2 0-.3.1-.3.3v9.6c0 .5 0 1-.1 1.5-.2.7-.9 1-1.6 1.1-.3 0-.6 0-1 .1-.1 0-.3 0-.4 0-.1 0-.2.1-.2.2v1.6c0 .1.1.2.2.2.8 0 1.7.1 2.5 0 .7-.1 1.3-.2 1.9-.5.9-.5 1.3-1.4 1.4-2.4.1-.8.1-1.5.1-2.3s0-7.4 0-9c0-.2-.1-.3-.3-.3h-2.2z" fill="#484c54"/><path d="m65 21.1v-2.1c0-.1.1-.3.3-.3h2.2c.1 0 .3.1.3.3v2.1c0 .1-.1.3-.3.3h-2.2c-.2 0-.3-.1-.3-.3z" fill="#484c54"/><path d="m93.9 31.5c.1 0 .1 0 0 0 .5-.1.8-.4.9-.8s0-1-.3-1.2c-.4-.4-1-.3-1.5-.3-.7 0-1.4 0-2.2 0-2 0-5 .4-5.8-2-.3-.9-.2-1.9.2-2.8.4-.8 1.1-1.3 2-1.4.7-.1 1.5-.1 2.3-.1h2.5 4.8c.1 0 .2.1.2.2v1.5c0 .1-.1.2-.2.2h-6.4c-.7 0-1.4-.1-2.1.1-.4.1-.8.4-.8.8-.1.4 0 .9.3 1.2.4.4 1 .3 1.6.3h4.4c.6 0 1.2 0 1.8.2.8.3 1.5.9 1.7 1.8.3.9.3 2.2-.2 3.1-.5.8-1.3 1.1-2.2 1.3-.8.1-1.6.1-2.4.1s-1.7 0-2.5 0c-1.5 0-3 0-4.5 0-.1 0-.3-.1-.3-.3v-1.4c0-.1.1-.2.2-.2z" fill="#484c54"/><path d="m76.7 33.6c-1.6-.1-3.2 0-4.6-.8-1-.5-1.8-1.4-2.2-2.5-.8-2.3-.3-5.5 2-6.8 1.2-.7 2.7-.8 4.1-.8.9 0 1.7 0 2.6.1.7.1 1.4.1 2.1.4 1 .3 1.9 1 2.5 2 .6 1.1.8 2.4.7 3.6-.1 1.6-.8 3-2.2 3.9-1.6.8-3.4.9-5 .9zm-.1-2.1c.9 0 1.9.1 2.8-.3.7-.3 1.2-.8 1.4-1.5.3-.8.3-2 .1-2.8-.2-.7-.6-1.2-1.2-1.5-.8-.4-1.9-.5-2.8-.5-.5 0-1.1 0-1.6.1s-.9.1-1.4.3c-1.6.7-1.9 2.8-1.4 4.3.2.7.6 1.2 1.3 1.6.8.3 1.8.3 2.8.3z" fill="#484c54"/><path d="m121.9 33.6c-1.6-.1-3.2 0-4.6-.8-1-.5-1.8-1.4-2.2-2.5-.8-2.3-.3-5.5 2-6.8 1.2-.7 2.7-.8 4.1-.8.9 0 1.7 0 2.6.1.7.1 1.4.1 2.1.4 1 .3 1.9 1 2.5 2 .6 1.1.8 2.4.7 3.6-.1 1.6-.8 3-2.2 3.9-1.6.8-3.4.9-5 .9zm-.1-2.1c.9 0 1.9.1 2.8-.3.7-.3 1.2-.8 1.4-1.5.3-.8.3-2 .1-2.8-.2-.7-.6-1.2-1.2-1.5-.8-.4-1.9-.5-2.8-.5-.5 0-1.1 0-1.6.1s-.9.1-1.4.3c-1.6.7-1.9 2.8-1.4 4.3.2.7.6 1.2 1.3 1.6.8.3 1.8.3 2.8.3z" fill="#484c54"/><path d="m106.2 33.6c-1.6-.1-3.2 0-4.6-.8-1-.5-1.8-1.4-2.2-2.5-.8-2.3-.3-5.5 2-6.8 1.2-.7 2.7-.8 4.1-.8.9 0 1.7 0 2.6.1.7.1 1.4.1 2.1.4 1 .3 1.9 1 2.5 2 .6 1.1.8 2.4.7 3.6-.1 1.6-.8 3-2.2 3.9-1.5.8-3.3.9-5 .9zm0-2.1c.9 0 1.9.1 2.8-.3.7-.3 1.2-.8 1.4-1.5.3-.8.3-2 .1-2.8-.2-.7-.6-1.2-1.2-1.5-.8-.4-1.9-.5-2.8-.5-.5 0-1.1 0-1.6.1s-.9.1-1.4.3c-1.6.7-1.9 2.8-1.4 4.3.2.7.6 1.2 1.3 1.6.8.3 1.8.3 2.8.3z" fill="#484c54"/><g fill="#eeaf7a"><path d="m35.1 42.8c-.1 0-.2 0-.3 0z"/><path d="m36.1 42.9c-.2 0-.4 0-.6-.1.2.1.4.1.6.1z"/><path d="m36.8 42.9c-.2 0-.4 0-.6 0z"/><path d="m25.4 37.3c-.6-.8-1.1-1.7-1.5-2.5-.1.1.4 1.2 1.5 2.5z"/><path d="m37.6 43c-.3 0-.5 0-.8 0z"/><path d="m36.3 42.9c-.1 0-.1 0-.2 0z"/><path d="m34.5 37.6.4.1c.5.1 1 .2 1.6.2h1.1.6c.1-.2.3-.3.4-.4 2.6-3 4-7 4-11.1v-12.4c0-.1.1-.3.3-.3h7.6c.1 0 .3.1.3.3v12.6c0 4-1.7 7.8-4.6 10.4-.9.8-1.8 1.4-2.8 1.9-1.3.7-2.7 1.1-4.3 1.2-.3 0-.6.1-.8.1-.3 0-.5 0-.8 0-.2 0-.3 0-.5 0s-.5 0-.7 0c-2.4-.2-4.5-1.1-4.5-1.1-.9-.4-1.7-.9-2.3-1.4-1.3-1-2.2-2.3-2.9-3.6-.3-.6-.6-1.3-.9-1.9-.9-2.6-1-4.9-1-5.1v-1.2c0-.1-.1-.3-.3-.3h-13.3c-.1 0-.3.1-.3.3v1.1c0 3.2 1.3 8.2 4.8 11.8 2.8 2.8 6.5 4.2 11 4.2h.1c.7 0 1.3 0 1.9-.1-1.4-.8-2.5-1.6-3.3-2.4-.1-.1-.3-.3-.4-.4 0 0 0 0-.1 0-2.9-.3-5.3-1.4-7.2-3.3-2.3-2.3-3.5-5.5-3.8-8 0-.2.1-.3.3-.3h7.6c.1 0 .2.1.2.2.1 1.1.4 2.6 1 4.3.2.6.5 1.3.8 1.9.4.8.9 1.7 1.5 2.5 1.6 2 4.5 4.7 9.4 5.4h.3.4c.2 0 .4 0 .6.1h.2.6.8.1.7c.4 0 .9-.1 1.3-.1.5-.1.9-.1 1.4-.2 2.6-.5 5-1.7 7.1-3.6 3.5-3.1 5.5-7.7 5.5-12.5v-15.4c0-.1-.1-.3-.3-.3h-13.2c-.1 0-.3.1-.3.3v15.3c0 3.4-1.2 6.7-3.3 9.2-.1.1-.2.3-.3.4-.5.6-1 1-1.6 1.5z"/><path d="m35.5 42.9c-.1 0-.2 0-.4 0 .2-.1.3-.1.4 0z"/><path d="m36.7 27.1-3.5 3.5c-.2.2-.5.2-.6 0l-3.5-3.5c-.2-.2-.2-.5 0-.6l3.5-3.5c.2-.2.5-.2.6 0l3.5 3.5c.1.2.1.4 0 .6z"/></g><path d="m150 53.9h-150v-53.9h150zm-149.7-.2h149.5v-53.4h-149.5z" fill="none" opacity=".2"/></svg>