<svg enable-background="new 0 0 360 129.4" viewBox="0 0 360 129.4" xmlns="http://www.w3.org/2000/svg"><path d="m360 129.4h-360v-129.4h360zm-359.4-.6h358.8v-128.2h-358.8z" fill="none" opacity=".2"/><path d="m314.2 80.4c-.4 0-.6-.3-.6-.6 0-.1 0-.3 0-.4 0-.9 0-1.8 0-2.7 0-3.5 0-7.1 0-10.6.1-2.5.2-5 1.7-7.1 1.6-2.2 4.1-3.4 6.7-3.8 1.8-.3 3.7-.3 5.6-.3h5.5c.3 0 .6.3.6.6v3.3c0 .4-.3.6-.6.6-2.1 0-4.2 0-6.4 0-1.7.1-3.5.3-4.8 1.5s-1.5 2.8-1.6 4.4c-.1 2.4-.1 4.7-.1 7.1v7.3c0 .3-.3.6-.6.6h-5.4z" fill="#fffef9"/><path d="m156.9 55.1c-.4 0-.7.3-.7.7v23c0 1.2.1 2.4-.3 3.5-.6 1.8-2.2 2.4-3.9 2.6-.8.1-1.5.1-2.3.1-.4 0-.7 0-1.1 0-.3 0-.5.3-.5.6v3.8c0 .3.3.6.6.6 2 0 4 .1 6-.1 1.6-.2 3.2-.4 4.6-1.2 2.2-1.1 3.1-3.4 3.4-5.7.2-1.8.1-3.7.1-5.5 0-1.9 0-17.7 0-21.6 0-.4-.3-.7-.7-.7h-5.2z" fill="#fffef9"/><path d="m156.2 50.9v-4.9c0-.3.3-.6.6-.6h5.4c.3 0 .6.3.6.6v4.9c0 .3-.3.6-.6.6h-5.4c-.3 0-.6-.2-.6-.6z" fill="#fffef9"/><path d="m225.6 75.7h.2c1-.2 1.7-.9 1.9-1.9s0-2.3-.7-3c-.9-.9-2.3-.7-3.5-.7-1.7 0-3.5 0-5.2 0-4.7 0-12.1.9-13.9-4.8-.7-2.1-.5-4.7.4-6.7.9-1.9 2.7-3 4.7-3.3 1.8-.2 3.7-.2 5.5-.2 2 0 4 0 6-.1 3.8 0 7.7-.1 11.5-.1.3 0 .6.3.6.6v3.5c0 .3-.3.6-.6.6h-15.2c-1.6 0-3.3-.2-4.9.2-1 .3-1.8.9-2 1.9-.2.9 0 2.2.7 2.9 1 .9 2.5.7 3.7.7h10.6c1.4 0 2.9.1 4.3.5 2 .7 3.5 2.1 4.1 4.2.7 2.3.7 5.2-.5 7.4-1.1 2-3.2 2.7-5.3 3-1.9.2-3.8.1-5.8.2-2 0-4 0-5.9 0-3.6 0-7.2 0-10.8 0-.3 0-.6-.3-.6-.6v-3.5c0-.3.3-.6.6-.6z" fill="#fffef9"/><path d="m184.2 80.7c-3.7-.1-7.6-.1-11-1.8-2.5-1.2-4.3-3.3-5.2-5.9-2-5.6-.8-13.2 4.7-16.3 2.9-1.6 6.5-1.9 9.7-2 2.1-.1 4.1 0 6.2.2 1.7.2 3.3.3 4.9.9 2.5.8 4.6 2.5 6 4.7 1.6 2.6 1.9 5.8 1.7 8.7-.3 3.7-2 7.3-5.3 9.2-3.5 2.2-7.8 2.3-11.7 2.3zm-.1-5.1c2.3 0 4.6.2 6.7-.8 1.6-.7 2.8-2 3.4-3.6.7-2 .7-4.7.2-6.7-.4-1.6-1.5-2.9-3-3.7-2-1-4.5-1.2-6.7-1.2-1.3 0-2.6.1-3.9.2-1.1.1-2.2.3-3.3.7-3.8 1.6-4.5 6.8-3.5 10.4.5 1.6 1.5 3 3 3.8 2.3 1.1 4.7.9 7.1.9z" fill="#fffef9"/><path d="m292.5 80.7c-3.7-.1-7.6-.1-11-1.8-2.5-1.2-4.3-3.3-5.2-5.9-2-5.6-.8-13.2 4.7-16.3 2.9-1.6 6.5-1.9 9.7-2 2.1-.1 4.1 0 6.2.2 1.7.2 3.3.3 4.9.9 2.5.8 4.6 2.5 6 4.7 1.6 2.6 1.9 5.8 1.7 8.7-.3 3.7-2 7.3-5.3 9.2-3.5 2.2-7.8 2.3-11.7 2.3zm-.1-5.1c2.3 0 4.6.2 6.7-.8 1.6-.7 2.8-2 3.4-3.6.7-2 .7-4.7.2-6.7-.4-1.6-1.5-2.9-3-3.7-2-1-4.5-1.2-6.7-1.2-1.3 0-2.6.1-3.9.2-1.1.1-2.2.3-3.3.7-3.8 1.6-4.5 6.8-3.5 10.4.5 1.6 1.5 3 3 3.8 2.3 1.1 4.7.9 7.1.9z" fill="#fffef9"/><path d="m255.1 80.7c-3.7-.1-7.6-.1-11-1.8-2.5-1.2-4.3-3.3-5.2-5.9-2-5.6-.8-13.2 4.7-16.3 2.9-1.6 6.5-1.9 9.7-2 2.1-.1 4.1 0 6.2.2 1.7.2 3.3.3 4.9.9 2.5.8 4.6 2.5 6 4.7 1.6 2.6 1.9 5.8 1.7 8.7-.3 3.7-2 7.3-5.3 9.2-3.6 2.2-7.8 2.3-11.7 2.3zm-.1-5.1c2.3 0 4.6.2 6.7-.8 1.6-.7 2.8-2 3.4-3.6.7-2 .7-4.7.2-6.7-.4-1.6-1.5-2.9-3-3.7-2-1-4.5-1.2-6.7-1.2-1.3 0-2.6.1-3.9.2-1.1.1-2.2.3-3.3.7-3.8 1.6-4.5 6.8-3.5 10.4.5 1.6 1.5 3 3 3.8 2.3 1.1 4.7.9 7.1.9z" fill="#fffef9"/><g fill="#eca77a"><path d="m84.6 102.9c-.3 0-.6-.1-.8-.1.2 0 .5 0 .8.1z"/><path d="m86.8 103.1c-.4 0-.9-.1-1.3-.1.4 0 .9.1 1.3.1z"/><path d="m88.6 103.2c-.5 0-.9 0-1.4-.1.5.1 1 .1 1.4.1z"/><path d="m61.1 89.8c-1.5-2-2.7-4-3.7-6 0 0 1.1 2.6 3.7 6z"/><path d="m90.5 103.2c-.6 0-1.2 0-1.8 0z"/><path d="m87.3 103.1c-.2 0-.3 0-.5 0z"/><path d="m83.2 90.4 1 .2c1.2.3 2.5.5 3.8.6.9.1 1.8.1 2.7.1h1.6c.3-.4.6-.7.9-1 0 0 .1-.1.1-.1 6.1-7.3 9.5-16.7 9.5-26.6v-29.9c0-.3.3-.6.6-.6h18.3c.3 0 .6.3.6.6v30.1c0 9.7-4 18.7-11 24.9-2.1 1.8-4.3 3.3-6.7 4.5-3.2 1.6-6.6 2.5-10.2 2.9-.7.1-1.3.1-2 .2-.6 0-1.3 0-1.9 0-.4 0-.8 0-1.1 0-.6 0-1.2 0-1.7-.1-5.6-.4-10.9-2.6-10.9-2.6-2.1-1-4-2.1-5.6-3.4-3.1-2.5-5.4-5.5-7-8.5-.8-1.5-1.5-3.1-2.1-4.6-2.3-6.2-2.4-11.7-2.4-12.2v-2.8c0-.3-.3-.6-.6-.6h-32.2c-.3 0-.6.3-.6.6v2.9c0 7.7 3 19.7 11.5 28.2 6.8 6.7 15.6 10.2 26.4 10.2h.2c1.6 0 3.1-.1 4.6-.3-3.3-1.8-5.9-3.9-7.9-5.8-.4-.3-.7-.7-1-1 0 0-.1-.1-.1-.1-6.9-.8-12.6-3.4-17.2-7.9-5.7-5.7-8.4-13.3-9.3-19.3-.1-.4.2-.7.6-.7h18.3c.3 0 .6.2.6.5.3 2.6 1 6.3 2.4 10.3.5 1.5 1.2 3.1 2 4.7 1 2 2.2 4 3.7 6 3.8 4.9 10.9 11.2 22.6 13 .3 0 .6.1.8.1.3 0 .6.1.9.1.4 0 .9.1 1.3.1h.5c.4 0 .9.1 1.4.1h1.8.3 1.7c1.1 0 2.1-.1 3.1-.2 1.1-.1 2.2-.3 3.3-.5 6.3-1.3 12.1-4.1 17.1-8.6 8.5-7.5 13.3-18.4 13.3-30.1v-37c0-.3-.3-.6-.6-.6h-32.2c-.3 0-.6.3-.6.6v36.7c0 8.3-2.8 16.1-7.9 22.1-.3.3-.5.6-.8.9-1.2 1.3-2.5 2.5-3.8 3.6l-.2.1c0 .1 0 .2.1.2z"/><path d="m85.5 103c-.3 0-.6-.1-.9-.1.3 0 .6 0 .9.1z"/><path d="m88.2 65.2-8.5 8.5c-.4.4-1.1.4-1.5 0l-8.5-8.5c-.4-.4-.4-1.1 0-1.5l8.5-8.5c.4-.4 1.1-.4 1.5 0l8.5 8.5c.4.4.4 1.1 0 1.5z"/></g></svg>