<?xml version="1.0" encoding="utf-8"?>
<!-- Generator: Adobe Illustrator 18.1.1, SVG Export Plug-In . SVG Version: 6.00 Build 0)  -->
<svg version="1.1" id="Ebene_1" xmlns="http://www.w3.org/2000/svg" xmlns:xlink="http://www.w3.org/1999/xlink" x="0px" y="0px"
	 viewBox="0 0 150 53.9" enable-background="new 0 0 150 53.9" xml:space="preserve">
<g>
	<g>
		<g>
			<g>
				<path fill="#484C54" d="M130.9,33.4c-0.1,0-0.3-0.1-0.3-0.3c0-0.1,0-0.1,0-0.2c0-0.4,0-0.7,0-1.1c0-1.5,0-2.9,0-4.4
					c0-1,0.1-2.1,0.7-3c0.6-0.9,1.7-1.4,2.8-1.6c0.8-0.1,1.6-0.1,2.3-0.1c0.8,0,1.5,0,2.3,0c0.1,0,0.3,0.1,0.3,0.3v1.4
					c0,0.1-0.1,0.3-0.3,0.3c-0.9,0-1.8,0-2.7,0c-0.7,0-1.5,0.1-2,0.6c-0.5,0.5-0.6,1.2-0.7,1.9c0,1,0,2,0,2.9c0,1,0,2,0,3.1
					c0,0.1-0.1,0.3-0.3,0.3H130.9z"/>
			</g>
			<g>
				<path fill="#484C54" d="M65.3,22.9c-0.2,0-0.3,0.1-0.3,0.3c0,1.7,0,9,0,9.6c0,0.5,0,1-0.1,1.5c-0.2,0.7-0.9,1-1.6,1.1
					c-0.3,0-0.6,0-1,0.1c-0.1,0-0.3,0-0.4,0l0,0c-0.1,0-0.2,0.1-0.2,0.2v1.6c0,0.1,0.1,0.2,0.2,0.2c0.8,0,1.7,0.1,2.5,0
					c0.7-0.1,1.3-0.2,1.9-0.5c0.9-0.5,1.3-1.4,1.4-2.4c0.1-0.8,0.1-1.5,0.1-2.3c0-0.8,0-7.4,0-9c0-0.2-0.1-0.3-0.3-0.3H65.3z"/>
			</g>
			<g>
				<path fill="#484C54" d="M65,21.1v-2.1c0-0.1,0.1-0.3,0.3-0.3h2.2c0.1,0,0.3,0.1,0.3,0.3v2.1c0,0.1-0.1,0.3-0.3,0.3h-2.2
					C65.1,21.4,65,21.3,65,21.1z"/>
			</g>
			<g>
				<path fill="#484C54" d="M93.9,31.5C94,31.5,94,31.5,93.9,31.5c0.5-0.1,0.8-0.4,0.9-0.8c0.1-0.4,0-1-0.3-1.2
					c-0.4-0.4-1-0.3-1.5-0.3c-0.7,0-1.4,0-2.2,0c-2,0-5,0.4-5.8-2c-0.3-0.9-0.2-1.9,0.2-2.8c0.4-0.8,1.1-1.3,2-1.4
					c0.7-0.1,1.5-0.1,2.3-0.1c0.8,0,1.7,0,2.5,0c1.6,0,3.2,0,4.8,0c0.1,0,0.2,0.1,0.2,0.2v1.5c0,0.1-0.1,0.2-0.2,0.2l-6.4,0
					c-0.7,0-1.4-0.1-2.1,0.1c-0.4,0.1-0.8,0.4-0.8,0.8c-0.1,0.4,0,0.9,0.3,1.2c0.4,0.4,1,0.3,1.6,0.3l4.4,0c0.6,0,1.2,0,1.8,0.2
					c0.8,0.3,1.5,0.9,1.7,1.8c0.3,0.9,0.3,2.2-0.2,3.1c-0.5,0.8-1.3,1.1-2.2,1.3c-0.8,0.1-1.6,0.1-2.4,0.1c-0.8,0-1.7,0-2.5,0
					c-1.5,0-3,0-4.5,0c-0.1,0-0.3-0.1-0.3-0.3v-1.4c0-0.1,0.1-0.2,0.2-0.2L93.9,31.5z"/>
			</g>
			<g>
				<path fill="#484C54" d="M76.7,33.6c-1.6-0.1-3.2,0-4.6-0.8c-1-0.5-1.8-1.4-2.2-2.5c-0.8-2.3-0.3-5.5,2-6.8
					c1.2-0.7,2.7-0.8,4.1-0.8c0.9,0,1.7,0,2.6,0.1c0.7,0.1,1.4,0.1,2.1,0.4c1,0.3,1.9,1,2.5,2c0.6,1.1,0.8,2.4,0.7,3.6
					c-0.1,1.6-0.8,3-2.2,3.9C80.1,33.5,78.3,33.6,76.7,33.6z M76.6,31.5C76.6,31.5,76.6,31.4,76.6,31.5c0.9,0,1.9,0.1,2.8-0.3
					c0.7-0.3,1.2-0.8,1.4-1.5c0.3-0.8,0.3-2,0.1-2.8c-0.2-0.7-0.6-1.2-1.2-1.5c-0.8-0.4-1.9-0.5-2.8-0.5c-0.5,0-1.1,0-1.6,0.1
					c-0.5,0.1-0.9,0.1-1.4,0.3c-1.6,0.7-1.9,2.8-1.4,4.3c0.2,0.7,0.6,1.2,1.3,1.6C74.6,31.5,75.6,31.5,76.6,31.5z"/>
			</g>
			<g>
				<path fill="#484C54" d="M121.9,33.6c-1.6-0.1-3.2,0-4.6-0.8c-1-0.5-1.8-1.4-2.2-2.5c-0.8-2.3-0.3-5.5,2-6.8
					c1.2-0.7,2.7-0.8,4.1-0.8c0.9,0,1.7,0,2.6,0.1c0.7,0.1,1.4,0.1,2.1,0.4c1,0.3,1.9,1,2.5,2c0.6,1.1,0.8,2.4,0.7,3.6
					c-0.1,1.6-0.8,3-2.2,3.9C125.3,33.5,123.5,33.6,121.9,33.6z M121.8,31.5C121.8,31.5,121.8,31.4,121.8,31.5
					c0.9,0,1.9,0.1,2.8-0.3c0.7-0.3,1.2-0.8,1.4-1.5c0.3-0.8,0.3-2,0.1-2.8c-0.2-0.7-0.6-1.2-1.2-1.5c-0.8-0.4-1.9-0.5-2.8-0.5
					c-0.5,0-1.1,0-1.6,0.1c-0.5,0.1-0.9,0.1-1.4,0.3c-1.6,0.7-1.9,2.8-1.4,4.3c0.2,0.7,0.6,1.2,1.3,1.6
					C119.8,31.5,120.8,31.5,121.8,31.5z"/>
			</g>
			<g>
				<path fill="#484C54" d="M106.2,33.6c-1.6-0.1-3.2,0-4.6-0.8c-1-0.5-1.8-1.4-2.2-2.5c-0.8-2.3-0.3-5.5,2-6.8
					c1.2-0.7,2.7-0.8,4.1-0.8c0.9,0,1.7,0,2.6,0.1c0.7,0.1,1.4,0.1,2.1,0.4c1,0.3,1.9,1,2.5,2c0.6,1.1,0.8,2.4,0.7,3.6
					c-0.1,1.6-0.8,3-2.2,3.9C109.7,33.5,107.9,33.6,106.2,33.6z M106.2,31.5C106.2,31.5,106.2,31.4,106.2,31.5
					c0.9,0,1.9,0.1,2.8-0.3c0.7-0.3,1.2-0.8,1.4-1.5c0.3-0.8,0.3-2,0.1-2.8c-0.2-0.7-0.6-1.2-1.2-1.5c-0.8-0.4-1.9-0.5-2.8-0.5
					c-0.5,0-1.1,0-1.6,0.1c-0.5,0.1-0.9,0.1-1.4,0.3c-1.6,0.7-1.9,2.8-1.4,4.3c0.2,0.7,0.6,1.2,1.3,1.6
					C104.2,31.5,105.2,31.5,106.2,31.5z"/>
			</g>
		</g>
		<g>
			<g>
				<g>
					<path fill="#EEAF7A" d="M35.1,42.8c-0.1,0-0.2,0-0.3,0C34.9,42.8,35,42.8,35.1,42.8z"/>
					<path fill="#EEAF7A" d="M36.1,42.9c-0.2,0-0.4,0-0.6-0.1C35.7,42.9,35.9,42.9,36.1,42.9z"/>
					<path fill="#EEAF7A" d="M36.8,42.9c-0.2,0-0.4,0-0.6,0C36.4,42.9,36.6,42.9,36.8,42.9z"/>
					<polygon fill="#EEAF7A" points="37.6,43 37.6,43 37.6,43 					"/>
					<path fill="#EEAF7A" d="M25.4,37.3c-0.6-0.8-1.1-1.7-1.5-2.5C23.8,34.9,24.3,36,25.4,37.3z"/>
					<path fill="#EEAF7A" d="M37.6,43c-0.3,0-0.5,0-0.8,0C37.1,43,37.3,43,37.6,43z"/>
					<path fill="#EEAF7A" d="M36.3,42.9c-0.1,0-0.1,0-0.2,0C36.1,42.9,36.2,42.9,36.3,42.9z"/>
					<path fill="#EEAF7A" d="M34.5,37.6l0.4,0.1c0.5,0.1,1,0.2,1.6,0.2c0.4,0,0.7,0,1.1,0c0.2,0,0.4,0,0.6,0
						c0.1-0.2,0.3-0.3,0.4-0.4c0,0,0,0,0,0c2.6-3,4-7,4-11.1V14c0-0.1,0.1-0.3,0.3-0.3h7.6c0.1,0,0.3,0.1,0.3,0.3v12.6
						c0,4-1.7,7.8-4.6,10.4c-0.9,0.8-1.8,1.4-2.8,1.9c-1.3,0.7-2.7,1.1-4.3,1.2c-0.3,0-0.6,0.1-0.8,0.1c0,0,0,0,0,0
						c-0.3,0-0.5,0-0.8,0c-0.2,0-0.3,0-0.5,0c-0.2,0-0.5,0-0.7,0c-2.4-0.2-4.5-1.1-4.5-1.1c-0.9-0.4-1.7-0.9-2.3-1.4
						c-1.3-1-2.2-2.3-2.9-3.6c-0.3-0.6-0.6-1.3-0.9-1.9c-0.9-2.6-1-4.9-1-5.1l0-1.2c0-0.1-0.1-0.3-0.3-0.3H11.1
						c-0.1,0-0.3,0.1-0.3,0.3V27c0,3.2,1.3,8.2,4.8,11.8c2.8,2.8,6.5,4.2,11,4.2h0.1c0.7,0,1.3,0,1.9-0.1c-1.4-0.8-2.5-1.6-3.3-2.4
						c-0.1-0.1-0.3-0.3-0.4-0.4c0,0,0,0-0.1,0c-2.9-0.3-5.3-1.4-7.2-3.3c-2.3-2.3-3.5-5.5-3.8-8c0-0.2,0.1-0.3,0.3-0.3l7.6,0
						c0.1,0,0.2,0.1,0.2,0.2c0.1,1.1,0.4,2.6,1,4.3c0.2,0.6,0.5,1.3,0.8,1.9c0.4,0.8,0.9,1.7,1.5,2.5c1.6,2,4.5,4.7,9.4,5.4
						c0.1,0,0.2,0,0.3,0c0.1,0,0.2,0,0.4,0c0.2,0,0.4,0,0.6,0.1c0.1,0,0.1,0,0.2,0c0.2,0,0.4,0,0.6,0c0.3,0,0.5,0,0.8,0c0,0,0,0,0,0
						c0,0,0.1,0,0.1,0c0.2,0,0.5,0,0.7,0c0.4,0,0.9-0.1,1.3-0.1c0.5-0.1,0.9-0.1,1.4-0.2c2.6-0.5,5-1.7,7.1-3.6
						c3.5-3.1,5.5-7.7,5.5-12.5V11.1c0-0.1-0.1-0.3-0.3-0.3H40.1c-0.1,0-0.3,0.1-0.3,0.3v15.3c0,3.4-1.2,6.7-3.3,9.2
						c-0.1,0.1-0.2,0.3-0.3,0.4c-0.5,0.6-1,1-1.6,1.5L34.5,37.6C34.5,37.6,34.5,37.6,34.5,37.6z"/>
					<path fill="#EEAF7A" d="M35.5,42.9c-0.1,0-0.2,0-0.4,0C35.3,42.8,35.4,42.8,35.5,42.9z"/>
				</g>
			</g>
			<path fill="#EEAF7A" d="M36.7,27.1l-3.5,3.5c-0.2,0.2-0.5,0.2-0.6,0l-3.5-3.5c-0.2-0.2-0.2-0.5,0-0.6l3.5-3.5
				c0.2-0.2,0.5-0.2,0.6,0l3.5,3.5C36.8,26.7,36.8,26.9,36.7,27.1z"/>
		</g>
	</g>
	<g opacity="0.2">
		<path fill="none" d="M150,53.9H0V0h150V53.9z M0.3,53.7h149.5V0.3H0.3V53.7z"/>
	</g>
</g>
</svg>
