<?xml version="1.0" encoding="utf-8"?>
<!-- Generator: Adobe Illustrator 21.1.0, SVG Export Plug-In . SVG Version: 6.00 Build 0)  -->
<svg version="1.1" id="Layer_1" xmlns="http://www.w3.org/2000/svg" xmlns:xlink="http://www.w3.org/1999/xlink" x="0px" y="0px"
	 viewBox="0 0 360 129.4" style="enable-background:new 0 0 360 129.4;" xml:space="preserve">
<style type="text/css">
	.st0{opacity:0.2;}
	.st1{fill:none;}
	.st2{fill:#FFFEF9;}
	.st3{fill:#ECA77A;}
</style>
<g class="st0">
	<path class="st1" d="M360,129.4H0V0h360V129.4z M0.6,128.8h358.8V0.6H0.6V128.8z"/>
</g>
<g>
	<g>
		<g>
			<path class="st2" d="M314.2,80.4c-0.4,0-0.6-0.3-0.6-0.6c0-0.1,0-0.3,0-0.4c0-0.9,0-1.8,0-2.7c0-3.5,0-7.1,0-10.6
				c0.1-2.5,0.2-5,1.7-7.1c1.6-2.2,4.1-3.4,6.7-3.8c1.8-0.3,3.7-0.3,5.6-0.3c1.8,0,3.6,0,5.5,0c0.3,0,0.6,0.3,0.6,0.6v3.3
				c0,0.4-0.3,0.6-0.6,0.6c-2.1,0-4.2,0-6.4,0c-1.7,0.1-3.5,0.3-4.8,1.5c-1.3,1.2-1.5,2.8-1.6,4.4c-0.1,2.4-0.1,4.7-0.1,7.1
				c0,2.4,0,4.9,0,7.3c0,0.3-0.3,0.6-0.6,0.6H314.2z"/>
		</g>
		<g>
			<path class="st2" d="M156.9,55.1c-0.4,0-0.7,0.3-0.7,0.7c0,4,0,21.6,0,23c0,1.2,0.1,2.4-0.3,3.5c-0.6,1.8-2.2,2.4-3.9,2.6
				c-0.8,0.1-1.5,0.1-2.3,0.1c-0.4,0-0.7,0-1.1,0l0,0c-0.3,0-0.5,0.3-0.5,0.6v3.8c0,0.3,0.3,0.6,0.6,0.6c2,0,4,0.1,6-0.1
				c1.6-0.2,3.2-0.4,4.6-1.2c2.2-1.1,3.1-3.4,3.4-5.7c0.2-1.8,0.1-3.7,0.1-5.5c0-1.9,0-17.7,0-21.6c0-0.4-0.3-0.7-0.7-0.7H156.9z"/>
		</g>
		<g>
			<path class="st2" d="M156.2,50.9V46c0-0.3,0.3-0.6,0.6-0.6h5.4c0.3,0,0.6,0.3,0.6,0.6v4.9c0,0.3-0.3,0.6-0.6,0.6h-5.4
				C156.5,51.5,156.2,51.3,156.2,50.9z"/>
		</g>
		<g>
			<path class="st2" d="M225.6,75.7c0.1,0,0.1,0,0.2,0c1-0.2,1.7-0.9,1.9-1.9c0.2-1,0-2.3-0.7-3c-0.9-0.9-2.3-0.7-3.5-0.7
				c-1.7,0-3.5,0-5.2,0c-4.7,0-12.1,0.9-13.9-4.8c-0.7-2.1-0.5-4.7,0.4-6.7c0.9-1.9,2.7-3,4.7-3.3c1.8-0.2,3.7-0.2,5.5-0.2
				c2,0,4,0,6-0.1c3.8,0,7.7-0.1,11.5-0.1c0.3,0,0.6,0.3,0.6,0.6V59c0,0.3-0.3,0.6-0.6,0.6l-15.2,0c-1.6,0-3.3-0.2-4.9,0.2
				c-1,0.3-1.8,0.9-2,1.9c-0.2,0.9,0,2.2,0.7,2.9c1,0.9,2.5,0.7,3.7,0.7l10.6,0c1.4,0,2.9,0.1,4.3,0.5c2,0.7,3.5,2.1,4.1,4.2
				c0.7,2.3,0.7,5.2-0.5,7.4c-1.1,2-3.2,2.7-5.3,3c-1.9,0.2-3.8,0.1-5.8,0.2c-2,0-4,0-5.9,0c-3.6,0-7.2,0-10.8,0
				c-0.3,0-0.6-0.3-0.6-0.6v-3.5c0-0.3,0.3-0.6,0.6-0.6L225.6,75.7z"/>
		</g>
		<g>
			<path class="st2" d="M184.2,80.7c-3.7-0.1-7.6-0.1-11-1.8c-2.5-1.2-4.3-3.3-5.2-5.9c-2-5.6-0.8-13.2,4.7-16.3
				c2.9-1.6,6.5-1.9,9.7-2c2.1-0.1,4.1,0,6.2,0.2c1.7,0.2,3.3,0.3,4.9,0.9c2.5,0.8,4.6,2.5,6,4.7c1.6,2.6,1.9,5.8,1.7,8.7
				c-0.3,3.7-2,7.3-5.3,9.2C192.4,80.6,188.1,80.7,184.2,80.7z M184.1,75.6C184.1,75.7,184.1,75.6,184.1,75.6c2.3,0,4.6,0.2,6.7-0.8
				c1.6-0.7,2.8-2,3.4-3.6c0.7-2,0.7-4.7,0.2-6.7c-0.4-1.6-1.5-2.9-3-3.7c-2-1-4.5-1.2-6.7-1.2c-1.3,0-2.6,0.1-3.9,0.2
				c-1.1,0.1-2.2,0.3-3.3,0.7c-3.8,1.6-4.5,6.8-3.5,10.4c0.5,1.6,1.5,3,3,3.8C179.3,75.8,181.7,75.6,184.1,75.6z"/>
		</g>
		<g>
			<path class="st2" d="M292.5,80.7c-3.7-0.1-7.6-0.1-11-1.8c-2.5-1.2-4.3-3.3-5.2-5.9c-2-5.6-0.8-13.2,4.7-16.3
				c2.9-1.6,6.5-1.9,9.7-2c2.1-0.1,4.1,0,6.2,0.2c1.7,0.2,3.3,0.3,4.9,0.9c2.5,0.8,4.6,2.5,6,4.7c1.6,2.6,1.9,5.8,1.7,8.7
				c-0.3,3.7-2,7.3-5.3,9.2C300.7,80.6,296.4,80.7,292.5,80.7z M292.4,75.6C292.4,75.7,292.4,75.6,292.4,75.6c2.3,0,4.6,0.2,6.7-0.8
				c1.6-0.7,2.8-2,3.4-3.6c0.7-2,0.7-4.7,0.2-6.7c-0.4-1.6-1.5-2.9-3-3.7c-2-1-4.5-1.2-6.7-1.2c-1.3,0-2.6,0.1-3.9,0.2
				c-1.1,0.1-2.2,0.3-3.3,0.7c-3.8,1.6-4.5,6.8-3.5,10.4c0.5,1.6,1.5,3,3,3.8C287.6,75.8,290,75.6,292.4,75.6z"/>
		</g>
		<g>
			<path class="st2" d="M255.1,80.7c-3.7-0.1-7.6-0.1-11-1.8c-2.5-1.2-4.3-3.3-5.2-5.9c-2-5.6-0.8-13.2,4.7-16.3
				c2.9-1.6,6.5-1.9,9.7-2c2.1-0.1,4.1,0,6.2,0.2c1.7,0.2,3.3,0.3,4.9,0.9c2.5,0.8,4.6,2.5,6,4.7c1.6,2.6,1.9,5.8,1.7,8.7
				c-0.3,3.7-2,7.3-5.3,9.2C263.2,80.6,259,80.7,255.1,80.7z M255,75.6C255,75.7,255,75.6,255,75.6c2.3,0,4.6,0.2,6.7-0.8
				c1.6-0.7,2.8-2,3.4-3.6c0.7-2,0.7-4.7,0.2-6.7c-0.4-1.6-1.5-2.9-3-3.7c-2-1-4.5-1.2-6.7-1.2c-1.3,0-2.6,0.1-3.9,0.2
				c-1.1,0.1-2.2,0.3-3.3,0.7c-3.8,1.6-4.5,6.8-3.5,10.4c0.5,1.6,1.5,3,3,3.8C250.2,75.8,252.6,75.6,255,75.6z"/>
		</g>
	</g>
	<g>
		<g>
			<g>
				<path class="st3" d="M84.6,102.9c-0.3,0-0.6-0.1-0.8-0.1C84,102.8,84.3,102.8,84.6,102.9z"/>
				<path class="st3" d="M86.8,103.1c-0.4,0-0.9-0.1-1.3-0.1C85.9,103,86.4,103.1,86.8,103.1z"/>
				<path class="st3" d="M88.6,103.2c-0.5,0-0.9,0-1.4-0.1C87.7,103.2,88.2,103.2,88.6,103.2z"/>
				<path class="st3" d="M90.5,103.2C90.5,103.2,90.5,103.2,90.5,103.2C90.5,103.2,90.5,103.2,90.5,103.2
					C90.5,103.2,90.5,103.2,90.5,103.2z"/>
				<path class="st3" d="M61.1,89.8c-1.5-2-2.7-4-3.7-6C57.4,83.8,58.5,86.4,61.1,89.8z"/>
				<path class="st3" d="M90.5,103.2c-0.6,0-1.2,0-1.8,0C89.2,103.2,89.8,103.2,90.5,103.2z"/>
				<path class="st3" d="M87.3,103.1c-0.2,0-0.3,0-0.5,0C87,103.1,87.1,103.1,87.3,103.1z"/>
				<path class="st3" d="M83.2,90.4l1,0.2c1.2,0.3,2.5,0.5,3.8,0.6c0.9,0.1,1.8,0.1,2.7,0.1c0.6,0,1.1,0,1.6,0
					c0.3-0.4,0.6-0.7,0.9-1c0,0,0.1-0.1,0.1-0.1c6.1-7.3,9.5-16.7,9.5-26.6V33.7c0-0.3,0.3-0.6,0.6-0.6h18.3c0.3,0,0.6,0.3,0.6,0.6
					v30.1c0,9.7-4,18.7-11,24.9c-2.1,1.8-4.3,3.3-6.7,4.5c-3.2,1.6-6.6,2.5-10.2,2.9c-0.7,0.1-1.3,0.1-2,0.2c0,0,0,0,0,0
					c-0.6,0-1.3,0-1.9,0c-0.4,0-0.8,0-1.1,0c-0.6,0-1.2,0-1.7-0.1c-5.6-0.4-10.9-2.6-10.9-2.6c-2.1-1-4-2.1-5.6-3.4
					c-3.1-2.5-5.4-5.5-7-8.5c-0.8-1.5-1.5-3.1-2.1-4.6c-2.3-6.2-2.4-11.7-2.4-12.2l0-2.8c0-0.3-0.3-0.6-0.6-0.6H26.9
					c-0.3,0-0.6,0.3-0.6,0.6v2.9c0,7.7,3,19.7,11.5,28.2c6.8,6.7,15.6,10.2,26.4,10.2h0.2c1.6,0,3.1-0.1,4.6-0.3
					c-3.3-1.8-5.9-3.9-7.9-5.8c-0.4-0.3-0.7-0.7-1-1c0,0-0.1-0.1-0.1-0.1c-6.9-0.8-12.6-3.4-17.2-7.9C37.1,82.6,34.4,75,33.5,69
					c-0.1-0.4,0.2-0.7,0.6-0.7l18.3,0c0.3,0,0.6,0.2,0.6,0.5c0.3,2.6,1,6.3,2.4,10.3c0.5,1.5,1.2,3.1,2,4.7c1,2,2.2,4,3.7,6
					c3.8,4.9,10.9,11.2,22.6,13c0.3,0,0.6,0.1,0.8,0.1c0.3,0,0.6,0.1,0.9,0.1c0.4,0,0.9,0.1,1.3,0.1c0.2,0,0.3,0,0.5,0
					c0.4,0,0.9,0.1,1.4,0.1c0.6,0,1.2,0,1.8,0c0,0,0,0,0,0c0.1,0,0.2,0,0.3,0c0.6,0,1.1,0,1.7,0c1.1,0,2.1-0.1,3.1-0.2
					c1.1-0.1,2.2-0.3,3.3-0.5c6.3-1.3,12.1-4.1,17.1-8.6c8.5-7.5,13.3-18.4,13.3-30.1V26.8c0-0.3-0.3-0.6-0.6-0.6H96.4
					c-0.3,0-0.6,0.3-0.6,0.6v36.7c0,8.3-2.8,16.1-7.9,22.1c-0.3,0.3-0.5,0.6-0.8,0.9c-1.2,1.3-2.5,2.5-3.8,3.6l-0.2,0.1
					C83.1,90.3,83.1,90.4,83.2,90.4z"/>
				<path class="st3" d="M85.5,103c-0.3,0-0.6-0.1-0.9-0.1C84.9,102.9,85.2,102.9,85.5,103z"/>
			</g>
		</g>
		<path class="st3" d="M88.2,65.2l-8.5,8.5c-0.4,0.4-1.1,0.4-1.5,0l-8.5-8.5c-0.4-0.4-0.4-1.1,0-1.5l8.5-8.5c0.4-0.4,1.1-0.4,1.5,0
			l8.5,8.5C88.6,64.1,88.6,64.8,88.2,65.2z"/>
	</g>
</g>
</svg>
