<svg id="Layer_1" data-name="Layer 1" xmlns="http://www.w3.org/2000/svg" viewBox="0 0 305.8008 222.0022"><defs><style>.cls-1{fill:#7fa4cb;}.cls-2{fill:#474d57;}</style></defs><title>josoor-answers-logo</title><path class="cls-1" d="M162.8008,123.699c-.4485-.0576-.9026-.11-1.3432-.1751C161.8966,123.591,162.3538,123.64,162.8008,123.699Z"/><path class="cls-1" d="M166.3766,124.0747c-.72-.057-1.433-.1207-2.1338-.1964C164.9425,123.9557,165.6572,124.0173,166.3766,124.0747Z"/><path class="cls-1" d="M169.3263,124.2549c-.7443-.0308-1.4754-.0747-2.2-.1249C167.8517,124.18,168.5809,124.2258,169.3263,124.2549Z"/><path class="cls-1" d="M172.2953,124.3267h.002l-.0284-.0006Z"/><path class="cls-1" d="M124.9586,102.574a60.4227,60.4227,0,0,1-5.9354-9.6372A45.1421,45.1421,0,0,0,124.9586,102.574Z"/><path class="cls-1" d="M172.2689,124.3261c-1.0019,0-1.9744-.0335-2.9426-.0712Q170.7736,124.3148,172.2689,124.3261Z"/><path class="cls-1" d="M167.1261,124.13q-.3764-.026-.75-.0553Q166.75,124.1041,167.1261,124.13Z"/><path class="cls-1" d="M160.5034,103.5609l1.69.3972a45.05,45.05,0,0,0,6.1362.9286c1.4313.1082,2.8787.163,4.302.163.8953,0,1.731-.0228,2.5084-.0586.5382-.59.99-1.0924,1.499-1.6882.0516-.06.1061-.1164.1573-.1772a66.5342,66.5342,0,0,0,15.3248-42.9127V12.1382a.9742.9742,0,0,1,.9742-.9742h29.514a.9742.9742,0,0,1,.9742.9742V60.754a53.3063,53.3063,0,0,1-17.6737,40.1079,49.3842,49.3842,0,0,1-10.7293,7.2458,48.3252,48.3252,0,0,1-16.4927,4.7388c-1.064.1135-2.1362.2066-3.2255.2571l-.0248.0011q-1.521.07-3.0743.058c-.6276-.0037-1.2413-.0217-1.8535-.0411-.947-.03-1.8818-.0722-2.7916-.1387a64.7688,64.7688,0,0,1-17.5654-4.2122,41.7949,41.7949,0,0,1-9.0806-5.5281A44.573,44.573,0,0,1,129.7708,89.505a55.6338,55.6338,0,0,1-3.3337-7.4587,64.3674,64.3674,0,0,1-3.8378-19.655l-.0213-4.5866a.9741.9741,0,0,0-.9741-.97H69.7831a.9742.9742,0,0,0-.9742.9742v4.6079c0,12.4337,4.8753,31.8141,18.6163,45.5125,10.9153,10.8816,25.2291,16.3982,42.551,16.3972h.2517a68.6751,68.6751,0,0,0,7.4058-.4259,63.1322,63.1322,0,0,1-12.78-9.3867c-.573-.5451-1.1219-1.09-1.6526-1.6325a.373.373,0,0,0-.2264-.11c-11.1115-1.24-20.4009-5.5047-27.668-12.7486-9.0849-9.0582-13.4649-21.1716-14.8391-30.9245a.9725.9725,0,0,1,.97-1.1h29.5288a.9731.9731,0,0,1,.9662.8548,79.867,79.867,0,0,0,3.9248,16.5707,69.3756,69.3756,0,0,0,3.1659,7.5123,60.4227,60.4227,0,0,0,5.9354,9.6372c6.1245,7.8365,17.5079,18.0478,36.4991,20.95.4406.0652.8947.1174,1.3432.1751.4774.0631.9552.1256,1.4419.1793.7008.0757,1.4139.1394,2.1338.1964q.3728.03.75.0553c.7248.05,1.4559.0941,2.2.1249.9681.0377,1.9407.0709,2.9426.0712l.0284.0006c.14.001.2765.001.4163.001.9035,0,1.7991-.0211,2.69-.0552,1.7068-.0655,3.3872-.2,5.0446-.3927q2.7085-.3153,5.3314-.8464a58.7785,58.7785,0,0,0,27.516-13.8,64.4733,64.4733,0,0,0,21.4519-48.48V.9742A.9742.9742,0,0,0,233.7729,0h-51.842a.9742.9742,0,0,0-.9742.9742V60.2128A55.3594,55.3594,0,0,1,168.2584,95.932c-.4208.5-.8563.9735-1.29,1.4513a49.5311,49.5311,0,0,1-6.16,5.7488l-.2753.2223C160.4167,103.4544,160.3868,103.538,160.5034,103.5609Z"/><path class="cls-1" d="M164.2427,123.8783c-.4867-.0538-.9646-.1162-1.4419-.1793C163.28,123.7605,163.7547,123.8256,164.2427,123.8783Z"/><rect class="cls-1" x="142.2376" y="50.3493" width="22.9123" height="22.9123" rx="1.7517" ry="1.7517" transform="translate(1.3128 126.7803) rotate(-45)"/><path class="cls-2" d="M27.957,193.9548h-.3623q-4.9761,5.7905-11.3994,5.79a13.528,13.528,0,0,1-9.5-3.3926,10.9884,10.9884,0,0,1-3.71-8.4595q0-13.66,24.7-14.8379v-1.1763q0-5.0654-2.1719-7.2378t-7.1475-2.1714q-6.5142,0-13.39,4.6143l-1.4482-6.6953A26.5561,26.5561,0,0,1,19.09,155.5935q8.3232,0,12.1689,3.7095t3.8457,11.7617v18.0044q0,2.625.6787,3.3477.6782.7251,3.3926.7236l-.4521,6.2427a8.753,8.753,0,0,0-.9053.0454c-.3027.03-.6035.0454-.9043.0454a10.6267,10.6267,0,0,1-6.0166-1.4478A7.4066,7.4066,0,0,1,27.957,193.9548Zm-.2715-4.9761V177.76q-9.2285,1.177-13.0283,3.3027t-3.8,5.9258a5.9542,5.9542,0,0,0,1.99,4.6143,7.6236,7.6236,0,0,0,5.3379,1.81A12.7221,12.7221,0,0,0,27.6855,188.9788Z"/><path class="cls-2" d="M82.4219,198.388H75.0029V172.3313q0-5.2463-2.0361-7.4189t-6.56-2.1714a15.2017,15.2017,0,0,0-10.8564,4.5234V198.388H48.1318V156.77l7.4189-1.1763v6.2427q6.2432-6.2432,13.48-6.2427,6.3325,0,9.8623,3.8,3.5273,3.8,3.5283,10.4951Z"/><path class="cls-2" d="M122.32,186.6106a11.8665,11.8665,0,0,1-4.3877,9.5566,16.9736,16.9736,0,0,1-11.2646,3.6685,26.5319,26.5319,0,0,1-14.4756-3.9429l1.9-6.8237a22.11,22.11,0,0,0,12.7568,3.89,10.3076,10.3076,0,0,0,5.9258-1.5732,4.9176,4.9176,0,0,0,2.3076-4.2734,4.6328,4.6328,0,0,0-.7246-2.563,5.7114,5.7114,0,0,0-2.3975-1.9326,29.7379,29.7379,0,0,0-2.94-1.2593q-1.2671-.45-3.709-1.08a24.8516,24.8516,0,0,1-8.9121-4.2271q-3.3926-2.6975-3.3926-7.8628a11.1793,11.1793,0,0,1,4.252-9.1509,16.2782,16.2782,0,0,1,10.5859-3.4434,29.201,29.201,0,0,1,13.39,3.1172l-1.8994,6.835a24.3051,24.3051,0,0,0-11.8525-3.0762,9.37,9.37,0,0,0-5.3379,1.35,4.3074,4.3074,0,0,0-1.99,3.7759,4.3677,4.3677,0,0,0,2.3975,4.0488,31.8178,31.8178,0,0,0,7.1924,2.6064,25.342,25.342,0,0,1,9.0928,4.2739Q122.3188,181.2683,122.32,186.6106Z"/><path class="cls-2" d="M147.3809,198.5691h-6.7861L127.8379,156.95H135.8l8.7764,30.7617,9.59-30.5806h6.7861l10.585,30.6709,7.6-30.8521H187.37l-12.4854,41.6187H168.1l-10.5859-30.9424Z"/><path class="cls-2" d="M200.1279,178.574v.3618a14.5054,14.5054,0,0,0,3.9355,10.043,12.9125,12.9125,0,0,0,9.7266,3.89,21.5525,21.5525,0,0,0,12.3945-3.438l1.3574,6.876q-5.61,3.4373-13.9336,3.438-9.3193,0-15.1543-6.0615t-5.8359-15.5615q0-9.9521,5.8359-16.24a19.1026,19.1026,0,0,1,14.6123-6.2881q7.4165,0,11.626,4.3428,4.207,4.3425,4.207,11.8521a22.7271,22.7271,0,0,1-.9053,6.6045Zm.3623-5.4287,21.2617-.1807v-.6333q0-4.7944-2.3525-7.5093t-7.0576-2.7144a10.783,10.783,0,0,0-8.1426,3.3022A13.24,13.24,0,0,0,200.49,173.1453Z"/><path class="cls-2" d="M247.084,171.3362V198.388H239.665V156.77l7.4189-1.1763v7.3281q4.6143-7.3279,11.5811-7.3281a14.44,14.44,0,0,1,7.78,2.0806l-1.8994,6.9668a12.6626,12.6626,0,0,0-6.6055-1.9Q251.6987,162.741,247.084,171.3362Z"/><path class="cls-2" d="M301.5488,186.6106a11.8665,11.8665,0,0,1-4.3877,9.5566,16.9736,16.9736,0,0,1-11.2646,3.6685,26.5319,26.5319,0,0,1-14.4756-3.9429l1.9-6.8237a22.11,22.11,0,0,0,12.7568,3.89,10.3076,10.3076,0,0,0,5.9258-1.5732,4.9176,4.9176,0,0,0,2.3076-4.2734,4.6328,4.6328,0,0,0-.7246-2.563,5.7114,5.7114,0,0,0-2.3975-1.9326,29.7379,29.7379,0,0,0-2.94-1.2593q-1.2671-.45-3.709-1.08a24.8516,24.8516,0,0,1-8.9121-4.2271q-3.3926-2.6975-3.3926-7.8628a11.1793,11.1793,0,0,1,4.252-9.1509,16.2782,16.2782,0,0,1,10.5859-3.4434,29.201,29.201,0,0,1,13.39,3.1172l-1.8994,6.835a24.3051,24.3051,0,0,0-11.8525-3.0762,9.37,9.37,0,0,0-5.3379,1.35,4.3074,4.3074,0,0,0-1.99,3.7759,4.3677,4.3677,0,0,0,2.3975,4.0488,31.8178,31.8178,0,0,0,7.1924,2.6064,25.342,25.342,0,0,1,9.0928,4.2739Q301.5474,181.2683,301.5488,186.6106Z"/></svg>