<svg id="Layer_1" data-name="Layer 1" xmlns="http://www.w3.org/2000/svg" viewBox="0 0 297.4795 222.0021"><defs><style>.cls-1{fill:#ed7779;}.cls-2{fill:#474d57;}</style></defs><title>josoor-connect-logo</title><path class="cls-1" d="M159.7625,123.699c-.4485-.0576-.9026-.11-1.3432-.1751C158.8582,123.591,159.3155,123.64,159.7625,123.699Z"/><path class="cls-1" d="M163.3382,124.0747c-.72-.057-1.433-.1207-2.1338-.1964C161.9042,123.9557,162.6189,124.0173,163.3382,124.0747Z"/><path class="cls-1" d="M166.2879,124.2549c-.7443-.0308-1.4754-.0747-2.2-.1249C164.8133,124.18,165.5426,124.2258,166.2879,124.2549Z"/><path class="cls-1" d="M169.2569,124.3267h.002l-.0284-.0006Z"/><path class="cls-1" d="M121.92,102.574a60.4227,60.4227,0,0,1-5.9354-9.6372A45.1421,45.1421,0,0,0,121.92,102.574Z"/><path class="cls-1" d="M169.2305,124.3261c-1.0019,0-1.9744-.0335-2.9426-.0712Q167.7352,124.3148,169.2305,124.3261Z"/><path class="cls-1" d="M164.0878,124.13q-.3764-.026-.75-.0553Q163.7112,124.1041,164.0878,124.13Z"/><path class="cls-1" d="M157.465,103.5609l1.69.3972a45.05,45.05,0,0,0,6.1362.9286c1.4313.1082,2.8787.163,4.302.163.8953,0,1.731-.0228,2.5084-.0586.5382-.59.99-1.0924,1.499-1.6882.0516-.06.1061-.1164.1573-.1772a66.5342,66.5342,0,0,0,15.3248-42.9127V12.1382a.9742.9742,0,0,1,.9742-.9742h29.514a.9742.9742,0,0,1,.9742.9742V60.754a53.3063,53.3063,0,0,1-17.6737,40.1079,49.3842,49.3842,0,0,1-10.7293,7.2458,48.3252,48.3252,0,0,1-16.4927,4.7388c-1.064.1135-2.1362.2066-3.2255.2571l-.0248.0011q-1.521.07-3.0743.058c-.6276-.0037-1.2413-.0217-1.8535-.0411-.947-.03-1.8818-.0722-2.7916-.1387a64.7688,64.7688,0,0,1-17.5654-4.2122,41.7949,41.7949,0,0,1-9.0806-5.5281A44.573,44.573,0,0,1,126.7324,89.505a55.6338,55.6338,0,0,1-3.3337-7.4587,64.3674,64.3674,0,0,1-3.8378-19.655l-.0213-4.5866a.9741.9741,0,0,0-.9741-.97H66.7447a.9742.9742,0,0,0-.9742.9742v4.6079c0,12.4337,4.8753,31.8141,18.6163,45.5125,10.9153,10.8816,25.2291,16.3982,42.551,16.3972h.2517a68.6751,68.6751,0,0,0,7.4058-.4259,63.1322,63.1322,0,0,1-12.78-9.3867c-.573-.5451-1.1219-1.09-1.6526-1.6325a.373.373,0,0,0-.2264-.11c-11.1115-1.24-20.4009-5.5047-27.668-12.7486-9.0849-9.0582-13.4649-21.1716-14.8391-30.9245a.9725.9725,0,0,1,.97-1.1h29.5288a.9731.9731,0,0,1,.9662.8548,79.8671,79.8671,0,0,0,3.9248,16.5707,69.3756,69.3756,0,0,0,3.1659,7.5123,60.4227,60.4227,0,0,0,5.9354,9.6372c6.1245,7.8365,17.5079,18.0478,36.4991,20.95.4406.0652.8947.1174,1.3432.1751.4774.0631.9552.1256,1.4419.1793.7008.0757,1.4139.1394,2.1338.1964q.3728.03.75.0553c.7248.05,1.4559.0941,2.2.1249.9681.0377,1.9407.0709,2.9426.0712l.0284.0006c.14.001.2765.001.4163.001.9035,0,1.7991-.0211,2.69-.0552,1.7068-.0655,3.3872-.2,5.0446-.3927q2.7085-.3153,5.3314-.8464a58.7785,58.7785,0,0,0,27.516-13.8,64.4733,64.4733,0,0,0,21.4519-48.48V.9742A.9742.9742,0,0,0,230.7346,0h-51.842a.9742.9742,0,0,0-.9742.9742V60.2128A55.3594,55.3594,0,0,1,165.22,95.932c-.4208.5-.8563.9735-1.29,1.4513a49.5311,49.5311,0,0,1-6.16,5.7488l-.2753.2223C157.3783,103.4544,157.3485,103.538,157.465,103.5609Z"/><path class="cls-1" d="M161.2044,123.8783c-.4867-.0538-.9646-.1162-1.4419-.1793C160.2414,123.7605,160.7164,123.8256,161.2044,123.8783Z"/><rect class="cls-1" x="139.1993" y="50.3493" width="22.9123" height="22.9123" rx="1.7517" ry="1.7517" transform="translate(0.4229 124.6319) rotate(-45)"/><path class="cls-2" d="M37.7275,196.3068a25.6743,25.6743,0,0,1-13.6611,3.438q-9.6826,0-15.0186-6.0166-5.3394-6.0154-5.3389-16.0591,0-9.8606,5.8809-15.9687a19.9449,19.9449,0,0,1,15.02-6.1069,24.9226,24.9226,0,0,1,13.39,3.5283L36.1,165.9074a19.9937,19.9937,0,0,0-11.49-3.438q-6.334,0-9.7715,4.0259-3.4395,4.0269-3.4385,11.0835,0,7.1477,3.5742,11.2188a11.9619,11.9619,0,0,0,9.4541,4.0713,20.7523,20.7523,0,0,0,11.9434-3.438Z"/><path class="cls-2" d="M84.8662,177.6691q0,9.8628-5.7451,15.9688a19.19,19.19,0,0,1-14.6123,6.1069,18.6847,18.6847,0,0,1-14.4307-6.0615q-5.5635-6.0608-5.5645-16.0142,0-9.9514,5.7-16.0591a19.2559,19.2559,0,0,1,14.748-6.1074q8.9561,0,14.4307,6.062Q84.8652,167.6269,84.8662,177.6691Zm-7.3291.09a17.4235,17.4235,0,0,0-3.4834-11.1733A11.4307,11.4307,0,0,0,64.6,162.1979,11.288,11.288,0,0,0,55.19,166.45q-3.3486,4.2539-3.3477,11.1284a17.2243,17.2243,0,0,0,3.4834,11.1284A11.4752,11.4752,0,0,0,64.78,193.05a11.34,11.34,0,0,0,9.4092-4.207Q77.5366,184.6359,77.5371,177.7594Z"/><path class="cls-2" d="M129.2891,198.3878H121.87V172.3312q0-5.2463-2.0361-7.4189t-6.56-2.1714a15.2017,15.2017,0,0,0-10.8564,4.5234v31.1235H94.999V156.77l7.4189-1.1763v6.2427q6.2432-6.2432,13.48-6.2427,6.3325,0,9.8623,3.8,3.5273,3.8,3.5283,10.4951Z"/><path class="cls-2" d="M176.0645,198.3878h-7.4189V172.3312q0-5.2463-2.0361-7.4189t-6.56-2.1714a15.2017,15.2017,0,0,0-10.8564,4.5234v31.1235h-7.4189V156.77l7.4189-1.1763v6.2427q6.2432-6.2432,13.48-6.2427,6.3325,0,9.8623,3.8,3.5273,3.8,3.5283,10.4951Z"/><path class="cls-2" d="M193.3447,178.5739v.3618a14.5054,14.5054,0,0,0,3.9355,10.043,12.9125,12.9125,0,0,0,9.7266,3.89,21.5525,21.5525,0,0,0,12.3945-3.438l1.3574,6.876q-5.61,3.4373-13.9336,3.438-9.3193,0-15.1543-6.0615t-5.8359-15.5615q0-9.9521,5.8359-16.24a19.1026,19.1026,0,0,1,14.6123-6.2881q7.4165,0,11.626,4.3428,4.207,4.3425,4.207,11.8521a22.7271,22.7271,0,0,1-.9053,6.6045Zm.3623-5.4287,21.2617-.1807v-.6333q0-4.7944-2.3525-7.5093t-7.0576-2.7144a10.783,10.783,0,0,0-8.1426,3.3022A13.24,13.24,0,0,0,193.707,173.1452Z"/><path class="cls-2" d="M263.2813,196.3068a25.6743,25.6743,0,0,1-13.6611,3.438q-9.6826,0-15.0186-6.0166-5.3394-6.0154-5.3389-16.0591,0-9.8606,5.8809-15.9687a19.9449,19.9449,0,0,1,15.02-6.1069,24.9226,24.9226,0,0,1,13.39,3.5283l-1.8994,6.7856a19.9937,19.9937,0,0,0-11.49-3.438q-6.334,0-9.7715,4.0259-3.4395,4.0269-3.4385,11.0835,0,7.1477,3.5742,11.2188a11.9619,11.9619,0,0,0,9.4541,4.0713,20.7523,20.7523,0,0,0,11.9434-3.438Z"/><path class="cls-2" d="M295.0381,197.9113a25.5459,25.5459,0,0,1-9.3193,1.8335q-12.0337,0-12.0332-12.1235v-.814l.6338-23.1616-6.876-.4526.2705-4.7046,6.877-2.0811.1807-8.957h7.1475l-.2715,9.5H294.585l-.2715,6.6953H281.376l-.6328,23.3608q-.1831,5.863,5.4277,5.8623a21.908,21.908,0,0,0,7.51-1.5381Z"/></svg>