<svg viewBox="0 0 23.6597 36.0144" xmlns="http://www.w3.org/2000/svg" xmlns:xlink="http://www.w3.org/1999/xlink"><clipPath id="a"><path clip-rule="evenodd" d="m22.437 5.723c-2.964-5.1344-10.2213-7.4558-16.8875-4.2624a9.24 9.24 0 0 0 -5.5163 7.7552 17.5468 17.5468 0 0 0 -.01 1.8971h7.85a3.7348 3.7348 0 0 1 .6428-2.6248 3.9524 3.9524 0 0 1 3.7134-1.6142 3.6233 3.6233 0 0 1 3.3027 2.1839 2.9793 2.9793 0 0 1 -.6249 3.6069 21.2481 21.2481 0 0 1 -1.7613 1.3675c-1.2206.8905-2.5006 1.7225-3.6719 2.6579a5.975 5.975 0 0 0 -2.511 4.2409c-.1032 1.5654-.0246 3.1407-.0236 4.713 0 .0224.0337.0459.0651.0868h7.7779c0-.4467.0168-.8466-.0034-1.2446a5.0239 5.0239 0 0 1 2.6577-4.6983 17.604 17.604 0 0 0 4.36-3.685 8.4086 8.4086 0 0 0 1.8433-4.9793 9.4171 9.4171 0 0 0 -1.203-5.4006m-3.609 11.008a23.0344 23.0344 0 0 1 -2.5927 1.8971 6.4247 6.4247 0 0 0 -3.241 5.0095c-.0135.1424-.0258.2848-.0415.4272-.0033.0253-.0291.0488-.0595.0995h-4.1723c.1189-1.6864-.3725-3.4128.7348-4.9822a10.2636 10.2636 0 0 1 2.6128-2.4238c1.0512-.7315 2.1282-1.4358 3.1659-2.1829a5.045 5.045 0 0 0 2.0339-2.217 4.7857 4.7857 0 0 0 -.9042-5.1919 5.9446 5.9446 0 0 0 -5.5779-1.79 5.3663 5.3663 0 0 0 -4.5313 3.79c-.0987.3-.2064.4155-.5822.4086-1.2609-.0218-2.5228-.0081-3.8165-.0081a7.94 7.94 0 0 1 5.2817-7.0647 11.4148 11.4148 0 0 1 11.5911 1.48 8.2078 8.2078 0 0 1 3.1278 6.9047 7.78 7.78 0 0 1 -3.029 5.8444"/></clipPath><clipPath id="b"><path d="m-.0003-.3469h23.8444v26.3846h-23.8444z"/></clipPath><clipPath id="c"><path clip-rule="evenodd" d="m11.7875 27.5677c-2.6947-.0117-4.8622 1.8493-4.879 4.1912-.0179 2.3711 2.1709 4.2663 4.9127 4.2555 2.6106-.0107 4.7747-1.91 4.7825-4.199.0056-2.3477-2.1338-4.235-4.8162-4.2477m-.0628 6.8667a2.8734 2.8734 0 0 1 -3.0247-2.6619 2.8956 2.8956 0 0 1 3.0627-2.6383 2.8944 2.8944 0 0 1 3.0481 2.6481 2.8839 2.8839 0 0 1 -3.0863 2.652"/></clipPath><clipPath id="d"><path d="m6.6857 27.2941h10.1158v8.7949h-10.1158z"/></clipPath><clipPath id="e"><path clip-rule="evenodd" d="m-1.3975 393.146a2.6965 2.6965 0 0 0 -2.692 2.6947v15.8929a2.696 2.696 0 0 0 2.692 2.6947.5756.5756 0 0 0 .5749-.5756.5761.5761 0 0 0 -.5749-.5756 1.5446 1.5446 0 0 1 -1.5416-1.5436v-15.8927a1.5436 1.5436 0 0 1 1.5416-1.543h22.222a1.5435 1.5435 0 0 1 1.5409 1.543v2.12a.5752.5752 0 1 0 1.15 0v-2.12a2.6958 2.6958 0 0 0 -2.6913-2.6947z"/></clipPath><g clip-path="url(#a)"><g clip-path="url(#b)"><path d="m-3.6128-3.141h30.8853v32.0128h-30.8853z" fill="#edaa7c"/></g></g><g clip-path="url(#c)"><g clip-path="url(#d)"><path d="m3.2957 24.4266h16.9209v14.7289h-16.9209z" fill="#edaa7c"/></g></g><path d="m-1.3975 393.146a2.6965 2.6965 0 0 0 -2.692 2.6947v15.8929a2.696 2.696 0 0 0 2.692 2.6947.5756.5756 0 0 0 .5749-.5756.5761.5761 0 0 0 -.5749-.5756 1.5446 1.5446 0 0 1 -1.5416-1.5436v-15.8927a1.5436 1.5436 0 0 1 1.5416-1.543h22.222a1.5435 1.5435 0 0 1 1.5409 1.543v2.12a.5752.5752 0 1 0 1.15 0v-2.12a2.6958 2.6958 0 0 0 -2.6913-2.6947z" fill="#eca97b" fill-rule="evenodd"/><g clip-path="url(#e)"><path d="m-415.8122-793.9305h959.2499v3779.711h-959.2499z" fill="#eca97b"/></g></svg>