<svg enable-background="new 0 0 31.9 20.3" viewBox="0 0 31.9 20.3" xmlns="http://www.w3.org/2000/svg" xmlns:xlink="http://www.w3.org/1999/xlink"><defs><clipPath><path d="m28.4-347.7-8.1-8.9 2.1-2.1 8.9 8.1c.4.4.6.9.6 1.4 0 1.1-.9 2-2 2-.7.1-1.2-.1-1.5-.5zm-29.9-20.7c0 6.6 5.3 11.9 11.9 11.9 2.1 0 4.1-.6 5.9-1.6.4-.2.5-.7.3-1.1s-.7-.5-1.1-.3c-1.6.9-3.3 1.3-5.1 1.3-5.7.1-10.3-4.5-10.3-10.2s4.6-10.3 10.3-10.3 10.3 4.6 10.3 10.3c0 2.7-1 5.3-2.9 7.2-.2.2-.2.3-.2.6v.2c0 .2.1.4.2.6l1.8 1.8-.5.5c-.6.6-.6 1.6-.1 2.2l8.1 8.9c.6.7 1.6 1.1 2.6 1.1 2 0 3.6-1.6 3.6-3.6 0-.9-.4-1.9-1.1-2.6l-8.9-8.1c-.6-.6-1.6-.6-2.2.1l-.5.5-1.3-1.3c1.9-2.1 2.9-4.9 2.9-7.8 0-6.6-5.3-11.9-11.9-11.9-6.5-.3-11.8 5-11.8 11.6z"/></clipPath><clipPath id="a"><path d="m15.9 18.8c-8 0-14.5-6.2-14.5-8.7 0-2.4 6.5-8.7 14.5-8.7s14.5 6.2 14.5 8.7-6.5 8.7-14.5 8.7m0-18.8c-8.8 0-15.9 7.2-15.9 10.1s7.1 10.2 15.9 10.2c8.9 0 16-7.3 16-10.2s-7.1-10.1-16-10.1m0 16c-3.2 0-5.8-2.6-5.8-5.9 0-3.2 2.6-5.8 5.8-5.8 3.3 0 5.9 2.6 5.9 5.8s-2.6 5.9-5.9 5.9m0-13.1c-4 0-7.2 3.2-7.2 7.2 0 4.1 3.3 7.3 7.2 7.3 4.1 0 7.3-3.2 7.3-7.3 0-4-3.2-7.2-7.3-7.2"/></clipPath><clipPath id="b"><path d="m0 0h32.3v20.6h-32.3z"/></clipPath><clipPath><path d="m23.9-140.1c-2.2-2-5.1-3.1-8-3.1-3 0-5.9 1.2-8.1 3.2-2.3 2.1-3.6 5.1-3.6 8.3 0 3.5 1.3 6.5 4.2 8.8 2 2.1 2 2.5 2 3.3v.5.1.2c0 .5 0 1.4 1 1.8h.1l8.4 1.8h.2c.4 0 .6-.2.7-.6.2-.4-.2-.8-.6-.9l-8.3-1.8v-.3-.2-.5c0-1.5-.4-2.2-2.5-4.4-.1 0-.2-.1-.2-.1-2.4-2-3.6-4.6-3.6-7.6 0-6.2 5.3-10.1 10.2-10.1 5 0 10.1 3.8 10.1 10.1 0 4.1-2.1 6.3-3.6 7.6l-.1.1c-2.1 2.3-2.5 2.9-2.5 4.4l-4.2-1c-.4-.1-.8.2-.9.6s.2.8.6.9l4.3.9c.2.1.7.2 1.2-.2.2-.2.5-.5.6-1v-.1-.1-.1c0-.8 0-1.2 2-3.3h.1c2.8-2.4 4.2-5.3 4.2-8.8 0-3.3-1.4-6.3-3.7-8.4"/></clipPath><clipPath><path d="m20.2-113.7-8.2-1.9c-.4-.1-.8.2-.9.6s.2.8.5.9l8.2 1.9h.2c.3 0 .6-.2.7-.6.1-.5-.2-.9-.5-.9"/></clipPath><clipPath><path d="m19.2-111.2-6.6-1.5c-.4-.1-.8.2-.9.6-.2.4.2.8.5.9l6.6 1.6h.2c.3 0 .6-.2.7-.6.1-.5-.2-.9-.5-1"/></clipPath><clipPath><path d="m16.3-145.9c0 .4-.3.8-.8.8-.4 0-.8-.3-.8-.8v-3c0-.4.3-.8.8-.8.4 0 .8.3.8.8z"/></clipPath><clipPath><path d="m25.4-144c-.2.3-.7.5-1.1.3s-.5-.6-.3-1l1.5-2.4c.2-.3.7-.5 1.1-.3s.5.6.3 1z"/></clipPath><clipPath><path d="m7.8-144.7c.2.3.1.8-.3 1s-.8.1-1.1-.3l-1.5-2.4c-.2-.3-.1-.8.3-1s.9-.1 1.1.3z"/></clipPath><clipPath><path d="m1.4-138.2c.3.2.5.7.3 1-.2.4-.6.5-1 .3l-2.4-1.5c-.3-.2-.5-.7-.3-1.1s.6-.5 1-.3z"/></clipPath><clipPath><path d="m31.2-136.9c-.3.2-.8.1-1-.3s-.1-.8.3-1l2.4-1.5c.3-.2.8-.1 1 .3s.1.8-.3 1.1z"/></clipPath><clipPath id="c"><use xlink:href="#d"/></clipPath><clipPath><path d="m7 130.8c-1.5 0-2.7 1.2-2.7 2.7v15.9c0 1.5 1.2 2.7 2.7 2.7h13.2c.3 0 .6-.3.6-.6s-.3-.6-.6-.6h-13.2c-.8 0-1.5-.7-1.5-1.5v-15.9c0-.9.7-1.5 1.5-1.5h22.2c.9 0 1.5.7 1.5 1.5v15.9c0 .9-.7 1.5-1.5 1.5h-2.1c-.3 0-.6.3-.6.6v2.8l-4.3-4.3c-.2-.2-.6-.2-.8 0s-.2.6 0 .8l5.3 5.3c.1.1.3.2.4.2h.2c.2-.1.4-.3.4-.5v-3.7h1.5c1.5 0 2.7-1.2 2.7-2.7v-15.9c0-1.5-1.2-2.7-2.7-2.7z"/></clipPath><clipPath><path d="m25.9 141.9h-15.7c-.4 0-.7-.3-.7-.7s.3-.7.7-.7h15.7c.4 0 .7.3.7.7s-.3.7-.7.7"/></clipPath><clipPath><path d="m24.9 145h-14.8c-.3 0-.6-.3-.6-.7s.3-.7.6-.7h14.8c.3 0 .6.3.6.7s-.3.7-.6.7"/></clipPath><clipPath><path d="m24.9 138.8h-14.8c-.3 0-.6-.3-.6-.7s.3-.7.6-.7h14.8c.3 0 .6.3.6.7s-.3.7-.6.7"/></clipPath><path id="d" d="m2.7 124.4c-1.5 0-2.7 1.2-2.7 2.7v15.9c0 1.5 1.2 2.7 2.7 2.7.3 0 .6-.3.6-.6s-.3-.6-.6-.6c-.9 0-1.5-.7-1.5-1.5v-15.9c0-.9.7-1.5 1.5-1.5h22.2c.8 0 1.5.7 1.5 1.5v2.1c0 .3.3.6.6.6s.6-.3.6-.6v-2.1c0-1.5-1.2-2.7-2.7-2.7z"/></defs><g clip-path="url(#a)" enable-background="new"><path clip-path="url(#b)" d="m-3.4-3.4h38.8v27.2h-38.8z" fill="#edaa7c"/></g><use clip-rule="evenodd" fill="#eca97b" fill-rule="evenodd" xlink:href="#d"/><g clip-path="url(#c)"><path d="m-411.7-1062.7h959.2v3779.7h-959.2z" fill="#eca97b"/></g></svg>