<svg viewBox="0 0 34.7998 34.7992" xmlns="http://www.w3.org/2000/svg" xmlns:xlink="http://www.w3.org/1999/xlink"><clipPath id="a"><path clip-rule="evenodd" d="m29.8169 32.5847-8.146-8.8586 2.0565-2.0552 8.8579 8.1454a1.9782 1.9782 0 0 1 .6326 1.4239 1.9579 1.9579 0 0 1 -1.9772 1.9772 1.8508 1.8508 0 0 1 -1.4238-.6327zm-29.8169-20.7217a11.8479 11.8479 0 0 0 11.8643 11.863 12.1 12.1 0 0 0 5.9309-1.5812.8142.8142 0 1 0 -.79-1.4239 10.61 10.61 0 0 1 -5.1409 1.3446 10.1439 10.1439 0 0 1 -10.2811-10.2025 10.2812 10.2812 0 0 1 20.5624 0 10.17 10.17 0 0 1 -2.9256 7.197.7208.7208 0 0 0 -.2367.5546v.158a.7171.7171 0 0 0 .2367.5533l1.8192 1.8192-.4753.4746a1.6044 1.6044 0 0 0 -.0787 2.2151l8.146 8.8567a3.4568 3.4568 0 0 0 2.61 1.1079 3.5443 3.5443 0 0 0 3.5588-3.5594 3.72 3.72 0 0 0 -1.1072-2.61l-8.8579-8.146a1.6016 1.6016 0 0 0 -2.2138.0787l-.4753.4746-1.3448-1.3442a11.7179 11.7179 0 0 0 2.9264-7.83 11.8637 11.8637 0 0 0 -23.7274-.0001z"/></clipPath><clipPath id="b"><path d="m-160.5722-1018.8954h928.614v3658.997h-928.614z"/></clipPath><clipPath id="c"><path d="m-3.2237-3.2238h41.2717v41.2717h-41.2717z"/></clipPath><clipPath id="d"><path d="m-3.2237-3.2237h41.2472v41.2472h-41.2472z"/></clipPath><clipPath id="e"><path d="m-.6442-.6444h35.4679v35.4679h-35.4679z"/></clipPath><clipPath id="f"><path clip-rule="evenodd" d="m4.1725 504.6963a2.6965 2.6965 0 0 0 -2.692 2.6947v15.893a2.696 2.696 0 0 0 2.692 2.6947.5756.5756 0 0 0 0-1.1511 1.5446 1.5446 0 0 1 -1.5416-1.5436v-15.8929a1.5436 1.5436 0 0 1 1.5416-1.543h22.222a1.5435 1.5435 0 0 1 1.5409 1.543v2.12a.5752.5752 0 1 0 1.15 0v-2.12a2.6958 2.6958 0 0 0 -2.6913-2.6947z"/></clipPath><g clip-path="url(#a)"><g clip-path="url(#b)"><g clip-path="url(#c)"><g clip-path="url(#d)"><g clip-path="url(#e)"><path d="m-6.4481-6.4481h47.6959v47.6959h-47.6959z" fill="#edaa7c"/></g></g></g></g></g><path d="m4.1725 504.6963a2.6965 2.6965 0 0 0 -2.692 2.6947v15.893a2.696 2.696 0 0 0 2.692 2.6947.5756.5756 0 0 0 0-1.1511 1.5446 1.5446 0 0 1 -1.5416-1.5436v-15.8929a1.5436 1.5436 0 0 1 1.5416-1.543h22.222a1.5435 1.5435 0 0 1 1.5409 1.543v2.12a.5752.5752 0 1 0 1.15 0v-2.12a2.6958 2.6958 0 0 0 -2.6913-2.6947z" fill="#eca97b" fill-rule="evenodd"/><g clip-path="url(#f)"><path d="m-410.2421-682.3802h959.2499v3779.711h-959.2499z" fill="#eca97b"/></g></svg>