<svg enable-background="new 0 0 31.8 31.9" viewBox="0 0 31.8 31.9" xmlns="http://www.w3.org/2000/svg" xmlns:xlink="http://www.w3.org/1999/xlink"><defs><clipPath><path d="m28.3-472.1-8.1-8.9 2.1-2.1 8.9 8.1c.4.4.6.9.6 1.4 0 1.1-.9 2-2 2-.6.1-1.1-.1-1.5-.5zm-29.8-20.7c0 6.6 5.3 11.9 11.9 11.9 2.1 0 4.1-.6 5.9-1.6.4-.2.5-.7.3-1.1s-.7-.5-1.1-.3c-1.6.9-3.3 1.3-5.1 1.3-5.7.1-10.3-4.5-10.3-10.2s4.6-10.3 10.3-10.3 10.3 4.6 10.3 10.3c0 2.7-1 5.3-2.9 7.2-.2.2-.2.3-.2.6v.2c0 .2.1.4.2.6l1.8 1.8-.5.5c-.6.6-.6 1.6-.1 2.2l8.1 8.9c.6.7 1.6 1.1 2.6 1.1 2 0 3.6-1.6 3.6-3.6 0-.9-.4-1.9-1.1-2.6l-8.9-8.1c-.6-.6-1.6-.6-2.2.1l-.5.5-1.3-1.3c1.9-2.1 2.9-4.9 2.9-7.8 0-6.6-5.3-11.9-11.9-11.9-6.5-.3-11.8 5-11.8 11.6z"/></clipPath><clipPath><path d="m23.9-264.5c-2.2-2-5.1-3.1-8-3.1-3 0-5.9 1.2-8.1 3.2-2.3 2.1-3.6 5.1-3.6 8.3 0 3.5 1.3 6.5 4.2 8.8 2 2.1 2 2.5 2 3.3v.5.1.2c0 .5 0 1.4 1 1.8h.1l8.4 1.8h.2c.4 0 .6-.2.7-.6.2-.4-.2-.8-.6-.9l-8.3-1.8v-.3-.2-.5c0-1.5-.4-2.2-2.5-4.4-.1 0-.2-.1-.2-.1-2.4-2-3.6-4.6-3.6-7.6 0-6.2 5.3-10.1 10.2-10.1 5 0 10.1 3.8 10.1 10.1 0 4.1-2.1 6.3-3.6 7.6l-.1.1c-2.1 2.3-2.5 2.9-2.5 4.4l-4.2-1c-.4-.1-.8.2-.9.6s.2.8.6.9l4.3.9c.2.1.7.2 1.2-.2.2-.2.5-.5.6-1v-.1-.1-.1c0-.8 0-1.2 2-3.3h.1c2.8-2.4 4.2-5.3 4.2-8.8-.1-3.3-1.4-6.3-3.7-8.4"/></clipPath><clipPath><path d="m20.1-238.2-8.2-1.9c-.4-.1-.8.2-.9.6s.2.8.5.9l8.2 1.9h.3c.3 0 .6-.2.7-.6s-.2-.8-.6-.9"/></clipPath><clipPath><path d="m19.1-235.6-6.6-1.5c-.4-.1-.8.2-.9.6-.2.4.2.8.5.9l6.6 1.6h.3c.3 0 .6-.2.7-.6.1-.6-.2-1-.6-1"/></clipPath><clipPath><path d="m16.3-270.3c0 .4-.3.8-.8.8-.4 0-.8-.3-.8-.8v-3c0-.4.3-.8.8-.8.4 0 .8.3.8.8z"/></clipPath><clipPath><path d="m25.4-268.4c-.2.3-.7.5-1.1.3s-.5-.6-.3-1l1.5-2.4c.2-.3.7-.5 1.1-.3s.5.6.3 1z"/></clipPath><clipPath><path d="m7.8-269.1c.2.3.1.8-.3 1s-.8.1-1.1-.3l-1.5-2.4c-.2-.3-.1-.8.3-1s.9-.1 1.1.3z"/></clipPath><clipPath><path d="m1.4-262.6c.3.2.5.7.3 1-.2.4-.6.5-1 .3l-2.4-1.5c-.3-.2-.5-.7-.3-1.1s.6-.5 1-.3z"/></clipPath><clipPath><path d="m31.2-261.3c-.3.2-.8.1-1-.3s-.1-.8.3-1l2.4-1.5c.3-.2.8-.1 1 .3s.1.8-.3 1.1z"/></clipPath><clipPath id="a"><use xlink:href="#l"/></clipPath><clipPath id="b"><path d="m6.9 6.4c-1.5 0-2.7 1.2-2.7 2.7v15.9c0 1.5 1.2 2.7 2.7 2.7h13.2c.3 0 .6-.3.6-.6s-.3-.6-.6-.6h-13.2c-.8 0-1.5-.7-1.5-1.5v-15.9c0-.9.7-1.5 1.5-1.5h22.2c.9 0 1.5.7 1.5 1.5v15.9c0 .9-.7 1.5-1.5 1.5h-2.1c-.3 0-.6.3-.6.6v2.8l-4.3-4.3c-.2-.2-.6-.2-.8 0s-.2.6 0 .8l5.3 5.3c.1.1.3.2.4.2h.2c.2-.1.4-.3.4-.5v-3.7h1.5c1.5 0 2.7-1.2 2.7-2.7v-15.9c0-1.5-1.2-2.7-2.7-2.7z"/></clipPath><clipPath id="c"><path d="m-411.7-1187.1h959.2v3779.7h-959.2z"/></clipPath><clipPath id="d"><path d="m0-.7h32.7v33.3h-32.7z"/></clipPath><clipPath id="e"><path d="m4 6h28v26h-28z"/></clipPath><clipPath id="f"><path d="m25.9 17.4h-15.8c-.4 0-.7-.3-.7-.7s.3-.7.7-.7h15.7c.4 0 .7.3.7.7 0 .5-.3.7-.6.7"/></clipPath><clipPath id="g"><path d="m-411.7-1187.1h959.2v3779.7h-959.2z"/></clipPath><clipPath id="h"><path d="m24.9 20.5h-14.8c-.3 0-.6-.3-.6-.7s.3-.7.6-.7h14.8c.3 0 .6.3.6.7s-.3.7-.6.7"/></clipPath><clipPath id="i"><path d="m-411.7-1187.1h959.2v3779.7h-959.2z"/></clipPath><clipPath id="j"><path d="m24.9 14.4h-14.8c-.3 0-.6-.3-.6-.7s.3-.7.6-.7h14.8c.3 0 .6.3.6.7s-.3.7-.6.7"/></clipPath><clipPath id="k"><path d="m-411.7-1187.1h959.2v3779.7h-959.2z"/></clipPath><path id="l" d="m2.7 0c-1.5 0-2.7 1.2-2.7 2.7v15.9c0 1.5 1.2 2.7 2.7 2.7.3 0 .6-.3.6-.6s-.3-.6-.6-.6c-.9 0-1.5-.7-1.5-1.5v-15.9c0-.9.7-1.5 1.5-1.5h22.2c.8 0 1.5.7 1.5 1.5v2.1c0 .3.3.6.6.6s.6-.3.6-.6v-2.1c0-1.5-1.2-2.7-2.7-2.7z"/></defs><use clip-rule="evenodd" fill="#eca97b" fill-rule="evenodd" xlink:href="#l"/><g clip-path="url(#a)"><path d="m-411.7-1187.1h959.2v3779.7h-959.2z" fill="#eca97b"/></g><g clip-path="url(#b)"><g clip-path="url(#c)" enable-background="new"><g clip-path="url(#d)"><path clip-path="url(#e)" d="m-3.4-4h39.3v40h-39.3z" fill="#eca97b"/></g></g></g><g clip-path="url(#f)"><path clip-path="url(#g)" d="m6.1 12.8h23.7v8h-23.7z" fill="#eca97b"/></g><g clip-path="url(#h)"><path clip-path="url(#i)" d="m6.1 15.9h22.7v8h-22.7z" fill="#eca97b"/></g><g clip-path="url(#j)"><path clip-path="url(#k)" d="m6.1 9.7h22.7v8h-22.7z" fill="#eca97b"/></g></svg>