<?xml version="1.0" encoding="UTF-8" standalone="no"?>
<svg width="400px" height="400px" viewBox="0 0 400 400" version="1.1" xmlns="http://www.w3.org/2000/svg" xmlns:xlink="http://www.w3.org/1999/xlink">
    <!-- Generator: Sketch 50.2 (55047) - http://www.bohemiancoding.com/sketch -->
    <title>Slice 1</title>
    <desc>Created with Sketch.</desc>
    <defs></defs>
    <g id="Page-1" stroke="none" stroke-width="1" fill="none" fill-rule="evenodd">
        <g id="josoor-connect-logo" transform="translate(50.000000, 111.000000)" fill-rule="nonzero">
            <g id="Group" transform="translate(62.000000, 0.000000)">
                <path d="M94.7625,123.699 C94.314,123.6414 93.8599,123.589 93.4193,123.5239 C93.8582,123.591 94.3155,123.64 94.7625,123.699 Z" id="Shape" fill="#ED7779"></path>
                <path d="M98.3382,124.0747 C97.6182,124.0177 96.9052,123.954 96.2044,123.8783 C96.9042,123.9557 97.6189,124.0173 98.3382,124.0747 Z" id="Shape" fill="#ED7779"></path>
                <path d="M101.2879,124.2549 C100.5436,124.2241 99.8125,124.1802 99.0879,124.13 C99.8133,124.18 100.5426,124.2258 101.2879,124.2549 Z" id="Shape" fill="#ED7779"></path>
                <polygon id="Shape" fill="#ED7779" points="104.2569 124.3267 104.2589 124.3267 104.2305 124.3261"></polygon>
                <path d="M56.92,102.574 C54.6443565,99.5543865 52.6571739,96.3278346 50.9846,92.9368 C52.5509195,96.3854878 54.5450563,99.6233311 56.92,102.574 Z" id="Shape" fill="#ED7779"></path>
                <path d="M104.2305,124.3261 C103.2286,124.3261 102.2561,124.2926 101.2879,124.2549 C102.252767,124.294833 103.233633,124.318567 104.2305,124.3261 Z" id="Shape" fill="#ED7779"></path>
                <path d="M99.0878,124.13 C98.8368667,124.112667 98.5868667,124.094233 98.3378,124.0747 C98.5867333,124.0943 98.8367333,124.112733 99.0878,124.13 Z" id="Shape" fill="#ED7779"></path>
                <path d="M94.155,103.9581 C96.1766222,104.408319 98.2268859,104.718589 100.2912,104.8867 C101.7225,104.9949 103.1699,105.0497 104.5932,105.0497 C105.4885,105.0497 106.3242,105.0269 107.1016,104.9911 C107.6398,104.4011 108.0916,103.8987 108.6006,103.3029 C118.757858,91.0711086 124.184585,75.8751181 124.0827,60.213 L124.0827,12.1382 C124.0827,11.6001642 124.518864,11.164 125.0569,11.164 L154.5709,11.164 C155.108936,11.164 155.5451,11.6001642 155.5451,12.1382 L155.5451,60.754 C155.676771,76.0389019 149.240585,90.6448942 137.8714,100.8619 C134.628434,103.73754 131.021007,106.173737 127.1421,108.1077 C121.971254,110.658544 116.385644,112.263441 110.6494,112.8465 C109.5854,112.96 108.5132,113.0531 107.4239,113.1036 C106.3851,113.151367 105.360333,113.1707 104.3248,113.1627 C103.6972,113.159 103.0835,113.141 102.4713,113.1216 C101.5243,113.0916 100.5895,113.0494 99.6797,112.9829 C93.6565586,112.406204 87.7439386,110.988352 82.1143,108.7707 C78.864463,107.322039 75.8129169,105.464314 73.0337,103.2426 C68.3818199,99.4692637 64.5381876,94.7970328 61.7324,89.505 C60.4398704,87.1038291 59.3256335,84.6108757 58.3987,82.0463 C56.1018391,75.7349802 54.8069036,69.1030665 54.5609,62.3913 L54.5396,57.8047 C54.5373424,57.2683213 54.1018835,56.8346952 53.5655,56.8347 L1.7447,56.8347 C1.2066642,56.8347 0.7705,57.2708642 0.7705,57.8089 L0.7705,62.4168 C0.7705,74.8505 5.6458,94.2309 19.3868,107.9293 C30.3021,118.8109 44.6159,124.3275 61.9378,124.3265 C64.6639702,124.318059 67.1361757,124.175885 69.5953,123.9006 C64.9577283,121.32125 60.6638677,118.16748 56.8153,114.5139 C56.2423,113.9688 55.6934,113.4239 55.1627,112.8814 C43.8248,111.5314 34.5354,107.2667 27.2683,100.0228 C18.1834,90.9646 13.8034,78.8512 12.4292,69.0983 C12.3923301,68.8195435 12.4779185,68.5384729 12.6638926,68.3275744 C12.8498668,68.1166759 13.1180209,67.9965951 13.3992,67.9983 L42.928,67.9983 C43.419799,67.9981395 43.8344119,68.3649487 43.8942,68.8531 C44.6081816,74.5007542 45.9239254,80.0558898 47.819,85.4238 C48.7261353,87.9877916 49.7832599,90.4962212 50.9849,92.9361 C52.6574739,96.3271346 54.6446565,99.5536865 56.9203,102.5733 C63.0448,110.4098 74.4282,120.6211 93.4194,123.5233 C93.86,123.5885 94.3141,123.6407 94.7626,123.6984 C95.24,123.7615 95.7178,123.824 96.2045,123.8777 C96.9053,123.9534 97.6184,124.0171 98.3383,124.0741 C98.5868333,124.0941 98.8368333,124.112533 99.0883,124.1294 C99.8131,124.1794 100.5442,124.2235 101.2883,124.2543 C102.2564,124.292 103.229,124.3252 104.2309,124.3255 C105.5791,124.3271 106.4747,124.306 107.3656,124.2719 C109.0724,124.2064 110.7528,124.0719 112.4102,123.8792 C114.215867,123.669 115.993,123.386867 117.7416,123.0328 C127.976653,120.958835 137.474367,116.195481 145.2576,109.2328 C159.028689,96.8961624 166.84086,79.2411278 166.7095,60.7528 L166.7095,0.9742 C166.7095,0.715704767 166.606765,0.467807044 166.423916,0.285088968 C166.241067,0.102370893 165.993095,-0.000185738722 165.7346,1.17026877e-13 L113.8926,1.17026877e-13 C113.354564,1.32285829e-13 112.9184,0.436164197 112.9184,0.9742 L112.9184,60.2128 C113.021207,73.2425997 108.524591,85.8910831 100.22,95.932 C99.7992,96.432 99.3637,96.9055 98.93,97.3833 C97.0436793,99.4710531 94.9828915,101.394277 92.77,103.1321 C92.3783,103.4544 92.3485,103.538 92.465,103.5609 L94.155,103.9581 Z" id="Shape" fill="#EDA97B"></path>
                <path d="M96.2044,123.8783 C95.7177,123.8245 95.2398,123.7621 94.7625,123.699 C95.2414,123.7605 95.7164,123.8256 96.2044,123.8783 Z" id="Shape" fill="#ED7779"></path>
                <rect id="Rectangle-path" fill="#EDA97B" transform="translate(85.655443, 61.805463) rotate(-45.000000) translate(-85.655443, -61.805463) " x="74.1992929" y="50.3493126" width="22.9123" height="22.9123" rx="1.7517"></rect>
            </g>
            <path d="M34.7275,196.3068 C30.5834113,198.70409 25.8515788,199.89492 21.0664,199.7448 C14.6113333,199.7448 9.60513333,197.739267 6.0478,193.7282 C2.4882,189.717933 0.708566667,184.3649 0.7089,177.6691 C0.7089,171.095367 2.6692,165.772467 6.5898,161.7004 C10.5058333,157.62973 15.9642575,155.410419 21.6098,155.5935 C26.3168095,155.481177 30.959353,156.704499 34.9998,159.1218 L33.1,165.9074 C29.7120557,163.612613 25.7015755,162.41261 21.61,162.4694 C17.3873333,162.4694 14.1301667,163.811367 11.8385,166.4953 C9.5455,169.1799 8.39933333,172.8744 8.4,177.5788 C8.4,182.343933 9.5914,186.083533 11.9742,188.7976 C14.3506559,191.510548 17.8243144,193.006439 21.4283,192.8689 C25.6671711,192.969938 29.8352753,191.770117 33.3717,189.4309 L34.7275,196.3068 Z" id="Shape" fill="#FFFFFF"></path>
            <path d="M81.8662,177.6691 C81.8662,184.2443 79.9511667,189.567233 76.1211,193.6379 C72.3566091,197.682201 67.0315924,199.907679 61.5088,199.7448 C56.0432967,199.933497 50.769484,197.718274 47.0781,193.6833 C43.3691,189.642767 41.5142667,184.3047 41.5136,177.6691 C41.5136,171.034833 43.4136,165.6818 47.2136,161.61 C51.0145629,157.536505 56.3935491,155.308974 61.9616,155.5026 C67.9323333,155.5026 72.7425667,157.523267 76.3923,161.5646 C80.0409,165.606133 81.8655333,170.9743 81.8662,177.6691 Z M74.5371,177.7591 C74.6990042,173.744432 73.4684054,169.797182 71.0537,166.5858 C68.7914146,163.68805 65.2734905,162.055218 61.6,162.1979 C57.9608905,162.01341 54.4565253,163.596928 52.19,166.45 C49.9576,169.285933 48.8417,172.9954 48.8423,177.5784 C48.6742738,181.580043 49.9060378,185.515153 52.3257,188.7068 C54.6020691,191.582088 58.1156075,193.196168 61.78,193.05 C65.4093183,193.236348 68.9080876,191.671993 71.1892,188.843 C73.4208,186.038267 74.5367667,182.343733 74.5371,177.7594 L74.5371,177.7591 Z" id="Shape" fill="#FFFFFF"></path>
            <path d="M126.2891,198.3878 L118.87,198.3878 L118.87,172.3312 C118.87,168.833667 118.1913,166.3607 116.8339,164.9123 C115.4765,163.4639 113.289833,162.7401 110.2739,162.7409 C106.194777,162.73106 102.282841,164.360997 99.4175,167.2643 L99.4175,198.3878 L91.999,198.3878 L91.999,156.77 L99.4179,155.5937 L99.4179,161.8364 C103.580033,157.674267 108.073367,155.593367 112.8979,155.5937 C117.119567,155.5937 120.407,156.860367 122.7602,159.3937 C125.111733,161.927033 126.287833,165.4254 126.2885,169.8888 L126.2891,198.3878 Z" id="Shape" fill="#FFFFFF"></path>
            <path d="M173.0645,198.3878 L165.6456,198.3878 L165.6456,172.3312 C165.6456,168.833667 164.9669,166.3607 163.6095,164.9123 C162.2521,163.4639 160.065433,162.7401 157.0495,162.7409 C152.970377,162.73106 149.058441,164.360997 146.1931,167.2643 L146.1931,198.3878 L138.7742,198.3878 L138.7742,156.77 L146.1931,155.5937 L146.1931,161.8364 C150.355233,157.674267 154.848567,155.593367 159.6731,155.5937 C163.894767,155.5937 167.1822,156.860367 169.5354,159.3937 C171.886933,161.927033 173.063033,165.4254 173.0637,169.8888 L173.0645,198.3878 Z" id="Shape" fill="#FFFFFF"></path>
            <path d="M190.3447,178.5739 L190.3447,178.9357 C190.316782,182.664794 191.72616,186.261385 194.2802,188.9787 C196.827178,191.591361 200.360617,193.004504 204.0068,192.8687 C208.39193,193.010986 212.716043,191.811559 216.4013,189.4307 L217.7587,196.3067 C214.0187,198.598233 209.374167,199.744233 203.8251,199.7447 C197.612233,199.7447 192.5608,197.7242 188.6708,193.6832 C184.7808,189.6422 182.8355,184.455033 182.8349,178.1217 C182.8349,171.486967 184.7802,166.073633 188.6708,161.8817 C192.395638,157.760813 197.729751,155.465388 203.2831,155.5936 C208.227433,155.5936 212.102767,157.0412 214.9091,159.9364 C217.713767,162.8314 219.1161,166.7821 219.1161,171.7885 C219.140598,174.02253 218.835551,176.247964 218.2108,178.393 L190.3447,178.5739 Z M190.707,173.1452 L211.9687,172.9645 L211.9687,172.3312 C211.9687,169.134933 211.184533,166.631833 209.6162,164.8219 C208.047867,163.011967 205.695333,162.107167 202.5586,162.1075 C199.498675,162.002307 196.538296,163.202877 194.416,165.4097 C192.355422,167.505105 191.050562,170.226524 190.707,173.1452 Z" id="Shape" fill="#FFFFFF"></path>
            <path d="M260.2813,196.3068 C256.137211,198.70409 251.405379,199.89492 246.6202,199.7448 C240.165133,199.7448 235.158933,197.739267 231.6016,193.7282 C228.042,189.717933 226.262367,184.3649 226.2627,177.6691 C226.2627,171.095367 228.223,165.772467 232.1436,161.7004 C236.059633,157.62973 241.518057,155.410419 247.1636,155.5935 C251.87061,155.481177 256.513153,156.704499 260.5536,159.1218 L258.6542,165.9074 C255.266256,163.612613 251.255775,162.41261 247.1642,162.4694 C242.941533,162.4694 239.684367,163.811367 237.3927,166.4953 C235.0997,169.1799 233.953533,172.8744 233.9542,177.5788 C233.9542,182.343933 235.1456,186.083533 237.5284,188.7976 C239.904856,191.510548 243.378514,193.006439 246.9825,192.8689 C251.221371,192.969938 255.389475,191.770117 258.9259,189.4309 L260.2813,196.3068 Z" id="Shape" fill="#FFFFFF"></path>
            <path d="M292.0381,197.9113 C289.073594,199.099656 285.912535,199.721569 282.7188,199.7448 C274.696333,199.7448 270.685267,195.703633 270.6856,187.6213 L270.6856,186.8073 L271.3194,163.6457 L264.4434,163.1931 L264.7139,158.4885 L271.5909,156.4074 L271.7716,147.4504 L278.9191,147.4504 L278.6476,156.9504 L291.585,156.9504 L291.3135,163.6457 L278.376,163.6457 L277.7432,187.0065 C277.621133,190.915167 279.430367,192.869267 283.1709,192.8688 C285.745175,192.801463 288.287419,192.280793 290.6809,191.3307 L292.0381,197.9113 Z" id="Shape" fill="#FFFFFF"></path>
        </g>
    </g>
</svg>