<?xml version="1.0" encoding="utf-8"?>
<!-- Generator: Adobe Illustrator 18.1.1, SVG Export Plug-In . SVG Version: 6.00 Build 0)  -->
<svg version="1.1" id="Layer_1" xmlns="http://www.w3.org/2000/svg" xmlns:xlink="http://www.w3.org/1999/xlink" x="0px" y="0px"
	 viewBox="0 0 694.1 169.8" enable-background="new 0 0 694.1 169.8" xml:space="preserve">
<g>
	<g>
		<path fill="#474D57" d="M621.2,133.3c-1.4,0-2.4-1-2.4-2.4c0-0.3,0-1,0-1.4c0-3.5,0-6.6,0-10.1c0-13.2,0-26.4,0-39.6
			c0.3-9.4,1-18.7,6.6-26.7c5.9-8.3,15.3-12.5,25-14.2c6.9-1.4,13.9-1,20.8-1s13.5,0,20.5,0c1.4,0,2.4,1,2.4,2.4v12.5
			c0,1.4-1,2.4-2.4,2.4c-8,0-16,0-23.9,0c-6.2,0.3-13.2,1-18,5.6c-4.9,4.5-5.6,10.4-5.9,16.7c-0.3,8.7-0.3,17.7-0.3,26.4
			c0,9,0,18.4,0,27.4c0,1.4-1,2.4-2.4,2.4h-19.8V133.3z"/>
	</g>
	<g>
		<path fill="#474D57" d="M33,38.9c-1.4,0-2.8,1-2.8,2.8c0,14.9,0,80.9,0,86.1c0,4.2,0.3,9-1,13.2c-2.1,6.6-8,9-14.6,9.7
			c-2.8,0.3-5.9,0.3-8.7,0.3c-1.4,0-2.8,0-3.8,0.3l0,0c-1,0-2.1,1-2.1,2.1v14.2c0,1,1,2.1,2.1,2.1c7.3,0,14.9,0.3,22.6-0.3
			c5.9-0.7,12.1-1.7,17.4-4.5c8-4.2,11.8-12.5,12.8-21.2c0.7-6.9,0.3-13.9,0.7-20.5c0-6.9,0-65.9,0-80.9c0-1.4-1-2.8-2.8-2.8H33
			V38.9z"/>
	</g>
	<g>
		<path fill="#474D57" d="M30.5,20.8V2.4C30.5,1,31.6,0,33,0h20.1c1.4,0,2.4,1,2.4,2.4v18.4c0,1.4-1,2.4-2.4,2.4H33
			C31.6,22.9,30.5,21.9,30.5,20.8z"/>
	</g>
	<g>
		<path fill="#474D57" d="M289.8,115.9c0.3,0,0.3,0,0.7,0c3.8-1,6.6-3.5,7.3-7.3c0.7-3.5,0-8.7-2.8-11.1c-3.5-3.1-8.7-2.8-13.2-2.8
			c-6.6,0-12.8,0-19.4,0c-17.7,0-45.1,3.5-52.1-18c-2.4-7.6-2.1-17.4,1.4-25c3.5-7.3,10.1-11.5,17.7-12.5c6.6-1,13.5-0.7,20.5-0.7
			c7.3,0,14.9-0.3,22.2-0.3c14.2,0,28.8-0.3,43-0.3c1.4,0,2.1,1,2.1,2.1v13.2c0,1.4-1,2.1-2.1,2.1h-56.9c-5.9,0-12.5-0.7-18.4,0.7
			c-3.8,1-6.6,3.1-7.6,7.3c-0.7,3.5,0,8,2.8,10.8c3.5,3.5,9.4,2.8,13.9,2.8h39.6c5.6,0,10.8,0.3,16,2.1c7.6,2.4,13.2,8,15.3,15.6
			c2.4,8.7,2.4,19.4-1.7,27.4c-4.2,7.6-11.8,10.4-20.1,11.1c-7.3,0.7-14.2,0.7-21.5,0.7c-7.3,0-14.9,0-22.2,0c-13.5,0-27.1,0-40.6,0
			c-1.4,0-2.4-1-2.4-2.4v-12.5c0-1.4,1-2.1,2.1-2.1L289.8,115.9z"/>
	</g>
	<g>
		<path fill="#474D57" d="M135,134.6c-13.9-0.7-28.5-0.3-40.9-6.9c-9-4.5-16-12.1-19.4-21.9C67,85,71.5,56.6,92.3,45.1
			c10.8-5.9,24.3-6.9,36.4-7.3c7.6-0.3,15.3,0,22.9,0.7c6.2,0.7,12.5,1,18.4,3.1c9.4,3.1,17.4,9.4,22.2,17.7
			c5.9,9.7,6.9,21.5,6.2,32.6c-1,13.9-7.6,27.4-19.8,34.4C165.5,134.3,149.6,134.6,135,134.6z M134.6,115.6L134.6,115.6
			c8.3,0,17,0.7,25-2.8c5.9-2.8,10.4-7.3,12.5-13.5c2.4-7.6,2.8-17.4,0.7-25.3c-1.7-5.9-5.6-10.8-11.1-13.9c-7.3-3.8-17-4.5-25-4.5
			c-4.9,0-9.7,0.3-14.6,0.7c-4.2,0.3-8.3,1-12.1,2.4C95.8,64.5,93,84,97.2,97.5c1.7,6.2,5.6,11.1,11.5,14.2
			C116.6,116.3,125.6,115.6,134.6,115.6z"/>
	</g>
	<g>
		<path fill="#474D57" d="M540,134.6c-13.9-0.7-28.5-0.3-40.9-6.9c-9-4.5-16-12.1-19.4-21.9c-7.6-20.8-3.1-49.3,17.7-60.7
			c10.8-5.9,24.3-6.9,36.4-7.3c7.6-0.3,15.3,0,22.9,0.7c6.2,0.7,12.5,1,18.4,3.1c9.4,3.1,17.4,9.4,22.2,17.7
			c5.9,9.7,6.9,21.5,6.2,32.6c-1,13.9-7.6,27.4-19.8,34.4C570.9,134.3,554.9,134.6,540,134.6z M539.6,115.6L539.6,115.6
			c8.3,0,17,0.7,25-2.8c5.9-2.8,10.4-7.3,12.5-13.5c2.4-7.6,2.8-17.4,0.7-25.3c-1.7-5.9-5.6-10.8-11.1-13.9c-7.3-3.8-17-4.5-25-4.5
			c-4.9,0-9.7,0.3-14.6,0.7c-4.2,0.3-8.3,1-12.1,2.4c-14.2,5.9-17,25.3-12.8,38.9c1.7,6.2,5.6,11.1,11.5,14.2
			C521.6,116.3,530.6,115.6,539.6,115.6z"/>
	</g>
	<g>
		<path fill="#474D57" d="M400.1,134.6c-13.9-0.7-28.5-0.3-40.9-6.9c-9-4.5-16-12.1-19.4-21.9c-7.6-20.8-3.1-49.3,17.7-60.7
			c10.8-5.9,24.3-6.9,36.4-7.3c7.6-0.3,15.3,0,22.9,0.7c6.2,0.7,12.5,1,18.4,3.1c9.4,3.1,17.4,9.4,22.2,17.7
			c5.9,9.7,6.9,21.5,6.2,32.6c-1,13.9-7.6,27.4-19.8,34.4C430.7,134.3,414.7,134.6,400.1,134.6z M399.8,115.6L399.8,115.6
			c8.3,0,17,0.7,25-2.8c5.9-2.8,10.4-7.3,12.5-13.5c2.4-7.6,2.8-17.4,0.7-25.3c-1.7-5.9-5.6-10.8-11.1-13.9c-7.3-3.8-17-4.5-25-4.5
			c-4.9,0-9.7,0.3-14.6,0.7c-4.2,0.3-8.3,1-12.1,2.4c-14.2,5.9-17,25.3-12.8,38.9c1.7,6.2,5.6,11.1,11.5,14.2
			C381.7,116.3,390.8,115.6,399.8,115.6z"/>
	</g>
</g>
</svg>
