<?xml version="1.0" encoding="utf-8"?>
<!-- Generator: Adobe Illustrator 18.1.1, SVG Export Plug-In . SVG Version: 6.00 Build 0)  -->
<svg version="1.1" id="Layer_1" xmlns="http://www.w3.org/2000/svg" xmlns:xlink="http://www.w3.org/1999/xlink" x="0px" y="0px"
	 viewBox="0 0 242.6 88.3" enable-background="new 0 0 242.6 88.3" xml:space="preserve">
<g>
	<g>
		<path fill="#474D57" d="M200.3,58.2c-0.4,0-0.7-0.3-0.7-0.7c0-0.1,0-0.3,0-0.4c0-1,0-1.9,0-2.9c0-3.8,0-7.6,0-11.4
			c0.1-2.7,0.3-5.4,1.9-7.7c1.7-2.4,4.4-3.6,7.2-4.1c2-0.4,4-0.3,6-0.3c2,0,3.9,0,5.9,0c0.4,0,0.7,0.3,0.7,0.7V35
			c0,0.4-0.3,0.7-0.7,0.7c-2.3,0-4.6,0-6.9,0c-1.8,0.1-3.8,0.3-5.2,1.6c-1.4,1.3-1.6,3-1.7,4.8c-0.1,2.5-0.1,5.1-0.1,7.6
			c0,2.6,0,5.3,0,7.9c0,0.4-0.3,0.7-0.7,0.7H200.3z"/>
	</g>
	<g>
		<path fill="#474D57" d="M30.8,31c-0.4,0-0.8,0.3-0.8,0.8c0,4.3,0,23.3,0,24.8c0,1.2,0.1,2.6-0.3,3.8c-0.6,1.9-2.3,2.6-4.2,2.8
			c-0.8,0.1-1.7,0.1-2.5,0.1c-0.4,0-0.8,0-1.1,0.1l0,0c-0.3,0-0.6,0.3-0.6,0.6l0,4.1c0,0.3,0.3,0.6,0.6,0.6c2.1,0,4.3,0.1,6.5-0.1
			c1.7-0.2,3.5-0.5,5-1.3c2.3-1.2,3.4-3.6,3.7-6.1c0.2-2,0.1-4,0.2-5.9c0-2,0-19,0-23.3c0-0.4-0.3-0.8-0.8-0.8H30.8z"/>
	</g>
	<g>
		<path fill="#474D57" d="M30.1,25.8v-5.3c0-0.4,0.3-0.7,0.7-0.7h5.8c0.4,0,0.7,0.3,0.7,0.7v5.3c0,0.4-0.3,0.7-0.7,0.7h-5.8
			C30.4,26.4,30.1,26.1,30.1,25.8z"/>
	</g>
	<g>
		<path fill="#474D57" d="M104.8,53.2c0.1,0,0.1,0,0.2,0c1.1-0.3,1.9-1,2.1-2.1c0.2-1,0-2.5-0.8-3.2c-1-0.9-2.5-0.8-3.8-0.8
			c-1.9,0-3.7,0-5.6,0c-5.1,0-13,1-15-5.2c-0.7-2.2-0.6-5,0.4-7.2c1-2.1,2.9-3.3,5.1-3.6c1.9-0.3,3.9-0.2,5.9-0.2
			c2.1,0,4.3-0.1,6.4-0.1c4.1,0,8.3-0.1,12.4-0.1c0.4,0,0.6,0.3,0.6,0.6v3.8c0,0.4-0.3,0.6-0.6,0.6l-16.4,0c-1.7,0-3.6-0.2-5.3,0.2
			c-1.1,0.3-1.9,0.9-2.2,2.1c-0.2,1,0,2.3,0.8,3.1c1,1,2.7,0.8,4,0.8l11.4,0c1.6,0,3.1,0.1,4.6,0.6c2.2,0.7,3.8,2.3,4.4,4.5
			c0.7,2.5,0.7,5.6-0.5,7.9c-1.2,2.2-3.4,3-5.8,3.2c-2.1,0.2-4.1,0.2-6.2,0.2c-2.1,0-4.3,0-6.4,0c-3.9,0-7.8,0-11.7,0
			c-0.4,0-0.7-0.3-0.7-0.7V54c0-0.4,0.3-0.6,0.6-0.6L104.8,53.2z"/>
	</g>
	<g>
		<path fill="#474D57" d="M60.2,58.6c-4-0.2-8.2-0.1-11.8-2c-2.6-1.3-4.6-3.5-5.6-6.3c-2.2-6-0.9-14.2,5.1-17.5
			c3.1-1.7,7-2,10.5-2.1c2.2-0.1,4.4,0,6.6,0.2c1.8,0.2,3.6,0.3,5.3,0.9c2.7,0.9,5,2.7,6.4,5.1c1.7,2.8,2,6.2,1.8,9.4
			c-0.3,4-2.2,7.9-5.7,9.9C69,58.5,64.4,58.6,60.2,58.6z M60.1,53.1C60.1,53.1,60.1,53.1,60.1,53.1c2.4,0,4.9,0.2,7.2-0.8
			c1.7-0.8,3-2.1,3.6-3.9c0.7-2.2,0.8-5,0.2-7.3c-0.5-1.7-1.6-3.1-3.2-4c-2.1-1.1-4.9-1.3-7.2-1.3c-1.4,0-2.8,0.1-4.2,0.2
			c-1.2,0.1-2.4,0.3-3.5,0.7c-4.1,1.7-4.9,7.3-3.7,11.2c0.5,1.8,1.6,3.2,3.3,4.1C54.9,53.3,57.5,53.1,60.1,53.1z"/>
	</g>
	<g>
		<path fill="#474D57" d="M176.9,58.6c-4-0.2-8.2-0.1-11.8-2c-2.6-1.3-4.6-3.5-5.6-6.3c-2.2-6-0.9-14.2,5.1-17.5
			c3.1-1.7,7-2,10.5-2.1c2.2-0.1,4.4,0,6.6,0.2c1.8,0.2,3.6,0.3,5.3,0.9c2.7,0.9,5,2.7,6.4,5.1c1.7,2.8,2,6.2,1.8,9.4
			c-0.3,4-2.2,7.9-5.7,9.9C185.8,58.5,181.2,58.6,176.9,58.6z M176.8,53.1C176.8,53.1,176.8,53.1,176.8,53.1c2.4,0,4.9,0.2,7.2-0.8
			c1.7-0.8,3-2.1,3.6-3.9c0.7-2.2,0.8-5,0.2-7.3c-0.5-1.7-1.6-3.1-3.2-4c-2.1-1.1-4.9-1.3-7.2-1.3c-1.4,0-2.8,0.1-4.2,0.2
			c-1.2,0.1-2.4,0.3-3.5,0.7c-4.1,1.7-4.9,7.3-3.7,11.2c0.5,1.8,1.6,3.2,3.3,4.1C171.6,53.3,174.2,53.1,176.8,53.1z"/>
	</g>
	<g>
		<path fill="#474D57" d="M136.6,58.6c-4-0.2-8.2-0.1-11.8-2c-2.6-1.3-4.6-3.5-5.6-6.3c-2.2-6-0.9-14.2,5.1-17.5
			c3.1-1.7,7-2,10.5-2.1c2.2-0.1,4.4,0,6.6,0.2c1.8,0.2,3.6,0.3,5.3,0.9c2.7,0.9,5,2.7,6.4,5.1c1.7,2.8,2,6.2,1.8,9.4
			c-0.3,4-2.2,7.9-5.7,9.9C145.4,58.5,140.8,58.6,136.6,58.6z M136.5,53.1C136.5,53.1,136.5,53.1,136.5,53.1c2.4,0,4.9,0.2,7.2-0.8
			c1.7-0.8,3-2.1,3.6-3.9c0.7-2.2,0.8-5,0.2-7.3c-0.5-1.7-1.6-3.1-3.2-4c-2.1-1.1-4.9-1.3-7.2-1.3c-1.4,0-2.8,0.1-4.2,0.2
			c-1.2,0.1-2.4,0.3-3.5,0.7c-4.1,1.7-4.9,7.3-3.7,11.2c0.5,1.8,1.6,3.2,3.3,4.1C131.3,53.3,133.9,53.1,136.5,53.1z"/>
	</g>
</g>
</svg>
