<?xml version="1.0" encoding="utf-8"?>
<!-- Generator: Adobe Illustrator 21.1.0, SVG Export Plug-In . SVG Version: 6.00 Build 0)  -->
<svg version="1.1" id="Layer_1" xmlns="http://www.w3.org/2000/svg" xmlns:xlink="http://www.w3.org/1999/xlink" x="0px" y="0px"
	 viewBox="0 0 347.3 220" style="enable-background:new 0 0 347.3 220;" xml:space="preserve">
<style type="text/css">
	.st0{fill:none;}
	.st1{fill:#FFFEF9;}
	.st2{fill:#FBFCFD;}
</style>
<g>
	<path class="st1" d="M183,105.2c-0.4,0-0.8-0.1-1.1-0.1C182.2,105.1,182.6,105.1,183,105.2z"/>
	<path class="st1" d="M186.1,105.5c-0.6,0-1.2-0.1-1.8-0.2C184.8,105.4,185.4,105.4,186.1,105.5z"/>
	<path class="st1" d="M188.6,105.6c-0.6,0-1.3-0.1-1.9-0.1C187.3,105.6,187.9,105.6,188.6,105.6z"/>
	<path class="st1" d="M191.1,105.7C191.1,105.7,191.1,105.7,191.1,105.7C191.1,105.7,191.1,105.7,191.1,105.7
		C191.1,105.7,191.1,105.7,191.1,105.7z"/>
	<path class="st1" d="M150.8,87.2c-2.1-2.7-3.7-5.5-5-8.2C145.8,79,147.3,82.6,150.8,87.2z"/>
	<path class="st1" d="M191.1,105.7c-0.9,0-1.7,0-2.5-0.1C189.4,105.7,190.2,105.7,191.1,105.7z"/>
	<path class="st1" d="M186.7,105.5c-0.2,0-0.4,0-0.6,0C186.3,105.5,186.5,105.5,186.7,105.5z"/>
	<path class="st1" d="M181.1,88l1.4,0.3c1.6,0.4,3.4,0.7,5.2,0.8c1.2,0.1,2.4,0.1,3.7,0.1c0.7,0,1.3,0,1.9,0c0.1,0,0.3-0.1,0.4-0.2
		c0.4-0.4,0.7-0.8,1.1-1.2c0-0.1,0.1-0.1,0.1-0.2c8.4-10,13-22.9,13-36.5V11.4c0-1,0.8-1.9,1.9-1.9h23c1,0,1.9,0.8,1.9,1.9v40.3
		c0,13.2-5.5,25.7-15,34.1c-2.8,2.5-5.9,4.5-9.1,6.2c-4.3,2.1-9,3.5-14,4c-0.9,0.1-1.8,0.2-2.7,0.2c0,0,0,0,0,0
		c-0.9,0-1.7,0.1-2.6,0c-0.5,0-1.1,0-1.6,0c-0.8,0-1.6-0.1-2.4-0.1c-7.7-0.6-14.9-3.6-14.9-3.6c-2.9-1.3-5.5-2.9-7.7-4.7
		c-4.2-3.4-7.3-7.5-9.6-11.7c-1.1-2.1-2.1-4.3-2.8-6.3c-3.1-8.5-3.3-16-3.3-16.7l0-2.8c0-1-0.8-1.9-1.9-1.9H105
		c-1,0-1.9,0.8-1.9,1.9v2.9c0,10.6,4.1,27,15.8,38.7c9.3,9.3,21.4,13.9,36.2,13.9h0.2c1.7,0,3.3-0.1,4.9-0.2c0.4,0,0.5-0.6,0.2-0.8
		c-3.9-2.3-7.2-4.9-9.7-7.3c-0.4-0.4-0.8-0.8-1.1-1.1c-0.2-0.2-0.5-0.4-0.8-0.4c-9.3-1.1-17.1-4.7-23.2-10.8
		c-7.3-7.3-11.1-17-12.4-25c-0.2-1.1,0.7-2.2,1.9-2.2l22.9,0c0.9,0,1.7,0.7,1.9,1.6c0.5,3.5,1.4,8.2,3.2,13.2
		c0.7,2.1,1.6,4.2,2.7,6.4c1.3,2.7,3,5.5,5,8.2c5.2,6.7,14.9,15.3,31,17.8c0.4,0.1,0.8,0.1,1.1,0.1c0.4,0.1,0.8,0.1,1.2,0.2
		c0.6,0.1,1.2,0.1,1.8,0.2c0.2,0,0.4,0,0.6,0c0.6,0,1.2,0.1,1.9,0.1c0.8,0,1.6,0.1,2.5,0.1c0,0,0,0,0,0c0.1,0,0.2,0,0.4,0
		c0.8,0,1.5,0,2.3,0c1.5-0.1,2.9-0.2,4.3-0.3c1.5-0.2,3-0.4,4.5-0.7c8.7-1.8,16.5-5.7,23.4-11.7c11.6-10.2,18.2-25.2,18.2-41.2V1.9
		c0-1-0.8-1.9-1.9-1.9h-42c-1,0-1.9,0.8-1.9,1.9v49.3c0,11.3-3.8,22.1-10.8,30.4c-0.4,0.4-0.7,0.8-1.1,1.2c-1.6,1.8-3.4,3.4-5.2,4.9
		l-0.2,0.2C181,87.9,181,88,181.1,88z"/>
	<path class="st1" d="M184.2,105.3c-0.4,0-0.8-0.1-1.2-0.2C183.4,105.2,183.8,105.3,184.2,105.3z"/>
</g>
<path class="st1" d="M186.5,55l-10.6,10.6c-1.2,1.2-3.2,1.2-4.4,0L160.8,55c-1.2-1.2-1.2-3.2,0-4.4L171.5,40c1.2-1.2,3.2-1.2,4.4,0
	l10.6,10.6C187.7,51.9,187.7,53.8,186.5,55z"/>
<g>
	<path class="st2" d="M24.6,187.4c0,4.6-1.1,8.2-3.4,10.8c-2.2,2.6-5.6,4-10.2,4c-3.7,0-7-0.9-10-2.8l0.9-5.9c3.1,2.1,6.1,3.2,9,3.2
		c5.1,0,7.6-3.2,7.6-9.6V156h6.1V187.4z"/>
	<path class="st2" d="M65.4,184.6c0,5.3-1.5,9.5-4.6,12.8c-3.1,3.3-6.9,4.9-11.7,4.9c-4.7,0-8.6-1.6-11.5-4.8
		c-3-3.2-4.4-7.5-4.4-12.8c0-5.3,1.5-9.6,4.6-12.8c3-3.3,7-4.9,11.8-4.9c4.8,0,8.6,1.6,11.5,4.8C63.9,175,65.4,179.2,65.4,184.6z
		 M59.5,184.7c0-3.6-0.9-6.6-2.8-8.9c-1.9-2.3-4.4-3.5-7.6-3.5c-3.2,0-5.7,1.1-7.5,3.4c-1.8,2.3-2.7,5.2-2.7,8.9
		c0,3.6,0.9,6.6,2.8,8.9c1.9,2.3,4.4,3.5,7.6,3.5c3.2,0,5.7-1.1,7.5-3.4C58.7,191.3,59.5,188.3,59.5,184.7z"/>
	<path class="st2" d="M94.7,191.7c0,3.1-1.2,5.7-3.5,7.6c-2.3,2-5.3,2.9-9,2.9c-4.4,0-8.2-1.1-11.6-3.1l1.5-5.5
		c3,2.1,6.4,3.1,10.2,3.1c1.9,0,3.5-0.4,4.7-1.3s1.8-2,1.8-3.4c0-0.8-0.2-1.4-0.6-2c-0.4-0.6-1-1.1-1.9-1.5c-0.9-0.4-1.7-0.8-2.3-1
		c-0.7-0.2-1.7-0.5-3-0.9c-2.9-0.8-5.3-1.9-7.1-3.4c-1.8-1.4-2.7-3.5-2.7-6.3c0-3,1.1-5.5,3.4-7.3c2.3-1.8,5.1-2.8,8.5-2.8
		c3.9,0,7.4,0.8,10.7,2.5l-1.5,5.5c-3-1.6-6.1-2.5-9.5-2.5c-1.8,0-3.2,0.4-4.3,1.1c-1.1,0.7-1.6,1.7-1.6,3c0,1.4,0.6,2.5,1.9,3.2
		c1.3,0.7,3.2,1.4,5.7,2.1c3,0.8,5.4,2,7.3,3.4C93.7,186.7,94.7,188.9,94.7,191.7z"/>
	<path class="st2" d="M132.5,184.6c0,5.3-1.5,9.5-4.6,12.8c-3.1,3.3-6.9,4.9-11.7,4.9c-4.7,0-8.6-1.6-11.5-4.8
		c-3-3.2-4.4-7.5-4.4-12.8c0-5.3,1.5-9.6,4.6-12.8c3-3.3,7-4.9,11.8-4.9c4.8,0,8.6,1.6,11.5,4.8C131.1,175,132.5,179.2,132.5,184.6z
		 M126.7,184.7c0-3.6-0.9-6.6-2.8-8.9c-1.9-2.3-4.4-3.5-7.6-3.5c-3.2,0-5.7,1.1-7.5,3.4c-1.8,2.3-2.7,5.2-2.7,8.9
		c0,3.6,0.9,6.6,2.8,8.9c1.9,2.3,4.4,3.5,7.6,3.5c3.2,0,5.7-1.1,7.5-3.4C125.8,191.3,126.7,188.3,126.7,184.7z"/>
	<path class="st2" d="M170.7,184.6c0,5.3-1.5,9.5-4.6,12.8c-3.1,3.3-6.9,4.9-11.7,4.9c-4.7,0-8.6-1.6-11.5-4.8
		c-3-3.2-4.4-7.5-4.4-12.8c0-5.3,1.5-9.6,4.6-12.8c3-3.3,7-4.9,11.8-4.9c4.8,0,8.6,1.6,11.5,4.8C169.2,175,170.7,179.2,170.7,184.6z
		 M164.8,184.7c0-3.6-0.9-6.6-2.8-8.9c-1.9-2.3-4.4-3.5-7.6-3.5c-3.2,0-5.7,1.1-7.5,3.4c-1.8,2.3-2.7,5.2-2.7,8.9
		c0,3.6,0.9,6.6,2.8,8.9c1.9,2.3,4.4,3.5,7.6,3.5c3.2,0,5.7-1.1,7.5-3.4C163.9,191.3,164.8,188.3,164.8,184.7z"/>
	<path class="st2" d="M184.7,179.5v21.6h-5.9v-33.2l5.9-0.9v5.9c2.5-3.9,5.5-5.9,9.2-5.9c2.4,0,4.4,0.6,6.2,1.7l-1.5,5.6
		c-1.7-1-3.4-1.5-5.3-1.5C190,172.7,187.2,175,184.7,179.5z"/>
	<path class="st2" d="M246.3,177.9c2.9,0.8,5.2,2.1,6.8,3.9c1.6,1.8,2.4,4,2.4,6.6c0,4-1.4,7.1-4.2,9.4c-2.8,2.3-7,3.4-12.6,3.4
		h-15.4V156h15c5.2,0,9.2,1.1,11.8,3.2c2.6,2.1,3.9,5.1,3.9,8.8C254.1,172.6,251.5,175.9,246.3,177.9z M247.9,168.5
		c0-2.2-0.8-3.9-2.3-5.1c-1.6-1.2-3.8-1.8-6.8-1.8h-9.3v14.2h8.4c3.2,0,5.6-0.7,7.4-2C247,172.6,247.9,170.8,247.9,168.5z
		 M238.4,181.3h-8.9v14.2h9.8c6.7,0,10-2.4,10-7.1C249.4,183.7,245.7,181.3,238.4,181.3z"/>
	<path class="st2" d="M269.6,201.1h-5.9v-48.7l5.9-0.9V201.1z"/>
	<path class="st2" d="M309.9,184.6c0,5.3-1.5,9.5-4.6,12.8c-3.1,3.3-6.9,4.9-11.7,4.9c-4.7,0-8.6-1.6-11.5-4.8
		c-3-3.2-4.4-7.5-4.4-12.8c0-5.3,1.5-9.6,4.6-12.8c3-3.3,7-4.9,11.8-4.9c4.8,0,8.6,1.6,11.5,4.8C308.5,175,309.9,179.2,309.9,184.6z
		 M304.1,184.7c0-3.6-0.9-6.6-2.8-8.9c-1.9-2.3-4.4-3.5-7.6-3.5c-3.2,0-5.7,1.1-7.5,3.4c-1.8,2.3-2.7,5.2-2.7,8.9
		c0,3.6,0.9,6.6,2.8,8.9c1.9,2.3,4.4,3.5,7.6,3.5c3.2,0,5.7-1.1,7.5-3.4C303.2,191.3,304.1,188.3,304.1,184.7z"/>
	<path class="st2" d="M320.5,201.6c-2.9-1.3-4.3-3.1-4.3-5.6c0-1.3,0.5-2.6,1.5-3.8c1-1.2,2.3-2.1,4-2.6c-3.7-2.1-5.5-5.5-5.5-10.2
		c0-3.4,1.2-6.4,3.6-8.8c2.4-2.5,5.7-3.7,9.8-3.7c2.9,0,5.7,0.6,8.5,1.9l8.5-0.8l0.2,5.9l-6.4-1.2c0.6,0.6,1.2,1.5,1.6,2.9
		c0.4,1.3,0.7,2.6,0.7,3.9c0,3.4-1.3,6.2-3.8,8.6c-2.5,2.4-5.7,3.5-9.5,3.5c-1.3,0-2.8-0.3-4.6-0.8c-0.8,0.3-1.6,0.8-2.2,1.4
		c-0.7,0.6-1,1.3-1,2.1c0,1.1,0.5,1.9,1.6,2.4c1,0.5,3,0.8,6,0.8h3.1c9.6,0,14.4,3,14.4,8.9c0,3.6-1.7,6.6-5.2,9
		c-3.4,2.4-7.7,3.6-12.7,3.6c-4.4,0-8.1-0.9-11-2.7c-2.9-1.8-4.4-4.1-4.4-7c0-1.9,0.6-3.6,1.9-5C316.5,203,318.3,202.1,320.5,201.6z
		 M325,202.7c-1.7,0.5-3.1,1.2-4.2,2.1c-1,0.9-1.6,2-1.6,3.2c0,1.8,1,3.3,2.9,4.4c1.9,1.2,4.5,1.7,7.6,1.7c3.2,0,5.8-0.6,7.9-1.9
		c2.1-1.3,3.2-2.9,3.2-4.8c0-1.7-0.8-2.9-2.3-3.5c-1.5-0.6-4.1-0.9-7.6-0.9C328.9,203,326.9,202.9,325,202.7z M322.1,179.5
		c0,2.2,0.7,4,2.1,5.4c1.4,1.4,3.3,2,5.6,2c2.2,0,3.9-0.7,5.2-2.2c1.3-1.4,1.9-3.3,1.9-5.7c0-2.3-0.6-4.1-2-5.5s-3.2-2-5.6-2
		c-2.2,0-3.9,0.7-5.2,2.2C322.7,175.3,322.1,177.2,322.1,179.5z"/>
</g>
</svg>
